<?xml version="1.0" encoding="UTF-8" standalone="no"?>
<!-- Created with Inkscape (http://www.inkscape.org/) -->

<svg
   xmlns:dc="http://purl.org/dc/elements/1.1/"
   xmlns:cc="http://creativecommons.org/ns#"
   xmlns:rdf="http://www.w3.org/1999/02/22-rdf-syntax-ns#"
   xmlns:svg="http://www.w3.org/2000/svg"
   xmlns="http://www.w3.org/2000/svg"
   xmlns:sodipodi="http://sodipodi.sourceforge.net/DTD/sodipodi-0.dtd"
   xmlns:inkscape="http://www.inkscape.org/namespaces/inkscape"
   version="1.1"
   id="svg2"
   xml:space="preserve"
   width="173.65714"
   height="67.364822"
   viewBox="0 0 173.65712 67.364821"
   sodipodi:docname="bike.svg"
   inkscape:version="0.92.1 r15371"><metadata
     id="metadata8"><rdf:RDF><cc:Work
         rdf:about=""><dc:format>image/svg+xml</dc:format><dc:type
           rdf:resource="http://purl.org/dc/dcmitype/StillImage" /><dc:title></dc:title></cc:Work></rdf:RDF></metadata><defs
     id="defs6" /><sodipodi:namedview
     pagecolor="#ffffff"
     bordercolor="#666666"
     borderopacity="1"
     objecttolerance="10"
     gridtolerance="10"
     guidetolerance="10"
     inkscape:pageopacity="0"
     inkscape:pageshadow="2"
     inkscape:window-width="1920"
     inkscape:window-height="1027"
     id="namedview4"
     showgrid="false"
     inkscape:zoom="5.6568542"
     inkscape:cx="133.32143"
     inkscape:cy="-5.1164649"
     inkscape:window-x="-8"
     inkscape:window-y="-8"
     inkscape:window-maximized="1"
     inkscape:current-layer="g10"
     inkscape:snap-midpoints="true"
     inkscape:snap-center="true"
     inkscape:snap-object-midpoints="true"
     inkscape:object-paths="true"
     fit-margin-top="0"
     fit-margin-left="0"
     fit-margin-right="0"
     fit-margin-bottom="0" /><g
     id="g10"
     inkscape:groupmode="layer"
     inkscape:label="ink_ext_XXXXXX"
     transform="matrix(1.3333333,0,0,-1.3333333,-371.10841,419.44926)"><g
       id="g4711"
       transform="matrix(0.3941673,0,0,0.39263929,269.08254,153.31449)"
       style="stroke-width:2.54192567"><path
         sodipodi:nodetypes="cccczccccccccczzc"
         inkscape:connector-curvature="0"
         id="path4612"
         d="m 101.00491,301.16855 -0.71828,0.74821 -35.743282,36.49634 -3.476971,1.39875 c 0,0 1.464488,3.5285 2.326048,6.04846 0.86156,2.51997 1.201082,5.9614 1.862391,6.20167 16.761931,-1.18842 50.285794,-3.56525 50.285794,-3.56525 l 20.8132,-39.5949 z m 1.90353,4.82306 1.57588,-1.06917 30.29421,4.56175 -19.86127,35.3849 -2.49667,0.55293 c 0,0 -42.479145,2.40302 -43.206996,1.98214 -0.727851,-0.42088 -1.341118,-1.90059 -0.804794,-4.06653 0.536324,-2.16593 34.49964,-37.34602 34.49964,-37.34602 z"
         style="color:#000000;font-style:normal;font-variant:normal;font-weight:normal;font-stretch:normal;font-size:medium;line-height:normal;font-family:sans-serif;font-variant-ligatures:normal;font-variant-position:normal;font-variant-caps:normal;font-variant-numeric:normal;font-variant-alternates:normal;font-feature-settings:normal;text-indent:0;text-align:start;text-decoration:none;text-decoration-line:none;text-decoration-style:solid;text-decoration-color:#000000;letter-spacing:normal;word-spacing:normal;text-transform:none;writing-mode:lr-tb;direction:ltr;text-orientation:mixed;dominant-baseline:auto;baseline-shift:baseline;text-anchor:start;white-space:normal;shape-padding:0;clip-rule:nonzero;display:inline;overflow:visible;visibility:visible;opacity:1;isolation:auto;mix-blend-mode:normal;color-interpolation:sRGB;color-interpolation-filters:linearRGB;solid-color:#000000;solid-opacity:1;vector-effect:none;fill:#000000;fill-opacity:1;fill-rule:nonzero;stroke:none;stroke-width:1.90644419px;stroke-linecap:butt;stroke-linejoin:miter;stroke-miterlimit:4;stroke-dasharray:none;stroke-dashoffset:0;stroke-opacity:1;color-rendering:auto;image-rendering:auto;shape-rendering:auto;text-rendering:auto;enable-background:accumulate" /><circle
         transform="scale(1,-1)"
         r="26.430168"
         cy="-309.74936"
         cx="50.847469"
         id="path4571"
         style="opacity:1;fill:none;fill-opacity:0.23720931;fill-rule:nonzero;stroke:#000000;stroke-width:1.90644419;stroke-miterlimit:4;stroke-dasharray:none;stroke-dashoffset:0;stroke-opacity:1" /><path
         sodipodi:nodetypes="ccccccccc"
         inkscape:connector-curvature="0"
         id="path4573"
         d="m 50.855157,308.20738 -1.656095,0.94855 c 0.624803,0.78207 2.052675,3.6345 3.379103,6.62437 1.326378,2.98988 2.920819,6.65191 4.281062,10.13976 2.720384,6.97571 4.922084,13.60418 4.922084,13.60418 l 2.762037,-1.11114 c 0,0 -2.572764,-6.40259 -5.309749,-13.42084 -1.368517,-3.5091 -2.836793,-7.14544 -4.190089,-10.19595 -1.353347,-3.05046 -3.124575,-5.25729 -4.188353,-6.58893 z"
         style="color:#000000;font-style:normal;font-variant:normal;font-weight:normal;font-stretch:normal;font-size:medium;line-height:normal;font-family:sans-serif;font-variant-ligatures:normal;font-variant-position:normal;font-variant-caps:normal;font-variant-numeric:normal;font-variant-alternates:normal;font-feature-settings:normal;text-indent:0;text-align:start;text-decoration:none;text-decoration-line:none;text-decoration-style:solid;text-decoration-color:#000000;letter-spacing:normal;word-spacing:normal;text-transform:none;writing-mode:lr-tb;direction:ltr;text-orientation:mixed;dominant-baseline:auto;baseline-shift:baseline;text-anchor:start;white-space:normal;shape-padding:0;clip-rule:nonzero;display:inline;overflow:visible;visibility:visible;opacity:1;isolation:auto;mix-blend-mode:normal;color-interpolation:sRGB;color-interpolation-filters:linearRGB;solid-color:#000000;solid-opacity:1;vector-effect:none;fill:#000000;fill-opacity:1;fill-rule:nonzero;stroke:none;stroke-width:1.27096283;stroke-linecap:butt;stroke-linejoin:miter;stroke-miterlimit:4;stroke-dasharray:none;stroke-dashoffset:0;stroke-opacity:1;color-rendering:auto;image-rendering:auto;shape-rendering:auto;text-rendering:auto;enable-background:accumulate" /><circle
         style="opacity:1;fill:none;fill-opacity:0.23720931;fill-rule:nonzero;stroke:#000000;stroke-width:1.90644419;stroke-miterlimit:4;stroke-dasharray:none;stroke-dashoffset:0;stroke-opacity:1"
         id="circle4606"
         cx="135.10999"
         cy="-309.74936"
         r="26.430168"
         transform="scale(1,-1)" /><path
         sodipodi:nodetypes="cscsscccccc"
         inkscape:connector-curvature="0"
         id="path4658"
         d="m 60.49219,343.54687 c -12.118361,2.35485 -10.781251,13.66406 -6.750001,14.97656 2.96731,0.9661 13.710938,-0.0937 16.359376,-0.89062 1.352109,-1.1187 0.838027,-2.84063 0.350494,-4.51239 -0.240573,-0.82493 1.328346,-1.48978 0.07138,-1.4173 -1.10966,0.064 -4.617027,0.31266 -5.268621,0.35886 -0.633771,0.64193 0.918428,1.41885 1.331121,2.31302 -2.460938,1.875 -11.226564,2.46094 -12.140627,1.61719 -2.039001,-6.04432 1.112753,-8.72552 7.312502,-9.96094 0.05403,-0.92782 -0.101239,-1.75314 -1.265624,-2.48438 z"
         style="fill:#000000;fill-opacity:1;stroke:none;stroke-width:1.90644419px;stroke-linecap:butt;stroke-linejoin:miter;stroke-opacity:1" /><path
         sodipodi:nodetypes="cccccc"
         inkscape:connector-curvature="0"
         id="path4662"
         d="m 102.90844,305.99161 -1.87975,1.95178 11.3919,37.47863 2.49667,-0.55293 -11.22088,-39.41207 -0.78794,0.53464"
         style="fill:#000000;fill-opacity:1;stroke:#000000;stroke-width:1.90644419px;stroke-linecap:butt;stroke-linejoin:miter;stroke-opacity:1" /><path
         sodipodi:nodetypes="ccczcc"
         inkscape:connector-curvature="0"
         id="path4673"
         d="m 103.97463,305.26824 0.50969,-0.3458 2.73724,0.41218 c 0,0 -1.57778,0.35548 -2.03893,0.91918 -0.46115,0.56369 -0.60641,2.29353 -0.60641,2.29353 z"
         style="fill:#000000;fill-opacity:1;stroke:none;stroke-width:1.90644419px;stroke-linecap:butt;stroke-linejoin:miter;stroke-opacity:1" /><path
         inkscape:connector-curvature="0"
         id="path4675"
         d="m 113.47349,348.64329 3.66714,12.62233 5.57812,0.84375 -0.14062,-2.29687 -3.14063,-0.23438 -3.28974,-12.23643 -0.60715,1.15504 z"
         style="fill:#000000;fill-opacity:1;stroke:none;stroke-width:1.90644419px;stroke-linecap:butt;stroke-linejoin:miter;stroke-opacity:1" /><path
         sodipodi:nodetypes="zzzzzszz"
         inkscape:connector-curvature="0"
         id="path4677"
         d="m 107.98847,366.25921 c 0.61104,0.28727 24.49933,0.23036 25.02731,-0.38637 0.52797,-0.61673 0.26342,-1.918 -2.38482,-1.58697 -2.64825,0.33103 -4.96251,-2.27879 -6.18256,-2.76648 -1.22005,-0.48769 -5.64445,-1.33761 -7.30777,-0.25377 -1.66332,1.08384 -1.68044,1.768 -2.48489,2.05833 -4.16992,1.50496 -6.44208,0.86812 -6.96558,1.41056 -0.52351,0.54245 -0.31273,1.23742 0.29831,1.5247 z"
         style="fill:#000000;fill-opacity:1;stroke:none;stroke-width:1.90644419px;stroke-linecap:butt;stroke-linejoin:miter;stroke-opacity:1" /><circle
         style="opacity:1;fill:none;fill-opacity:1;fill-rule:nonzero;stroke:#000000;stroke-width:1.27096272;stroke-miterlimit:4;stroke-dasharray:none;stroke-dashoffset:0;stroke-opacity:1"
         id="circle4679"
         cx="101.658"
         cy="-303.25079"
         r="5.8218212"
         transform="scale(1,-1)" /></g><g
       transform="translate(10.456953,0.80570438)"
       id="g4880"><path
         sodipodi:nodetypes="cccczccccccccczzc"
         inkscape:connector-curvature="0"
         id="path4856"
         d="m 372.80015,271.5651 -0.28312,0.29377 -14.08883,14.3299 -1.37051,0.5492 c 0,0 0.57725,1.38543 0.91685,2.37487 0.3396,0.98944 0.47343,2.34068 0.73409,2.43502 6.60701,-0.46662 19.82102,-1.39986 19.82102,-1.39986 l 8.20388,-15.54651 z m 0.75031,1.89372 0.62116,-0.4198 11.94099,1.79112 -7.82866,13.8935 -0.98411,0.21711 c 0,0 -16.74389,0.94352 -17.03078,0.77826 -0.2869,-0.16525 -0.52863,-0.74624 -0.31723,-1.59668 0.2114,-0.85043 13.59863,-14.66351 13.59863,-14.66351 z"
         style="color:#000000;font-style:normal;font-variant:normal;font-weight:normal;font-stretch:normal;font-size:medium;line-height:normal;font-family:sans-serif;font-variant-ligatures:normal;font-variant-position:normal;font-variant-caps:normal;font-variant-numeric:normal;font-variant-alternates:normal;font-feature-settings:normal;text-indent:0;text-align:start;text-decoration:none;text-decoration-line:none;text-decoration-style:solid;text-decoration-color:#000000;letter-spacing:normal;word-spacing:normal;text-transform:none;writing-mode:lr-tb;direction:ltr;text-orientation:mixed;dominant-baseline:auto;baseline-shift:baseline;text-anchor:start;white-space:normal;shape-padding:0;clip-rule:nonzero;display:inline;overflow:visible;visibility:visible;opacity:1;isolation:auto;mix-blend-mode:normal;color-interpolation:sRGB;color-interpolation-filters:linearRGB;solid-color:#000000;solid-opacity:1;vector-effect:none;fill:#000000;fill-opacity:1;fill-rule:nonzero;stroke:none;stroke-width:0.75px;stroke-linecap:butt;stroke-linejoin:miter;stroke-miterlimit:4;stroke-dasharray:none;stroke-dashoffset:0;stroke-opacity:1;color-rendering:auto;image-rendering:auto;shape-rendering:auto;text-rendering:auto;enable-background:accumulate" /><path
         sodipodi:nodetypes="ccccccccc"
         inkscape:connector-curvature="0"
         id="path4858"
         d="m 353.03276,274.32882 -0.65278,0.37243 c 0.24628,0.30708 0.8091,1.42705 1.33193,2.60099 0.52282,1.17395 1.15129,2.6118 1.68746,3.98127 1.07228,2.73894 1.94012,5.34154 1.94012,5.34154 l 1.08871,-0.43628 c 0,0 -1.0141,-2.51391 -2.09293,-5.26955 -0.53943,-1.37781 -1.11817,-2.80558 -1.6516,-4.00333 -0.53344,-1.19773 -1.2316,-2.06422 -1.65091,-2.58707 z"
         style="color:#000000;font-style:normal;font-variant:normal;font-weight:normal;font-stretch:normal;font-size:medium;line-height:normal;font-family:sans-serif;font-variant-ligatures:normal;font-variant-position:normal;font-variant-caps:normal;font-variant-numeric:normal;font-variant-alternates:normal;font-feature-settings:normal;text-indent:0;text-align:start;text-decoration:none;text-decoration-line:none;text-decoration-style:solid;text-decoration-color:#000000;letter-spacing:normal;word-spacing:normal;text-transform:none;writing-mode:lr-tb;direction:ltr;text-orientation:mixed;dominant-baseline:auto;baseline-shift:baseline;text-anchor:start;white-space:normal;shape-padding:0;clip-rule:nonzero;display:inline;overflow:visible;visibility:visible;opacity:1;isolation:auto;mix-blend-mode:normal;color-interpolation:sRGB;color-interpolation-filters:linearRGB;solid-color:#000000;solid-opacity:1;vector-effect:none;fill:#000000;fill-opacity:1;fill-rule:nonzero;stroke:none;stroke-width:0.5;stroke-linecap:butt;stroke-linejoin:miter;stroke-miterlimit:4;stroke-dasharray:none;stroke-dashoffset:0;stroke-opacity:1;color-rendering:auto;image-rendering:auto;shape-rendering:auto;text-rendering:auto;enable-background:accumulate" /><path
         sodipodi:nodetypes="cscsscccccc"
         inkscape:connector-curvature="0"
         id="path4860"
         d="m 356.83136,288.20449 c -4.77666,0.92461 -4.24961,5.36505 -2.66063,5.88039 1.16962,0.37932 5.40441,-0.0368 6.44833,-0.3497 0.53296,-0.43924 0.33033,-1.11534 0.13816,-1.77174 -0.0948,-0.3239 0.52359,-0.58495 0.0281,-0.55649 -0.43739,0.0251 -1.81988,0.12277 -2.07671,0.14091 -0.24982,0.25204 0.36201,0.55709 0.52468,0.90818 -0.97002,0.7362 -4.42514,0.96626 -4.78544,0.63497 -0.80371,-2.37324 0.43861,-3.42598 2.88235,-3.91106 0.0213,-0.36429 -0.0399,-0.68835 -0.49887,-0.97546 z"
         style="fill:#000000;fill-opacity:1;stroke:none;stroke-width:0.75px;stroke-linecap:butt;stroke-linejoin:miter;stroke-opacity:1" /><path
         sodipodi:nodetypes="cccccc"
         inkscape:connector-curvature="0"
         id="path4862"
         d="m 373.55046,273.45882 -0.74093,0.76634 4.49031,14.71559 0.98411,-0.21711 -4.42291,-15.47472 -0.31058,0.20992"
         style="fill:#000000;fill-opacity:1;stroke:#000000;stroke-width:0.75px;stroke-linecap:butt;stroke-linejoin:miter;stroke-opacity:1" /><path
         sodipodi:nodetypes="ccczcc"
         inkscape:connector-curvature="0"
         id="path4864"
         d="m 373.97072,273.1748 0.2009,-0.13578 1.07893,0.16184 c 0,0 -0.62191,0.13957 -0.80368,0.3609 -0.18177,0.22133 -0.23902,0.90053 -0.23902,0.90053 z"
         style="fill:#000000;fill-opacity:1;stroke:none;stroke-width:0.75px;stroke-linecap:butt;stroke-linejoin:miter;stroke-opacity:1" /><path
         inkscape:connector-curvature="0"
         id="path4866"
         d="m 377.71486,290.20554 1.44547,4.95603 2.19871,0.33129 -0.0554,-0.90185 -1.23793,-0.092 -1.29671,-4.80451 -0.23932,0.45352 z"
         style="fill:#000000;fill-opacity:1;stroke:none;stroke-width:0.75px;stroke-linecap:butt;stroke-linejoin:miter;stroke-opacity:1" /><path
         sodipodi:nodetypes="zzzzzszz"
         inkscape:connector-curvature="0"
         id="path4868"
         d="m 375.55284,297.12225 c 0.24086,0.11279 9.65684,0.0904 9.86495,-0.15171 0.20811,-0.24215 0.10383,-0.75308 -0.94002,-0.6231 -1.04385,0.12997 -1.95606,-0.89475 -2.43696,-1.08623 -0.4809,-0.19149 -2.22486,-0.5252 -2.88048,-0.0996 -0.65563,0.42555 -0.66238,0.69418 -0.97947,0.80818 -1.64364,0.5909 -2.53925,0.34086 -2.7456,0.55384 -0.20635,0.21299 -0.12327,0.48586 0.11758,0.59866 z"
         style="fill:#000000;fill-opacity:1;stroke:none;stroke-width:0.75px;stroke-linecap:butt;stroke-linejoin:miter;stroke-opacity:1" /><path
         style="fill:none;stroke:#000000;stroke-width:0.75px;stroke-linecap:butt;stroke-linejoin:miter;stroke-opacity:1"
         d="m 353.79853,293.87894 10.13898,3.7773 2.0625,8.625 9.31308,-1.76197 5.68131,-7.3449 -9.46314,-10.11188 1.52633,-14.67983"
         id="path4870"
         inkscape:connector-curvature="0"
         sodipodi:nodetypes="ccccccc" /><circle
         style="opacity:1;fill:#000000;fill-opacity:1;fill-rule:nonzero;stroke:none;stroke-width:1.5;stroke-miterlimit:4;stroke-dasharray:none;stroke-dashoffset:0;stroke-opacity:1"
         id="circle4872"
         cx="363.09375"
         cy="-310.40625"
         r="3.375"
         transform="scale(1,-1)" /><ellipse
         ry="10.218869"
         rx="10.258698"
         style="opacity:1;fill:none;fill-opacity:0.23720931;fill-rule:nonzero;stroke:#000000;stroke-width:2.25;stroke-miterlimit:4;stroke-dasharray:none;stroke-dashoffset:0;stroke-opacity:1"
         id="ellipse4874"
         cx="386.73352"
         cy="-274.6015"
         transform="scale(1,-1)" /><ellipse
         ry="3.129626"
         rx="3.1414812"
         transform="scale(1,-1)"
         cy="-272.38266"
         cx="373.05759"
         id="ellipse4876"
         style="opacity:1;fill:none;fill-opacity:1;fill-rule:nonzero;stroke:#000000;stroke-width:0.5;stroke-miterlimit:4;stroke-dasharray:none;stroke-dashoffset:0;stroke-opacity:1" /><ellipse
         transform="scale(1,-1)"
         cy="-274.70126"
         cx="352.37997"
         id="ellipse4878"
         style="opacity:1;fill:none;fill-opacity:0.23720931;fill-rule:nonzero;stroke:#000000;stroke-width:2.25;stroke-miterlimit:4;stroke-dasharray:none;stroke-dashoffset:0;stroke-opacity:1"
         rx="10.258698"
         ry="10.218869" /></g></g></svg>