<?xml version="1.0" encoding="UTF-8" standalone="no"?>
<!-- Created with Inkscape (http://www.inkscape.org/) -->

<svg
   xmlns:dc="http://purl.org/dc/elements/1.1/"
   xmlns:cc="http://creativecommons.org/ns#"
   xmlns:rdf="http://www.w3.org/1999/02/22-rdf-syntax-ns#"
   xmlns:svg="http://www.w3.org/2000/svg"
   xmlns="http://www.w3.org/2000/svg"
   xmlns:sodipodi="http://sodipodi.sourceforge.net/DTD/sodipodi-0.dtd"
   xmlns:inkscape="http://www.inkscape.org/namespaces/inkscape"
   width="179.45985mm"
   height="128.18233mm"
   viewBox="0 0 179.45985 128.18233"
   version="1.1"
   id="svg8"
   inkscape:version="0.92.2 5c3e80d, 2017-08-06"
   sodipodi:docname="pop.svg">
  <defs
     id="defs2">
    <clipPath
       id="clipPath974"
       clipPathUnits="userSpaceOnUse">
      <path
         inkscape:connector-curvature="0"
         id="path972"
         d="M 0,0 H 60 V 70 H 0 Z" />
    </clipPath>
  </defs>
  <sodipodi:namedview
     id="base"
     pagecolor="#ffffff"
     bordercolor="#666666"
     borderopacity="1.0"
     inkscape:pageopacity="0.0"
     inkscape:pageshadow="2"
     inkscape:zoom="0.70710678"
     inkscape:cx="-318.74754"
     inkscape:cy="334.65319"
     inkscape:document-units="mm"
     inkscape:current-layer="layer1"
     showgrid="false"
     inkscape:window-width="1440"
     inkscape:window-height="783"
     inkscape:window-x="0"
     inkscape:window-y="1"
     inkscape:window-maximized="1"
     inkscape:snap-global="true"
     fit-margin-top="0"
     fit-margin-left="0"
     fit-margin-right="0"
     fit-margin-bottom="0" />
  <metadata
     id="metadata5">
    <rdf:RDF>
      <cc:Work
         rdf:about="">
        <dc:format>image/svg+xml</dc:format>
        <dc:type
           rdf:resource="http://purl.org/dc/dcmitype/StillImage" />
        <dc:title></dc:title>
      </cc:Work>
    </rdf:RDF>
  </metadata>
  <g
     inkscape:label="レイヤー 1"
     inkscape:groupmode="layer"
     id="layer1"
     transform="translate(-9.7358428,-123.85314)">
    <path
       style="fill:none;stroke:#000000;stroke-width:0.35277778;stroke-linecap:butt;stroke-linejoin:miter;stroke-miterlimit:4;stroke-dasharray:none;stroke-opacity:1"
       d="m 37.889872,157.75833 c -9.299139,30.51688 2.750447,59.06918 2.750447,59.06918"
       id="path883"
       inkscape:connector-curvature="0"
       sodipodi:nodetypes="cc" />
    <path
       style="fill:none;stroke:#000000;stroke-width:0.26458329px;stroke-linecap:butt;stroke-linejoin:miter;stroke-opacity:1"
       d="M 40.640319,216.82751 C 13.135819,201.50357 29.507546,165.09288 29.507546,165.09288"
       id="path885"
       inkscape:connector-curvature="0"
       sodipodi:nodetypes="cc" />
    <path
       style="fill:none;stroke:#000000;stroke-width:0.26458329px;stroke-linecap:butt;stroke-linejoin:miter;stroke-opacity:1"
       d="m 24.268601,183.56016 c -0.611979,-19.69953 13.178655,-47.17754 49.046361,-43.7497 46.795978,5.46532 43.159178,43.7497 43.159178,43.7497"
       id="path887"
       inkscape:connector-curvature="0"
       sodipodi:nodetypes="ccc" />
    <path
       style="fill:none;stroke:#000000;stroke-width:0.26458329px;stroke-linecap:butt;stroke-linejoin:miter;stroke-opacity:1"
       d="m 102.0994,157.42067 c 8.33512,33.71094 -5.186301,60.38332 -5.186301,60.38332"
       id="path889"
       inkscape:connector-curvature="0" />
    <path
       style="fill:none;stroke:#000000;stroke-width:0.26458329px;stroke-linecap:butt;stroke-linejoin:miter;stroke-opacity:1"
       d="m 111.7311,165.38537 c 9.44646,42.78695 -14.818001,52.41862 -14.818001,52.41862"
       id="path891"
       inkscape:connector-curvature="0"
       sodipodi:nodetypes="cc" />
    <path
       style="fill:none;stroke:#000000;stroke-width:0.26458329px;stroke-linecap:butt;stroke-linejoin:miter;stroke-opacity:1"
       d="m 114.34406,183.37492 c 8.59315,7.94193 -0.94594,13.12824 -0.94594,13.12824"
       id="path893"
       inkscape:connector-curvature="0"
       sodipodi:nodetypes="cc" />
    <path
       style="fill:none;stroke:#000000;stroke-width:0.26458329px;stroke-linecap:butt;stroke-linejoin:miter;stroke-opacity:1"
       d="m 58.085038,149.07299 c -4.72149,-6.37841 -5.990147,7.3614 -3.376273,9.44734 1.908662,1.52317 3.1672,-4.72026 6.179602,-3.93442 3.012398,0.78583 3.448231,6.07905 6.470606,6.44678 3.391836,0.41269 5.619431,-5.30518 8.784546,-5.28256 3.165115,0.0235 4.312445,4.1366 6.277434,2.92502 3.037515,-1.87287 0.640221,-8.62678 0.318019,-10.70076 -0.322214,-2.07402 -2.641262,0.42124 -2.641262,0.42124"
       id="path895"
       inkscape:connector-curvature="0"
       sodipodi:nodetypes="cazazazc" />
    <path
       style="fill:none;stroke:#000000;stroke-width:0.26458329px;stroke-linecap:butt;stroke-linejoin:miter;stroke-opacity:1"
       d="M 37.27068,162.23655 C 57.645421,151.86393 54.913356,146.26088 50.745788,149.03924"
       id="path897"
       inkscape:connector-curvature="0"
       sodipodi:nodetypes="cc" />
    <path
       style="fill:none;stroke:#000000;stroke-width:0.26458329px;stroke-linecap:butt;stroke-linejoin:miter;stroke-opacity:1"
       d="M 102.60877,160.70844 C 79.826104,152.2344 79.594576,144.64017 88.948432,149.40971"
       id="path899"
       inkscape:connector-curvature="0"
       sodipodi:nodetypes="cc" />
    <path
       style="fill:none;stroke:#000000;stroke-width:0.26458329px;stroke-linecap:butt;stroke-linejoin:miter;stroke-opacity:1"
       d="m 98.441204,147.65006 c 7.409006,-8.14986 5.001076,0.97244 8.057286,1.43552 3.05622,0.46307 3.61189,-1.71336 5.46414,-0.0463 1.85225,1.66702 -0.5557,4.16753 0.27784,6.20502 0.83352,2.03748 3.24144,-1.20418 3.79711,1.75961 0.55568,2.96363 -2.82468,7.40903 -2.82468,7.40903"
       id="path920"
       inkscape:connector-curvature="0"
       sodipodi:nodetypes="cscccc" />
    <path
       style="fill:none;stroke:#000000;stroke-width:0.26458329px;stroke-linecap:butt;stroke-linejoin:miter;stroke-opacity:1"
       d="m 116.54695,174.73921 c 5.24799,2.1393 8.80601,2.743 11.10453,2.12879 0.46007,-1.3335 -1.75068,-5.97218 -1.75068,-5.97218 0,0 3.77896,5.162 5.88089,5.04737 2.11803,-10.11838 0.50399,-22.08584 -4.76954,-26.57978 -10.65043,-9.07604 -22.59744,-3.88965 -22.59744,-3.88965"
       id="path922"
       inkscape:connector-curvature="0"
       sodipodi:nodetypes="ccccsc" />
    <path
       style="fill:none;stroke:#000000;stroke-width:0.26458329px;stroke-linecap:butt;stroke-linejoin:miter;stroke-opacity:1"
       d="m 126.73431,147.789 c -1.29657,-7.77947 4.07496,-23.89403 4.07496,-23.89403"
       id="path933"
       inkscape:connector-curvature="0"
       sodipodi:nodetypes="cc" />
    <path
       style="fill:none;stroke:#000000;stroke-width:0.26458329px;stroke-linecap:butt;stroke-linejoin:miter;stroke-opacity:1"
       d="m 125.16298,177.9158 c 0.66147,7.83403 1.47206,19.3285 0.97583,23.16704 l -5.42431,3.29235 8.24251,1.11138 c 4.11792,57.62457 60.1981,39.54548 60.1981,39.54548"
       id="path935"
       inkscape:connector-curvature="0"
       sodipodi:nodetypes="ccccc" />
    <g
       id="g1166"
       transform="matrix(3.4539956,0,0,3.4539956,-186.14676,-277.54045)"
       style="stroke-width:0.28951976">
      <g
         transform="translate(-6)"
         id="g1139"
         style="stroke-width:0.28951976">
        <path
           d="m 111.50189,121.1497 c 0.14213,0.19961 0.28756,0.2774 0.50404,0.2774 0.0812,0 0.15901,-0.007 0.26395,-0.0236 -0.0101,0.33488 -0.0101,0.33488 -0.017,0.48716 -0.003,0.0642 -0.003,0.11497 -0.007,0.16243 -0.2977,0.14542 -0.41267,0.21979 -0.53792,0.34834 -0.0676,0.0678 -0.10152,0.13539 -0.10152,0.18945 0,0.0576 0.0373,0.10838 0.11167,0.14213 0.0575,0.0272 0.1557,0.0948 0.22664,0.15228 0.20646,0.18261 0.20646,0.18261 0.2538,0.18261 0.0575,0 0.12182,-0.0473 0.16243,-0.12513 0.0303,-0.054 0.0439,-0.11839 0.0439,-0.19961 0,-0.027 0,-0.0642 -0.003,-0.12854 -0.003,-0.10152 -0.003,-0.10152 -0.003,-0.46014 0.32816,-0.159 0.64947,-0.24351 0.91684,-0.24351 0.32473,0 0.50062,0.14212 0.50062,0.40251 0,0.27068 -0.17589,0.46357 -0.42283,0.46357 -0.12182,0 -0.22664,-0.0406 -0.32143,-0.12855 -0.0711,-0.0678 -0.12183,-0.1387 -0.20304,-0.29441 l -0.0506,0.017 c 0.1184,0.39237 0.34162,0.5987 0.6529,0.5987 0.32473,0 0.57853,-0.25709 0.57853,-0.58855 0,-0.35862 -0.29098,-0.57853 -0.75441,-0.57853 -0.2741,0 -0.51762,0.0508 -0.89654,0.18603 0.003,-0.20303 0.0101,-0.35189 0.0134,-0.44326 0.007,-0.12169 0.007,-0.12169 0.0102,-0.16915 0.18274,-0.0405 0.34174,-0.0947 0.49402,-0.16573 0.12182,-0.0575 0.15215,-0.0845 0.15215,-0.13197 0,-0.0303 -0.0236,-0.0608 -0.0575,-0.0744 -0.0406,-0.0169 -0.0981,-0.0305 -0.12854,-0.0305 -0.0203,0 -0.0541,0.0136 -0.0812,0.0339 -0.10824,0.0912 -0.18946,0.13528 -0.36876,0.19619 0.017,-0.24695 0.0507,-0.40595 0.10494,-0.50417 0.0372,-0.0676 0.0372,-0.0676 0.0372,-0.0879 0,-0.0372 -0.0305,-0.0845 -0.0744,-0.10825 -0.0914,-0.0508 -0.2335,-0.0845 -0.34847,-0.0845 -0.0711,0 -0.0982,0.0101 -0.14555,0.0473 0.2335,0.0406 0.2741,0.11167 0.2741,0.46686 0,0.0609 0,0.21319 -0.003,0.31128 -0.15558,0.0338 -0.24365,0.0439 -0.33831,0.0439 -0.14885,0 -0.26725,-0.0508 -0.40265,-0.17245 l -0.0337,0.0337 z m 0.73411,1.08257 c 0,0.0203 -0.007,0.18616 -0.0237,0.49059 -0.003,0.0609 -0.0203,0.0846 -0.0608,0.0846 -0.044,0 -0.1354,-0.0237 -0.20976,-0.0542 -0.0914,-0.0337 -0.1354,-0.0711 -0.1354,-0.10481 0,-0.0373 0.0339,-0.0914 0.10152,-0.16243 0.0846,-0.0914 0.16915,-0.15558 0.32816,-0.2538 z m 1.17736,-1.41073 c 0.11167,0.0305 0.16573,0.0508 0.23337,0.0879 0.10494,0.0609 0.159,0.1151 0.21319,0.20976 -0.0473,0.0406 -0.16573,0.11168 -0.36877,0.21662 l 0.0203,0.0337 c 0.28412,-0.0744 0.36534,-0.0914 0.41609,-0.0914 0.0102,0 0.0237,0 0.0711,0.007 0.027,0.007 0.044,0.007 0.0508,0.007 0.0609,0 0.10152,-0.0372 0.10152,-0.0981 0,-0.10494 -0.0879,-0.21649 -0.23692,-0.2977 -0.1387,-0.0745 -0.29086,-0.11167 -0.49719,-0.12182 l -0.003,0.0473"
           style="fill:#000000;fill-opacity:1;fill-rule:nonzero;stroke:none;stroke-width:0.10213613"
           id="path976"
           inkscape:connector-curvature="0" />
        <path
           d="m 112.83826,125.66487 c 0.007,-0.28412 0.11497,-0.46686 0.36534,-0.62916 0.23337,-0.15228 0.23337,-0.15228 0.30443,-0.22677 0.10152,-0.10481 0.14885,-0.22664 0.14885,-0.38564 0,-0.36534 -0.28755,-0.58183 -0.77129,-0.58183 -0.21649,0 -0.39579,0.0405 -0.54807,0.12855 -0.17931,0.10481 -0.29441,0.29085 -0.29441,0.47701 0,0.0981 0.0609,0.14213 0.19289,0.14213 0.1151,0 0.15228,-0.0339 0.15228,-0.14556 0.003,-0.1387 0.0169,-0.21649 0.0541,-0.2977 0.0678,-0.14213 0.20976,-0.21649 0.40937,-0.21649 0.14885,0 0.26052,0.0406 0.34516,0.12182 0.0879,0.0879 0.13528,0.21306 0.13528,0.35176 0,0.11168 -0.027,0.21649 -0.0846,0.31471 -0.0405,0.0709 -0.0439,0.0744 -0.22664,0.25367 -0.16916,0.16243 -0.26383,0.32144 -0.29086,0.47701 -0.0136,0.0609 -0.0136,0.10495 -0.0136,0.21649 z m -0.0542,0.26738 c -0.12854,0 -0.22664,0.0981 -0.22664,0.22664 0,0.12854 0.0981,0.22664 0.22664,0.22664 0.12855,0 0.22664,-0.0981 0.22664,-0.22664 0,-0.12855 -0.0981,-0.22664 -0.22664,-0.22664"
           style="fill:#000000;fill-opacity:1;fill-rule:nonzero;stroke:none;stroke-width:0.10213613"
           id="path978"
           inkscape:connector-curvature="0" />
        <path
           d="m 111.54923,133.18642 c 0.20633,-0.10487 0.42625,-0.26726 0.60556,-0.44996 0.33501,-0.33493 0.53462,-0.67997 0.75111,-1.28553 0.18945,-0.0406 0.54122,-0.0914 0.62928,-0.0914 0.0642,0 0.0913,0.0305 0.0913,0.11168 0,0.0709 -0.0169,0.20963 -0.0439,0.36876 -0.0643,0.37549 -0.14213,0.66303 -0.23007,0.85249 -0.0372,0.0846 -0.0711,0.11841 -0.12512,0.11841 -0.0711,0 -0.33158,-0.0711 -0.61584,-0.16578 l -0.0203,0.0474 c 0.18946,0.10488 0.30456,0.16915 0.34174,0.19284 0.0812,0.0507 0.10824,0.0812 0.12854,0.14885 0.0136,0.0474 0.044,0.0778 0.0812,0.0778 0.0914,0 0.20303,-0.0474 0.28412,-0.1218 0.14556,-0.13194 0.22334,-0.35523 0.35189,-1.00136 0.0846,-0.4128 0.0846,-0.4128 0.1184,-0.47028 0.0237,-0.044 0.0305,-0.0575 0.0305,-0.0812 0,-0.0406 -0.0372,-0.0879 -0.11497,-0.15557 -0.0881,-0.0779 -0.12854,-0.0981 -0.176,-0.0981 -0.027,0 -0.0405,0.003 -0.0676,0.0202 -0.0541,0.0272 -0.0541,0.0272 -0.21991,0.0475 -0.0439,0.007 -0.28413,0.0406 -0.40253,0.0575 0.0947,-0.30786 0.12855,-0.39923 0.16231,-0.45671 0.0304,-0.0508 0.0339,-0.0609 0.0339,-0.0846 0,-0.0508 -0.0237,-0.0845 -0.0948,-0.13198 -0.11155,-0.0744 -0.25025,-0.12169 -0.35849,-0.12169 -0.0373,0 -0.0542,0.003 -0.0948,0.0236 0.16572,0.0643 0.23006,0.13197 0.23006,0.24364 0,0.10825 -0.0372,0.29771 -0.11497,0.56166 -0.33831,0.0541 -0.58195,0.0845 -0.68347,0.0845 -0.13528,0 -0.21992,-0.0508 -0.29098,-0.17588 -0.0134,0.0236 -0.0169,0.0372 -0.0169,0.0541 0,0.0475 0.0339,0.13197 0.0778,0.18946 0.0711,0.0981 0.16243,0.159 0.23349,0.159 0.0236,0 0.0372,-0.003 0.0845,-0.0236 0.0879,-0.0373 0.31801,-0.0982 0.5515,-0.13883 -0.26395,0.73081 -0.64287,1.28227 -1.14348,1.65103 l 0.027,0.044"
           style="fill:#000000;fill-opacity:1;fill-rule:nonzero;stroke:none;stroke-width:0.10213613"
           id="path980"
           inkscape:connector-curvature="0" />
        <path
           d="m 111.5222,136.47693 c 0.23336,-0.10149 0.37891,-0.18269 0.59198,-0.33156 0.32486,-0.22327 0.54477,-0.42965 0.81875,-0.76118 0.34503,0.24358 0.63601,0.54467 0.80516,0.82886 0.0676,0.11841 0.0676,0.11841 0.0812,0.13532 0.027,0.0372 0.0542,0.0541 0.0778,0.0541 0.0575,0 0.0914,-0.0677 0.0914,-0.17595 0,-0.13868 -0.0372,-0.23679 -0.12855,-0.33492 -0.13197,-0.14885 -0.39922,-0.32139 -0.87623,-0.57174 0.26382,-0.34509 0.26382,-0.34509 0.42625,-0.58867 0.12182,-0.18267 0.12182,-0.18267 0.19288,-0.23004 0.0305,-0.0203 0.0439,-0.0406 0.0439,-0.0643 0,-0.0643 -0.19276,-0.23682 -0.26382,-0.23682 -0.0237,0 -0.0406,0.007 -0.0778,0.0305 -0.0609,0.0372 -0.12182,0.0575 -0.31801,0.0947 -0.2571,0.0508 -0.59883,0.0947 -0.7105,0.0947 -0.14885,0 -0.21992,-0.0508 -0.31801,-0.22667 -0.0169,0.0305 -0.0237,0.0474 -0.0237,0.0676 0,0.0541 0.0237,0.1252 0.0711,0.203 0.0745,0.13193 0.14555,0.19285 0.21992,0.19285 0.0203,0 0.0406,-0.003 0.0575,-0.0102 0.10825,-0.044 0.12183,-0.0474 0.28426,-0.0914 0.37206,-0.10149 0.55137,-0.13871 0.7138,-0.14886 -0.0642,0.15901 -0.12182,0.27064 -0.23007,0.43642 -0.19961,0.31125 -0.44313,0.62927 -0.64616,0.8424 -0.25037,0.26389 -0.58526,0.53793 -0.90999,0.7409 l 0.027,0.0508"
           style="fill:#000000;fill-opacity:1;fill-rule:nonzero;stroke:none;stroke-width:0.10213613"
           id="path982"
           inkscape:connector-curvature="0" />
        <path
           d="m 111.49847,140.8427 c 0.2977,-0.11841 0.7105,-0.40935 1.06912,-0.75443 0.25709,-0.25036 0.38221,-0.39922 0.52776,-0.62589 -0.003,0.0643 -0.003,0.11504 -0.003,0.14548 0,0.0778 0.003,0.23005 0.0102,0.44995 0.003,0.12856 0.003,0.23343 0.003,0.31801 0,0.18607 -0.003,0.35185 -0.007,0.4195 -0.15215,-0.0372 -0.31115,-0.0812 -0.61901,-0.1759 l -0.017,0.044 c 0.3925,0.21652 0.3925,0.21652 0.47371,0.28081 0.0676,0.0541 0.0947,0.0913 0.1217,0.16238 0.0203,0.0474 0.0542,0.071 0.0948,0.071 0.0879,0 0.17588,-0.17592 0.17588,-0.35862 0,-0.0744 -0.007,-0.19959 -0.0203,-0.36537 -0.0338,-0.41612 -0.0541,-0.79841 -0.0541,-1.09274 0,-0.0203 0.003,-0.0609 0.003,-0.10489 0.25037,-0.0237 0.35531,-0.0304 0.46356,-0.0304 0.0406,0 0.10481,0.003 0.18603,0.007 0.0609,0.003 0.0981,0.003 0.1184,0.003 0.0846,0 0.11509,-0.0169 0.11509,-0.0609 0,-0.0643 -0.19631,-0.18946 -0.2977,-0.18946 -0.0237,0 -0.0339,0.003 -0.0711,0.0169 -0.14213,0.0609 -0.23007,0.0812 -0.5109,0.1218 0.003,-0.1624 0.0237,-0.2808 0.0676,-0.3823 0.017,-0.0338 0.0203,-0.0507 0.0203,-0.0744 0,-0.0575 -0.0236,-0.0846 -0.0981,-0.12181 -0.10152,-0.0541 -0.27067,-0.0947 -0.37549,-0.0947 -0.0711,0 -0.0846,0.003 -0.11167,0.0372 0.1184,0.0237 0.21991,0.0846 0.25709,0.15563 0.0305,0.0575 0.0473,0.20976 0.0508,0.50747 -0.35861,0.0609 -0.92699,0.13194 -1.06569,0.13194 -0.1387,0 -0.24022,-0.0541 -0.34846,-0.17931 -0.0101,0.0169 -0.0134,0.0271 -0.0134,0.0406 0,0.0372 0.0372,0.11163 0.0981,0.18946 0.0879,0.11502 0.18261,0.18267 0.2571,0.18267 0.0305,0 0.0541,-0.007 0.10824,-0.0271 0.18946,-0.0778 0.42968,-0.13192 0.83563,-0.19621 -0.24024,0.37216 -0.49061,0.66987 -0.82892,0.99126 -0.22664,0.21653 -0.42625,0.37891 -0.64274,0.51423 l 0.027,0.044"
           style="fill:#000000;fill-opacity:1;fill-rule:nonzero;stroke:none;stroke-width:0.10213613"
           id="path984"
           inkscape:connector-curvature="0" />
        <path
           d="m 112.1176,141.968 c 0.16243,0.25372 0.26382,0.31801 0.51762,0.31801 0.18274,0 0.46013,-0.0271 0.86266,-0.088 0.0982,-0.0135 0.12855,-0.0338 0.12855,-0.0744 0,-0.0677 -0.16916,-0.18607 -0.26382,-0.18607 -0.027,0 -0.044,0.007 -0.0711,0.0203 -0.12855,0.0744 -0.53792,0.16239 -0.76456,0.16239 -0.14556,0 -0.24695,-0.0508 -0.36204,-0.18269 z m 0.12183,2.62869 c 0.55822,-0.24698 1.10287,-0.79504 1.46821,-1.48519 0.0575,-0.11165 0.0778,-0.1421 0.12525,-0.17593 0.0337,-0.0304 0.0508,-0.0575 0.0508,-0.0846 0,-0.044 -0.0406,-0.0981 -0.1354,-0.18608 -0.0778,-0.0676 -0.12855,-0.10148 -0.15901,-0.10148 -0.0135,0 -0.0305,0.007 -0.0541,0.0203 -0.0678,0.0406 -0.0948,0.0474 -0.27752,0.0778 -0.4397,0.0744 -1.01151,0.14547 -1.14348,0.14547 -0.12513,0 -0.21649,-0.0609 -0.29428,-0.19623 -0.0169,0.0237 -0.0203,0.0338 -0.0203,0.0575 0,0.14885 0.19288,0.39243 0.31128,0.39243 0.0338,0 0.0473,-0.003 0.10139,-0.0304 0.0711,-0.0338 0.13883,-0.0541 0.35189,-0.1049 0.35189,-0.0846 0.65632,-0.13193 0.98448,-0.1556 -0.0914,0.31462 -0.29428,0.68339 -0.56838,1.03184 -0.22322,0.28756 -0.43641,0.49732 -0.77129,0.75443 l 0.0305,0.0406"
           style="fill:#000000;fill-opacity:1;fill-rule:nonzero;stroke:none;stroke-width:0.10213613"
           id="path986"
           inkscape:connector-curvature="0" />
      </g>
      <g
         transform="translate(-4)"
         id="g1131"
         style="stroke-width:0.28951976">
        <path
           d="m 105.5241,122.76347 c 0.29772,-0.1184 0.71049,-0.40938 1.06911,-0.75441 0.2571,-0.25037 0.38222,-0.39923 0.52777,-0.62587 -0.003,0.0642 -0.003,0.11497 -0.003,0.14543 0,0.0778 0.003,0.23007 0.0101,0.44998 0.003,0.12855 0.003,0.23337 0.003,0.31801 0,0.18603 -0.003,0.35189 -0.007,0.41952 -0.15215,-0.0372 -0.31116,-0.0812 -0.61901,-0.17588 l -0.017,0.0439 c 0.3925,0.21649 0.3925,0.21649 0.47371,0.28083 0.0676,0.0542 0.0947,0.0914 0.1217,0.16243 0.0203,0.0473 0.0542,0.0709 0.0948,0.0709 0.0879,0 0.17588,-0.17588 0.17588,-0.35849 0,-0.0745 -0.007,-0.19961 -0.0203,-0.36546 -0.0337,-0.4161 -0.0541,-0.79845 -0.0541,-1.09273 0,-0.0203 0.003,-0.0609 0.003,-0.10481 0.25037,-0.0237 0.35532,-0.0305 0.46356,-0.0305 0.0406,0 0.10482,0.003 0.18603,0.007 0.0609,0.003 0.0981,0.003 0.1184,0.003 0.0846,0 0.1151,-0.017 0.1151,-0.0609 0,-0.0643 -0.19632,-0.18946 -0.29771,-0.18946 -0.0237,0 -0.0339,0.003 -0.0711,0.0169 -0.14213,0.0609 -0.23007,0.0812 -0.51089,0.12182 0.003,-0.16243 0.0237,-0.28083 0.0676,-0.38235 0.017,-0.0337 0.0203,-0.0508 0.0203,-0.0744 0,-0.0576 -0.0236,-0.0846 -0.0981,-0.12182 -0.10151,-0.0542 -0.27067,-0.0947 -0.37549,-0.0947 -0.0711,0 -0.0846,0.003 -0.11167,0.0372 0.1184,0.0236 0.21991,0.0845 0.2571,0.15558 0.0305,0.0575 0.0473,0.20977 0.0508,0.50747 -0.35862,0.0609 -0.927,0.13197 -1.0657,0.13197 -0.13867,0 -0.24016,-0.0542 -0.34842,-0.1793 -0.0101,0.0169 -0.0135,0.027 -0.0135,0.0406 0,0.0372 0.0372,0.11167 0.0981,0.18946 0.088,0.11497 0.18265,0.18261 0.25714,0.18261 0.0305,0 0.0541,-0.007 0.10824,-0.027 0.18946,-0.0778 0.42968,-0.13198 0.83563,-0.19618 -0.24022,0.37206 -0.49059,0.66989 -0.8289,0.9912 -0.22663,0.21649 -0.42624,0.37892 -0.64275,0.51432 l 0.0271,0.0439"
           style="fill:#000000;fill-opacity:1;fill-rule:nonzero;stroke:none;stroke-width:0.10213613"
           id="path988"
           inkscape:connector-curvature="0" />
        <path
           d="m 106.15338,125.93225 c 0.26052,-0.13883 0.40265,-0.23007 0.59883,-0.3925 0.2774,-0.22664 0.46344,-0.42968 0.6732,-0.72396 -0.003,0.0473 -0.003,0.0914 -0.003,0.11155 0,0.0678 0,0.16928 0.003,0.31471 0.003,0.11496 0.003,0.20633 0.003,0.2774 0,0.11496 0,0.17258 -0.007,0.33831 -0.15571,-0.0237 -0.35189,-0.0711 -0.49402,-0.11497 l -0.0136,0.0405 c 0.23007,0.1354 0.34847,0.20304 0.35532,0.20976 0.0642,0.0406 0.0879,0.0678 0.11167,0.12525 0.0236,0.0508 0.0508,0.0744 0.0811,0.0744 0.0406,0 0.0779,-0.027 0.10494,-0.0778 0.044,-0.0812 0.0676,-0.1826 0.0676,-0.2774 0,-0.0203 -0.003,-0.0914 -0.007,-0.12854 -0.0237,-0.25038 -0.0473,-0.72396 -0.0473,-0.97433 0,-0.0169 0,-0.0508 0,-0.0879 0.11497,-0.017 0.24009,-0.0237 0.37879,-0.0237 0.044,0 0.0812,0 0.11167,0.003 0.10152,0.003 0.13197,0.007 0.14213,0.007 0.0473,0 0.0745,-0.0169 0.0745,-0.0508 0,-0.027 -0.0272,-0.0676 -0.0678,-0.0947 -0.0541,-0.0406 -0.1387,-0.0745 -0.17245,-0.0745 -0.0237,0 -0.0406,0.007 -0.10152,0.0305 -0.10494,0.0406 -0.17931,0.0575 -0.35519,0.0812 0.0236,-0.23679 0.0236,-0.23679 0.0473,-0.2977 0.0203,-0.0542 0.0203,-0.0542 0.0203,-0.0745 0,-0.0575 -0.0339,-0.0981 -0.10152,-0.12512 -0.0981,-0.0372 -0.20634,-0.0609 -0.29098,-0.0609 -0.0642,0 -0.0812,0.003 -0.11167,0.0339 0.1184,0.0338 0.18273,0.0778 0.21992,0.14542 0.0271,0.0542 0.0339,0.1184 0.0373,0.41281 -0.1354,0.0203 -0.1793,0.027 -0.33501,0.0507 -0.31115,0.0506 -0.40595,0.0608 -0.50061,0.0608 -0.11852,0 -0.20977,-0.0473 -0.28768,-0.14543 -0.0102,0.0237 -0.0135,0.0339 -0.0135,0.0473 0,0.0508 0.0337,0.11839 0.0914,0.18603 0.0642,0.0745 0.12513,0.11167 0.18604,0.11167 0.0203,0 0.0439,-0.003 0.0744,-0.0169 0.11167,-0.0406 0.23692,-0.0778 0.35189,-0.10152 0.25037,-0.0508 0.25037,-0.0508 0.30786,-0.0642 -0.21319,0.30101 -0.42626,0.55823 -0.6293,0.75441 -0.159,0.15216 -0.37206,0.32816 -0.53449,0.43983 l 0.0305,0.0508"
           style="fill:#000000;fill-opacity:1;fill-rule:nonzero;stroke:none;stroke-width:0.10213613"
           id="path990"
           inkscape:connector-curvature="0" />
        <path
           d="m 105.54104,129.03326 c 0.17591,-0.0643 0.41946,-0.18273 0.60891,-0.2944 0.16916,-0.10139 0.4128,-0.27398 0.6496,-0.46343 0.0508,0.0541 0.0643,0.0711 0.0745,0.10481 0.0135,0.0542 0.0202,0.15571 0.0202,0.32144 0,0.32816 -0.0303,0.74768 -0.0608,0.8322 -0.0203,0.0643 -0.0203,0.0643 -0.0203,0.0881 0,0.0981 0.15215,0.28413 0.23007,0.28413 0.0541,0 0.0778,-0.0508 0.0778,-0.16916 0,-0.0203 -0.003,-0.11839 -0.003,-0.19288 -0.007,-0.19276 -0.0136,-0.40925 -0.0169,-0.64617 -0.003,-0.30443 -0.0101,-0.46343 -0.0237,-0.49731 -0.0169,-0.0406 -0.0744,-0.0914 -0.20634,-0.18946 0.14543,-0.1217 0.16573,-0.1387 0.40253,-0.36534 0.24021,-0.23007 0.24021,-0.23007 0.27409,-0.2571 0.13198,-0.11167 0.13528,-0.11839 0.13528,-0.14885 0,-0.0643 -0.0608,-0.14213 -0.17588,-0.21991 -0.10825,-0.0711 -0.19289,-0.10152 -0.29098,-0.10152 -0.0236,0 -0.0305,0 -0.0676,0.0136 0.13527,0.0744 0.18946,0.12854 0.18946,0.19275 0,0.0982 -0.21649,0.37219 -0.5515,0.70036 -0.3958,0.39249 -0.84908,0.7341 -1.27199,0.96074 l 0.0271,0.0475"
           style="fill:#000000;fill-opacity:1;fill-rule:nonzero;stroke:none;stroke-width:0.10213613"
           id="path992"
           inkscape:connector-curvature="0" />
        <path
           d="m 106.86388,132.42859 c 0.007,-0.28416 0.11497,-0.46689 0.36535,-0.6292 0.23336,-0.15227 0.23336,-0.15227 0.30442,-0.22676 0.10152,-0.10482 0.14886,-0.22664 0.14886,-0.38565 0,-0.36534 -0.28756,-0.58183 -0.77129,-0.58183 -0.21649,0 -0.3958,0.0405 -0.54808,0.12855 -0.1793,0.10482 -0.2944,0.29085 -0.2944,0.47701 0,0.0981 0.0609,0.14213 0.19288,0.14213 0.1151,0 0.15228,-0.0339 0.15228,-0.14555 0.003,-0.1387 0.0169,-0.21649 0.0541,-0.29771 0.0678,-0.14212 0.20976,-0.21649 0.40937,-0.21649 0.14886,0 0.26053,0.0406 0.34517,0.12183 0.0879,0.0879 0.13527,0.21306 0.13527,0.35176 0,0.11167 -0.027,0.21649 -0.0846,0.31471 -0.0405,0.0709 -0.0439,0.0744 -0.22664,0.25367 -0.16916,0.16243 -0.26382,0.32143 -0.29085,0.47701 -0.0136,0.0609 -0.0136,0.10489 -0.0136,0.21652 z m -0.0542,0.26729 c -0.12855,0 -0.22664,0.0981 -0.22664,0.22667 0,0.12854 0.0981,0.22668 0.22664,0.22668 0.12855,0 0.22664,-0.0981 0.22664,-0.22668 0,-0.12856 -0.0981,-0.22667 -0.22664,-0.22667"
           style="fill:#000000;fill-opacity:1;fill-rule:nonzero;stroke:none;stroke-width:0.10213613"
           id="path994"
           inkscape:connector-curvature="0" />
      </g>
      <g
         transform="translate(-2)"
         id="g1125"
         style="stroke-width:0.28951976">
        <path
           d="m 99.599217,123.04087 c 0.206375,-0.10482 0.426293,-0.26725 0.605583,-0.44999 0.33491,-0.33488 0.53452,-0.67991 0.75105,-1.28548 0.18945,-0.0406 0.5413,-0.0914 0.62925,-0.0914 0.0643,0 0.0914,0.0305 0.0914,0.11167 0,0.0709 -0.0169,0.20964 -0.044,0.36877 -0.0643,0.37549 -0.14209,0.66304 -0.23004,0.8525 -0.0372,0.0845 -0.071,0.11839 -0.12517,0.11839 -0.0711,0 -0.33156,-0.0711 -0.61574,-0.16572 l -0.0203,0.0473 c 0.18946,0.10482 0.30448,0.16915 0.34168,0.19288 0.0812,0.0506 0.10827,0.0811 0.12858,0.14886 0.0135,0.0473 0.044,0.0778 0.0812,0.0778 0.0913,0 0.20297,-0.0473 0.28417,-0.12182 0.14548,-0.13197 0.22331,-0.35519 0.35184,-1.00135 0.0846,-0.4128 0.0846,-0.4128 0.11842,-0.47029 0.0237,-0.044 0.0305,-0.0575 0.0305,-0.0812 0,-0.0406 -0.0372,-0.0879 -0.11502,-0.15558 -0.088,-0.0779 -0.12858,-0.0981 -0.17593,-0.0981 -0.0271,0 -0.0406,0.003 -0.0677,0.0202 -0.0541,0.0272 -0.0541,0.0272 -0.2199,0.0475 -0.044,0.007 -0.28417,0.0406 -0.40258,0.0575 0.0947,-0.30786 0.12853,-0.39922 0.16238,-0.45671 0.0304,-0.0508 0.0338,-0.0609 0.0338,-0.0846 0,-0.0508 -0.0237,-0.0845 -0.0947,-0.13197 -0.11163,-0.0744 -0.25035,-0.1217 -0.35861,-0.1217 -0.0372,0 -0.0541,0.003 -0.0947,0.0236 0.16576,0.0643 0.23004,0.13198 0.23004,0.24365 0,0.10824 -0.0372,0.2977 -0.11502,0.56165 -0.3383,0.0541 -0.5819,0.0845 -0.68339,0.0845 -0.135326,0 -0.219915,-0.0508 -0.290954,-0.17588 -0.01353,0.0236 -0.01692,0.0372 -0.01692,0.0541 0,0.0475 0.03383,0.13198 0.0778,0.18946 0.07106,0.0981 0.162394,0.15901 0.233454,0.15901 0.0237,0 0.0372,-0.003 0.0846,-0.0236 0.088,-0.0373 0.31802,-0.0982 0.55145,-0.13882 -0.26388,0.7308 -0.64279,1.2823 -1.143474,1.65107 l 0.02705,0.0439"
           style="fill:#000000;fill-opacity:1;fill-rule:nonzero;stroke:none;stroke-width:0.10213613"
           id="path996"
           inkscape:connector-curvature="0" />
        <path
           d="m 99.572162,126.33147 c 0.23343,-0.10152 0.378905,-0.18273 0.592028,-0.33158 0.32479,-0.22335 0.5447,-0.42968 0.81871,-0.76127 0.34509,0.24365 0.63604,0.54465 0.8052,0.8289 0.0677,0.1184 0.0677,0.1184 0.0812,0.13527 0.0271,0.0373 0.0541,0.0542 0.0778,0.0542 0.0575,0 0.0913,-0.0676 0.0913,-0.17588 0,-0.1387 -0.0372,-0.23692 -0.12857,-0.33501 -0.13193,-0.14885 -0.39919,-0.32131 -0.87622,-0.57168 0.26387,-0.34516 0.26387,-0.34516 0.42627,-0.58868 0.1218,-0.18274 0.1218,-0.18274 0.19285,-0.23007 0.0304,-0.0203 0.044,-0.0406 0.044,-0.0643 0,-0.0642 -0.19285,-0.23679 -0.2639,-0.23679 -0.0237,0 -0.0406,0.007 -0.0778,0.0305 -0.0609,0.0372 -0.1218,0.0575 -0.31802,0.0948 -0.25711,0.0508 -0.5988,0.0947 -0.71046,0.0947 -0.14885,0 -0.21989,-0.0508 -0.31801,-0.22664 -0.01692,0.0305 -0.02367,0.0473 -0.02367,0.0676 0,0.0542 0.02367,0.12525 0.07104,0.20304 0.0744,0.13185 0.14547,0.19276 0.21991,0.19276 0.0203,0 0.0406,-0.003 0.0575,-0.0101 0.10825,-0.0439 0.1218,-0.0473 0.28419,-0.0912 0.37215,-0.10152 0.55145,-0.13883 0.71384,-0.14898 -0.0643,0.15913 -0.1218,0.27067 -0.23005,0.43653 -0.19962,0.31116 -0.4432,0.62916 -0.64618,0.84235 -0.25035,0.26382 -0.585286,0.53792 -0.910056,0.74096 l 0.02707,0.0508"
           style="fill:#000000;fill-opacity:1;fill-rule:nonzero;stroke:none;stroke-width:0.10213613"
           id="path998"
           inkscape:connector-curvature="0" />
        <path
           d="m 99.795439,128.69102 c 0.138712,0.22321 0.297721,0.31115 0.564981,0.31115 0.0338,0 0.0643,-0.003 0.12856,-0.007 -0.0203,0.18946 -0.0271,0.24364 -0.0305,0.30113 -0.0169,0.19961 -0.0169,0.19961 -0.0203,0.25037 -0.19961,0.0879 -0.33155,0.16915 -0.456743,0.27067 -0.213127,0.17931 -0.317993,0.35519 -0.317993,0.53107 0,0.0745 0.01353,0.12182 0.06429,0.20304 0.03382,0.0575 0.04058,0.0711 0.06426,0.12855 0.04399,0.11839 0.08119,0.15557 0.162391,0.15557 0.135325,0 0.368755,-0.12512 0.585265,-0.32143 0.0812,0.20646 0.13873,0.29783 0.19624,0.29783 0.0473,0 0.0778,-0.0643 0.0778,-0.1557 0,-0.0609 -0.0135,-0.10482 -0.0372,-0.14213 -0.0406,-0.0575 -0.0406,-0.0575 -0.0846,-0.142 0.14209,-0.12855 0.24358,-0.25379 0.36197,-0.43983 0.10826,-0.17588 0.1624,-0.29098 0.21315,-0.46356 0.18268,0.0237 0.29772,0.0576 0.39244,0.11852 0.15902,0.10483 0.24697,0.27398 0.24697,0.48031 0,0.47029 -0.38229,0.82218 -1.06908,0.99133 l 0.0101,0.0541 c 0.79504,-0.0676 1.31943,-0.45328 1.31943,-0.96759 0,-0.22665 -0.0778,-0.40253 -0.23006,-0.5345 -0.16916,-0.1387 -0.35522,-0.20634 -0.65633,-0.24022 -0.0304,-0.11154 -0.12856,-0.20291 -0.21651,-0.20291 -0.007,0 -0.0203,0.003 -0.0372,0.007 0.0812,0.0745 0.10825,0.12183 0.10825,0.18604 0,0.003 0,0.0101 0,0.0203 -0.18267,0.0102 -0.34844,0.044 -0.54129,0.10825 0.007,-0.15216 0.0338,-0.35849 0.0643,-0.51077 0.25036,-0.0406 0.51086,-0.10152 0.68001,-0.159 0.22328,-0.0778 0.29096,-0.1184 0.29096,-0.17931 0,-0.0339 -0.0203,-0.0609 -0.0541,-0.0745 -0.0372,-0.0134 -0.11165,-0.027 -0.15903,-0.027 -0.0338,0 -0.0474,0.003 -0.0846,0.0372 -0.11503,0.0948 -0.31462,0.17258 -0.63604,0.24022 0.0406,-0.18273 0.0643,-0.24695 0.10489,-0.30443 0.044,-0.0576 0.044,-0.0576 0.044,-0.0881 0,-0.0541 -0.0406,-0.0947 -0.12518,-0.13857 -0.0914,-0.044 -0.21991,-0.0779 -0.29435,-0.0779 -0.044,0 -0.0609,0.007 -0.0981,0.0373 0.16579,0.0508 0.21992,0.10482 0.21992,0.22664 0,0.0575 -0.0169,0.22322 -0.0372,0.37549 -0.0913,0.0136 -0.13195,0.0169 -0.19622,0.0169 -0.22667,0 -0.341685,-0.0473 -0.473649,-0.19961 z m 0.639401,0.97762 c 0,0.0542 0,0.0982 0,0.12182 0,0.2132 0.0102,0.32487 0.0508,0.54465 -0.18607,0.15914 -0.39582,0.2741 -0.504093,0.2741 -0.0778,0 -0.128534,-0.0812 -0.128534,-0.20633 0,-0.10495 0.03382,-0.20977 0.104867,-0.31801 0.10487,-0.16586 0.22328,-0.26725 0.47701,-0.41623 z m 0.15224,-0.0676 c 0.20976,-0.0812 0.33833,-0.11167 0.53115,-0.12855 -0.0981,0.2774 -0.21989,0.45671 -0.48378,0.73081 -0.0305,-0.14213 -0.0474,-0.31129 -0.0474,-0.49402 0,-0.0236 0,-0.0608 0,-0.10824"
           style="fill:#000000;fill-opacity:1;fill-rule:nonzero;stroke:none;stroke-width:0.10213613"
           id="path1000"
           inkscape:connector-curvature="0" />
        <path
           d="m 100.88819,133.5986 c 0.007,-0.28417 0.11502,-0.46686 0.36537,-0.62925 0.23343,-0.15224 0.23343,-0.15224 0.30447,-0.22668 0.10151,-0.10487 0.14888,-0.22665 0.14888,-0.38567 0,-0.36535 -0.28756,-0.58184 -0.77135,-0.58184 -0.21652,0 -0.39585,0.0405 -0.54808,0.12855 -0.17931,0.10481 -0.29432,0.29085 -0.29432,0.47698 0,0.0981 0.0609,0.14209 0.19284,0.14209 0.11502,0 0.15224,-0.0338 0.15224,-0.14548 0.003,-0.13871 0.0169,-0.2165 0.0541,-0.29771 0.0676,-0.14213 0.20973,-0.21649 0.40934,-0.21649 0.14887,0 0.2605,0.0406 0.34509,0.12182 0.088,0.0879 0.13533,0.21306 0.13533,0.3518 0,0.11163 -0.0271,0.2165 -0.0846,0.31462 -0.0406,0.071 -0.044,0.0744 -0.22666,0.25372 -0.16916,0.16239 -0.26387,0.32141 -0.29094,0.47704 -0.0135,0.0609 -0.0135,0.10487 -0.0135,0.2165 z m -0.0541,0.26728 c -0.12858,0 -0.22668,0.0981 -0.22668,0.22667 0,0.12855 0.0981,0.22668 0.22668,0.22668 0.12856,0 0.22666,-0.0981 0.22666,-0.22668 0,-0.12856 -0.0981,-0.22667 -0.22666,-0.22667"
           style="fill:#000000;fill-opacity:1;fill-rule:nonzero;stroke:none;stroke-width:0.10213613"
           id="path1002"
           inkscape:connector-curvature="0" />
      </g>
      <g
         id="g1119"
         style="stroke-width:0.28951976">
        <path
           d="m 93.624844,123.04087 c 0.206368,-0.10482 0.426279,-0.26725 0.605583,-0.44999 0.334908,-0.33488 0.534519,-0.67991 0.751046,-1.28548 0.189446,-0.0406 0.541297,-0.0914 0.62925,-0.0914 0.06429,0 0.09136,0.0305 0.09136,0.11167 0,0.0709 -0.01692,0.20964 -0.04398,0.36877 -0.06429,0.37549 -0.142089,0.66304 -0.230042,0.8525 -0.03722,0.0845 -0.07105,0.11839 -0.125172,0.11839 -0.07106,0 -0.33156,-0.0711 -0.615736,-0.16572 l -0.0203,0.0473 c 0.189459,0.10482 0.30448,0.16915 0.341686,0.19288 0.0812,0.0506 0.10827,0.0811 0.128574,0.14886 0.01351,0.0473 0.04397,0.0778 0.08119,0.0778 0.09136,0 0.202974,-0.0473 0.284177,-0.12182 0.145476,-0.13197 0.223303,-0.35519 0.351838,-1.00135 0.08459,-0.4128 0.08459,-0.4128 0.118422,-0.47029 0.02369,-0.044 0.03045,-0.0575 0.03045,-0.0812 0,-0.0406 -0.03722,-0.0879 -0.11502,-0.15558 -0.08798,-0.0779 -0.128574,-0.0981 -0.175932,-0.0981 -0.02707,0 -0.0406,0.003 -0.06766,0.0202 -0.05412,0.0272 -0.05412,0.0272 -0.219903,0.0475 -0.04398,0.007 -0.284176,0.0406 -0.402585,0.0575 0.09472,-0.30786 0.128536,-0.39922 0.162379,-0.45671 0.03044,-0.0508 0.03383,-0.0609 0.03383,-0.0846 0,-0.0508 -0.02368,-0.0845 -0.09474,-0.13197 -0.11162,-0.0744 -0.250345,-0.1217 -0.358602,-0.1217 -0.03722,0 -0.05413,0.003 -0.09472,0.0236 0.165767,0.0643 0.230041,0.13198 0.230041,0.24365 0,0.10824 -0.03722,0.2977 -0.11502,0.56165 -0.338303,0.0541 -0.581888,0.0845 -0.683386,0.0845 -0.135326,0 -0.219911,-0.0508 -0.290956,-0.17588 -0.01352,0.0236 -0.01691,0.0372 -0.01691,0.0541 0,0.0475 0.03382,0.13198 0.0778,0.18946 0.07106,0.0981 0.162389,0.15901 0.233452,0.15901 0.02367,0 0.0372,-0.003 0.08457,-0.0236 0.08796,-0.0373 0.318019,-0.0982 0.551448,-0.13882 -0.263884,0.7308 -0.642794,1.2823 -1.143488,1.65107 l 0.02706,0.0439"
           style="fill:#000000;fill-opacity:1;fill-rule:nonzero;stroke:none;stroke-width:0.10213613"
           id="path1004"
           inkscape:connector-curvature="0" />
        <path
           d="m 93.597779,126.33147 c 0.233433,-0.10152 0.378911,-0.18273 0.59204,-0.33158 0.324782,-0.22335 0.544697,-0.42968 0.818708,-0.76127 0.345088,0.24365 0.636041,0.54465 0.805196,0.8289 0.06765,0.1184 0.06765,0.1184 0.08119,0.13527 0.02707,0.0373 0.05414,0.0542 0.07782,0.0542 0.05751,0 0.09134,-0.0676 0.09134,-0.17588 0,-0.1387 -0.03722,-0.23692 -0.128561,-0.33501 -0.131936,-0.14885 -0.399197,-0.32131 -0.87622,-0.57168 0.263872,-0.34516 0.263872,-0.34516 0.426264,-0.58868 0.121797,-0.18274 0.121797,-0.18274 0.192848,-0.23007 0.03046,-0.0203 0.04398,-0.0406 0.04398,-0.0643 0,-0.0642 -0.192847,-0.23679 -0.263897,-0.23679 -0.02367,0 -0.04058,0.007 -0.0778,0.0305 -0.06089,0.0372 -0.121797,0.0575 -0.31802,0.0948 -0.257109,0.0508 -0.598802,0.0947 -0.710452,0.0947 -0.148848,0 -0.219891,-0.0508 -0.31802,-0.22664 -0.01691,0.0305 -0.02367,0.0473 -0.02367,0.0676 0,0.0542 0.02367,0.12525 0.07104,0.20304 0.07443,0.13185 0.145476,0.19276 0.21991,0.19276 0.02028,0 0.04059,-0.003 0.0575,-0.0101 0.10826,-0.0439 0.121802,-0.0473 0.28419,-0.0912 0.372155,-0.10152 0.55145,-0.13883 0.713842,-0.14898 -0.06427,0.15913 -0.121797,0.27067 -0.230054,0.43653 -0.199611,0.31116 -0.443193,0.62916 -0.646176,0.84235 -0.250346,0.26382 -0.585278,0.53792 -0.910059,0.74096 l 0.02707,0.0508"
           style="fill:#000000;fill-opacity:1;fill-rule:nonzero;stroke:none;stroke-width:0.10213613"
           id="path1006"
           inkscape:connector-curvature="0" />
        <path
           d="m 93.574084,130.69715 c 0.297717,-0.11839 0.710473,-0.40937 1.069077,-0.75441 0.257109,-0.25036 0.382282,-0.39922 0.527758,-0.62586 -0.0034,0.0642 -0.0034,0.11497 -0.0034,0.14543 0,0.0778 0.0034,0.23007 0.01013,0.44998 0.0034,0.12854 0.0034,0.23337 0.0034,0.318 0,0.18604 -0.0034,0.3519 -0.0068,0.41953 -0.152228,-0.0372 -0.311257,-0.0812 -0.6191,-0.17588 l -0.01693,0.0439 c 0.392446,0.21649 0.392446,0.21649 0.473648,0.28082 0.06765,0.0542 0.09472,0.0914 0.121772,0.16244 0.0203,0.0473 0.05414,0.0709 0.09474,0.0709 0.08795,0 0.175919,-0.17588 0.175919,-0.35849 0,-0.0745 -0.0068,-0.19961 -0.02029,-0.36546 -0.03384,-0.41611 -0.05412,-0.79845 -0.05412,-1.09273 0,-0.0203 0.0034,-0.0609 0.0034,-0.10481 0.250346,-0.0237 0.35524,-0.0305 0.463497,-0.0305 0.04059,0 0.104868,0.003 0.186071,0.007 0.06089,0.003 0.09811,0.003 0.118409,0.003 0.08459,0 0.11502,-0.017 0.11502,-0.0609 0,-0.0643 -0.196223,-0.18946 -0.297716,-0.18946 -0.02368,0 -0.03383,0.003 -0.07104,0.0169 -0.142088,0.0609 -0.230054,0.0812 -0.510855,0.12183 0.0034,-0.16243 0.02368,-0.28083 0.06766,-0.38235 0.0169,-0.0337 0.0203,-0.0508 0.0203,-0.0744 0,-0.0576 -0.02368,-0.0846 -0.09812,-0.12182 -0.101493,-0.0542 -0.270648,-0.0947 -0.375517,-0.0947 -0.07104,0 -0.08458,0.003 -0.111645,0.0372 0.118408,0.0236 0.219902,0.0845 0.257108,0.15558 0.03046,0.0575 0.04736,0.20976 0.05076,0.50746 -0.358615,0.0609 -0.926978,0.13198 -1.065693,0.13198 -0.138696,0 -0.240196,-0.0542 -0.348455,-0.17931 -0.01015,0.0169 -0.01354,0.027 -0.01354,0.0406 0,0.0372 0.03722,0.11167 0.09811,0.18946 0.08798,0.11497 0.182694,0.1826 0.257128,0.1826 0.03045,0 0.05413,-0.007 0.108261,-0.027 0.189455,-0.0778 0.429647,-0.13198 0.83562,-0.19619 -0.240192,0.37207 -0.490537,0.6699 -0.828859,0.99121 -0.226672,0.21649 -0.426279,0.37892 -0.6428,0.51432 l 0.02706,0.0439"
           style="fill:#000000;fill-opacity:1;fill-rule:nonzero;stroke:none;stroke-width:0.10213613"
           id="path1008"
           inkscape:connector-curvature="0" />
        <path
           d="m 94.19321,131.82249 c 0.162391,0.25367 0.263869,0.31801 0.517601,0.31801 0.182695,0 0.460108,-0.027 0.862719,-0.0879 0.0981,-0.0136 0.128548,-0.0339 0.128548,-0.0745 0,-0.0676 -0.169156,-0.18604 -0.263873,-0.18604 -0.02707,0 -0.04399,0.007 -0.07106,0.0203 -0.128548,0.0744 -0.53791,0.16243 -0.764588,0.16243 -0.145475,0 -0.246953,-0.0508 -0.361995,-0.18274 z m 0.121783,2.62867 c 0.55821,-0.24698 1.102908,-0.79504 1.468274,-1.48519 0.05752,-0.11164 0.07783,-0.1421 0.125173,-0.17593 0.03384,-0.0304 0.05076,-0.0575 0.05076,-0.0846 0,-0.044 -0.04061,-0.0981 -0.135324,-0.18608 -0.07783,-0.0676 -0.128561,-0.10148 -0.159016,-0.10148 -0.01353,0 -0.03044,0.007 -0.05414,0.0203 -0.06765,0.0406 -0.09472,0.0474 -0.277412,0.0778 -0.439805,0.0744 -1.011557,0.14546 -1.143492,0.14546 -0.125173,0 -0.21652,-0.0609 -0.294324,-0.19623 -0.01691,0.0237 -0.0203,0.0338 -0.0203,0.0575 0,0.14885 0.192845,0.39243 0.311238,0.39243 0.03385,0 0.04737,-0.003 0.1015,-0.0304 0.07104,-0.0338 0.138715,-0.0541 0.351844,-0.10489 0.351851,-0.0846 0.656319,-0.13194 0.984491,-0.1556 -0.09134,0.31461 -0.294316,0.68338 -0.568365,1.03183 -0.223278,0.28757 -0.43643,0.49733 -0.771342,0.75444 l 0.03044,0.0406"
           style="fill:#000000;fill-opacity:1;fill-rule:nonzero;stroke:none;stroke-width:0.10213613"
           id="path1010"
           inkscape:connector-curvature="0" />
        <path
           d="m 93.574084,137.46085 c 0.297717,-0.11841 0.710473,-0.40935 1.069077,-0.75442 0.257109,-0.25036 0.382282,-0.39922 0.527758,-0.62589 -0.0034,0.0643 -0.0034,0.11503 -0.0034,0.14548 0,0.0778 0.0034,0.23005 0.01013,0.44995 0.0034,0.12856 0.0034,0.23343 0.0034,0.31801 0,0.18607 -0.0034,0.35185 -0.0068,0.4195 -0.152228,-0.0372 -0.311257,-0.0812 -0.6191,-0.1759 l -0.01693,0.044 c 0.392446,0.21652 0.392446,0.21652 0.473648,0.28081 0.06765,0.0541 0.09472,0.0913 0.121772,0.16238 0.0203,0.0474 0.05414,0.0711 0.09474,0.0711 0.08795,0 0.175919,-0.17592 0.175919,-0.35862 0,-0.0744 -0.0068,-0.19959 -0.02029,-0.36538 -0.03384,-0.41611 -0.05412,-0.7984 -0.05412,-1.09273 0,-0.0203 0.0034,-0.0609 0.0034,-0.10489 0.250346,-0.0237 0.35524,-0.0304 0.463497,-0.0304 0.04059,0 0.104868,0.003 0.186071,0.007 0.06089,0.003 0.09811,0.003 0.118409,0.003 0.08459,0 0.11502,-0.0169 0.11502,-0.0609 0,-0.0643 -0.196223,-0.18946 -0.297716,-0.18946 -0.02368,0 -0.03383,0.003 -0.07104,0.0169 -0.142088,0.0609 -0.230054,0.0812 -0.510855,0.1218 0.0034,-0.16239 0.02368,-0.2808 0.06766,-0.3823 0.0169,-0.0338 0.0203,-0.0507 0.0203,-0.0744 0,-0.0575 -0.02368,-0.0846 -0.09812,-0.12181 -0.101493,-0.0541 -0.270648,-0.0947 -0.375517,-0.0947 -0.07104,0 -0.08458,0.003 -0.111645,0.0372 0.118408,0.0237 0.219902,0.0846 0.257108,0.15563 0.03046,0.0575 0.04736,0.20976 0.05076,0.50748 -0.358615,0.0609 -0.926978,0.13193 -1.065693,0.13193 -0.138696,0 -0.240196,-0.0541 -0.348455,-0.1793 -0.01015,0.0169 -0.01354,0.0271 -0.01354,0.0406 0,0.0372 0.03722,0.11164 0.09811,0.18946 0.08798,0.11502 0.182694,0.18267 0.257128,0.18267 0.03045,0 0.05413,-0.007 0.108261,-0.0271 0.189455,-0.0778 0.429647,-0.13193 0.83562,-0.19622 -0.240192,0.37216 -0.490537,0.66986 -0.828859,0.99126 -0.226672,0.21653 -0.426279,0.37891 -0.6428,0.51423 l 0.02706,0.044"
           style="fill:#000000;fill-opacity:1;fill-rule:nonzero;stroke:none;stroke-width:0.10213613"
           id="path1012"
           inkscape:connector-curvature="0" />
        <path
           d="m 94.203362,140.62957 c 0.260498,-0.13871 0.40258,-0.23007 0.598803,-0.39246 0.277413,-0.22665 0.463497,-0.42965 0.673234,-0.72397 -0.0034,0.0473 -0.0034,0.0913 -0.0034,0.11163 0,0.0677 0,0.16917 0.0034,0.31462 0.0034,0.11505 0.0034,0.20639 0.0034,0.27744 0,0.11502 0,0.17252 -0.0068,0.3383 -0.155628,-0.0237 -0.351838,-0.071 -0.493926,-0.11502 l -0.01354,0.0406 c 0.230054,0.13533 0.34845,0.20299 0.355239,0.20975 0.06427,0.0406 0.08795,0.0677 0.11162,0.12518 0.02371,0.0508 0.05076,0.0744 0.0812,0.0744 0.04061,0 0.07783,-0.0271 0.104882,-0.0778 0.04398,-0.0812 0.06766,-0.1827 0.06766,-0.27744 0,-0.0203 -0.0034,-0.0913 -0.0068,-0.12855 -0.02368,-0.25036 -0.04737,-0.724 -0.04737,-0.97434 0,-0.0169 0,-0.0508 0,-0.088 0.115021,-0.0169 0.240219,-0.0237 0.378906,-0.0237 0.04398,0 0.0812,0 0.111658,0.003 0.101481,0.003 0.131937,0.007 0.142088,0.007 0.04737,0 0.07443,-0.0169 0.07443,-0.0508 0,-0.0271 -0.02706,-0.0677 -0.06766,-0.0947 -0.05414,-0.0406 -0.1387,-0.0744 -0.172544,-0.0744 -0.02368,0 -0.04059,0.007 -0.10148,0.0305 -0.104895,0.0406 -0.179308,0.0575 -0.35524,0.0812 0.02368,-0.23683 0.02368,-0.23683 0.04737,-0.29772 0.0203,-0.0541 0.0203,-0.0541 0.0203,-0.0744 0,-0.0575 -0.03384,-0.0981 -0.101506,-0.12517 -0.09811,-0.0372 -0.206362,-0.0609 -0.290953,-0.0609 -0.06427,0 -0.08119,0.003 -0.111645,0.0338 0.118409,0.0338 0.182696,0.0778 0.219915,0.14548 0.02705,0.0541 0.03382,0.11841 0.03721,0.41274 -0.135325,0.0203 -0.179295,0.0271 -0.334923,0.0508 -0.311244,0.0507 -0.405986,0.0609 -0.500703,0.0609 -0.118408,0 -0.209754,-0.0474 -0.287558,-0.14548 -0.01015,0.0237 -0.01354,0.0338 -0.01354,0.0474 0,0.0507 0.03383,0.11842 0.09135,0.18607 0.06428,0.0744 0.125176,0.11164 0.186062,0.11164 0.0203,0 0.04398,-0.003 0.07444,-0.0169 0.111645,-0.0406 0.236817,-0.0778 0.351838,-0.1015 0.250358,-0.0507 0.250358,-0.0507 0.307868,-0.0643 -0.213151,0.30111 -0.426277,0.55821 -0.629251,0.75443 -0.159016,0.15224 -0.372151,0.32818 -0.534542,0.43981 l 0.03046,0.0508"
           style="fill:#000000;fill-opacity:1;fill-rule:nonzero;stroke:none;stroke-width:0.10213613"
           id="path1014"
           inkscape:connector-curvature="0" />
        <path
           d="m 93.591018,143.73061 c 0.175912,-0.0643 0.419498,-0.1827 0.608953,-0.29433 0.169152,-0.1015 0.412735,-0.27404 0.649565,-0.46349 0.05073,0.0541 0.06427,0.071 0.07443,0.10486 0.01353,0.0541 0.02029,0.15563 0.02029,0.32141 0,0.32816 -0.03044,0.74767 -0.0609,0.83224 -0.0203,0.0643 -0.0203,0.0643 -0.0203,0.088 0,0.0981 0.152265,0.28417 0.230067,0.28417 0.05413,0 0.0778,-0.0507 0.0778,-0.16915 0,-0.0203 -0.0034,-0.11842 -0.0034,-0.19285 -0.0068,-0.19282 -0.01355,-0.40935 -0.01694,-0.64616 -0.0034,-0.30448 -0.01013,-0.4635 -0.02367,-0.49733 -0.01692,-0.0406 -0.07444,-0.0913 -0.206375,-0.18946 0.145476,-0.12179 0.16578,-0.13869 0.402585,-0.36537 0.240219,-0.23006 0.240219,-0.23006 0.274037,-0.25712 0.131937,-0.11163 0.135337,-0.11842 0.135337,-0.14885 0,-0.0643 -0.0609,-0.14209 -0.175944,-0.21992 -0.108257,-0.071 -0.192822,-0.10149 -0.290927,-0.10149 -0.02369,0 -0.03046,0 -0.06768,0.0135 0.135324,0.0744 0.189459,0.12856 0.189459,0.19285 0,0.0981 -0.216527,0.37213 -0.55145,0.7003 -0.39583,0.39243 -0.849154,0.73412 -1.272043,0.9608 l 0.02707,0.0474"
           style="fill:#000000;fill-opacity:1;fill-rule:nonzero;stroke:none;stroke-width:0.10213613"
           id="path1016"
           inkscape:connector-curvature="0" />
      </g>
    </g>
    <path
       sodipodi:nodetypes="cc"
       inkscape:connector-curvature="0"
       id="path1168"
       d="m 23.741031,184.42272 c -5.444328,7.94192 0.945938,13.12823 0.945938,13.12823"
       style="fill:none;stroke:#000000;stroke-width:0.26458329px;stroke-linecap:butt;stroke-linejoin:miter;stroke-opacity:1" />
    <path
       sodipodi:nodetypes="cscccc"
       inkscape:connector-curvature="0"
       id="path1170"
       d="m 41.798058,146.45075 c -10.093967,-6.18526 -4.896868,0.0996 -7.795344,1.17355 -2.66329,0.98699 -3.873828,-0.79653 -5.726084,0.87052 -1.852244,1.66701 0.359222,4.88789 -0.474296,6.92538 -0.833521,2.03748 -2.848523,0.04 -3.404193,3.00385 -0.555679,2.96363 3.086625,6.03381 3.086625,6.03381"
       style="fill:none;stroke:#000000;stroke-width:0.26458329px;stroke-linecap:butt;stroke-linejoin:miter;stroke-opacity:1" />
    <path
       sodipodi:nodetypes="ccccsc"
       inkscape:connector-curvature="0"
       id="path1172"
       d="m 23.807673,180.75899 c -0.941511,1.49103 -3.573408,3.94697 -6.196075,3.51801 -0.460065,-1.33351 0.731941,-9.12101 0.731941,-9.12101 0,0 -3.825263,7.19945 -6.019805,7.54789 -3.5535194,-9.09965 -3.9401404,-22.667 3.519276,-29.82121 11.580305,-11.10651 17.640505,-5.72873 17.640505,-5.72873"
       style="fill:none;stroke:#000000;stroke-width:0.26458329px;stroke-linecap:butt;stroke-linejoin:miter;stroke-opacity:1" />
    <path
       style="fill:none;stroke:#000000;stroke-width:0.26458329px;stroke-linecap:butt;stroke-linejoin:miter;stroke-opacity:1"
       d="m 38.196804,207.61665 c 29.821211,15.92933 61.124221,0.18504 61.124221,0.18504"
       id="path1174"
       inkscape:connector-curvature="0" />
    <path
       style="fill:none;stroke:#000000;stroke-width:0.26458329px;stroke-linecap:butt;stroke-linejoin:miter;stroke-opacity:1"
       d="m 59.219834,189.18677 c 2.222702,12.13223 8.520342,-0.18504 8.520342,-0.18504 0,0 2.851922,10.84866 8.612968,0.18504"
       id="path1176"
       inkscape:connector-curvature="0"
       sodipodi:nodetypes="ccc" />
    <circle
       style="opacity:1;fill:#000000;fill-opacity:1;stroke:none;stroke-width:0.35277778;stroke-miterlimit:4;stroke-dasharray:none;stroke-dashoffset:0;stroke-opacity:1"
       id="path1178"
       cx="67.971718"
       cy="185.0192"
       r="0.64828724" />
    <path
       style="fill:none;stroke:#000000;stroke-width:0.26458329px;stroke-linecap:butt;stroke-linejoin:miter;stroke-opacity:1"
       d="m 62.73911,169.08987 c -1.119645,-6.33301 -2.814961,-9.64665 -5.067893,-11.01121 m -4.515589,-0.58456 c -5.803037,1.39302 -9.977157,4.01066 -11.995219,11.40377 0.508065,-3.39398 -0.621868,-6.50253 -0.621868,-6.50253"
       id="path1180"
       inkscape:connector-curvature="0"
       sodipodi:nodetypes="ccccc" />
    <path
       style="fill:none;stroke:#000000;stroke-width:0.26458329px;stroke-linecap:butt;stroke-linejoin:miter;stroke-opacity:1"
       d="m 75.241791,168.34896 c 11.483947,-25.00537 22.875275,0 22.875275,0 l 0.370434,-5.37154"
       id="path1182"
       inkscape:connector-curvature="0"
       sodipodi:nodetypes="ccc" />
    <path
       style="fill:none;stroke:#000000;stroke-width:0.26458332px;stroke-linecap:butt;stroke-linejoin:miter;stroke-opacity:1"
       d="m 76.601946,216.27221 c -1.335769,0.49802 -4.759897,6.64068 -7.659772,20.57878 18.428234,0.93544 30.378851,-29.0493 30.378851,-29.0493 z"
       id="path1405"
       inkscape:connector-curvature="0"
       sodipodi:nodetypes="sccs" />
    <path
       style="fill:none;stroke:#000000;stroke-width:0.26458332px;stroke-linecap:butt;stroke-linejoin:miter;stroke-opacity:1"
       d="m 57.985806,234.53962 c -10.96614,-4.70289 -13.850488,-15.62194 -17.306119,-25.38129 5.130633,2.79057 19.380729,5.35781 19.380729,5.35781 3.307292,4.43177 6.452576,13.515 8.881758,22.33485 -1.711218,-0.0814 -3.303289,-0.25665 -4.78676,-0.51681"
       id="path1407"
       inkscape:connector-curvature="0"
       sodipodi:nodetypes="ccccc" />
    <path
       style="fill:none;stroke:#000000;stroke-width:0.26458332px;stroke-linecap:butt;stroke-linejoin:miter;stroke-opacity:1"
       d="m 64.822916,223.71041 c 2.645833,-1.85208 7.342187,0.8599 7.342187,0.8599"
       id="path1409"
       inkscape:connector-curvature="0" />
    <path
       style="opacity:1;fill:none;fill-opacity:1;stroke:#000000;stroke-width:0.35277778;stroke-miterlimit:4;stroke-dasharray:none;stroke-dashoffset:0;stroke-opacity:1"
       d="m 96.938134,177.2669 c 0.08049,-0.57771 0.135739,-1.18083 0.163949,-1.80986 0.373803,-8.33442 -3.702585,-17.38627 -10.880989,-17.36327 -7.244217,0.0232 -11.476301,12.03802 -11.476303,18.15702 0,1.01362 0.06531,2.01219 0.20933,2.97313 0,0 0.508087,-9.42616 4.517464,-11.11431 -0.09904,12.88102 13.989341,0.35772 13.324393,-0.90238 3.093611,0.87027 4.142155,10.05967 4.142155,10.05967"
       id="path869"
       inkscape:connector-curvature="0"
       sodipodi:nodetypes="cccscccc" />
    <path
       style="fill:#ffff00;fill-opacity:1;stroke:#000000;stroke-width:0.35277778;stroke-linecap:butt;stroke-linejoin:miter;stroke-miterlimit:4;stroke-dasharray:none;stroke-opacity:1"
       d="m 93.28216,182.63385 c -0.498827,-1.74526 -3.573731,-3.1244 -3.573731,-3.1244 -0.36033,2.00186 -2.686024,3.49385 -4.719204,3.55257 -2.033178,0.0587 -3.333225,-1.24921 -4.304585,-3.29308 0,0 -3.279071,1.14571 -3.624745,2.76569 -0.273148,1.2801 1.55736,3.62312 1.55736,3.62312 1.513901,1.136 3.544646,1.81623 6.214776,1.83393 2.729212,0.0181 5.385394,-0.71194 7.526151,-2.31163 0,0 1.198845,-2.08451 0.923978,-3.0462 z"
       id="path1445"
       inkscape:connector-curvature="0"
       sodipodi:nodetypes="scscscccs" />
    <path
       style="opacity:1;fill:#000000;fill-opacity:1;stroke:#000000;stroke-width:0.35277778;stroke-miterlimit:4;stroke-dasharray:none;stroke-dashoffset:0;stroke-opacity:1"
       d="m 79.471585,168.10961 c -0.09904,12.88102 13.989341,0.35772 13.324393,-0.90238 3.093611,0.87027 4.142155,10.05967 4.142155,10.05967 -0.547218,3.92758 -2.261248,6.68049 -4.579951,8.41315 0,0 1.198845,-2.08451 0.923978,-3.0462 -0.498827,-1.74526 -3.573731,-3.1244 -3.573731,-3.1244 -0.36033,2.00186 -2.686024,3.49385 -4.719204,3.55257 -2.033178,0.0587 -3.333225,-1.24921 -4.304585,-3.29308 0,0 -3.279071,1.14571 -3.624745,2.76569 -0.273148,1.2801 1.55736,3.62312 1.55736,3.62312 -2.131989,-1.59981 -3.238952,-4.10355 -3.663134,-6.93383 0,0 0.508087,-9.42616 4.517464,-11.11431 z"
       id="path877"
       inkscape:connector-curvature="0"
       sodipodi:nodetypes="cccccccccccc" />
    <path
       style="fill:none;stroke:#000000;stroke-width:0.26458332px;stroke-linecap:butt;stroke-linejoin:miter;stroke-opacity:1"
       d="m 33.205208,213.19323 c -22.133875,30.70396 -5.225521,38.36458 -5.225521,38.36458"
       id="path907"
       inkscape:connector-curvature="0"
       sodipodi:nodetypes="cc" />
    <path
       style="fill:none;stroke:#000000;stroke-width:0.26458332px;stroke-linecap:butt;stroke-linejoin:miter;stroke-opacity:1"
       d="m 41.010416,224.04114 c -5.107213,12.996 3.030415,8.6374 4.845182,9.82266 1.354778,0.88484 3.042708,2.03398 4.018359,1.28984 1.61336,-1.23053 3.042709,-2.97656 3.042709,-2.97656"
       id="path909"
       inkscape:connector-curvature="0"
       sodipodi:nodetypes="cssc" />
    <path
       style="fill:none;stroke:#000000;stroke-width:0.26458332px;stroke-linecap:butt;stroke-linejoin:miter;stroke-opacity:1"
       d="m 49.344791,228.67135 c -1.488281,3.14193 0.859895,5.52318 0.859895,5.52318"
       id="path911"
       inkscape:connector-curvature="0"
       sodipodi:nodetypes="cc" />
    <path
       style="fill:none;stroke:#000000;stroke-width:0.26458332px;stroke-linecap:butt;stroke-linejoin:miter;stroke-opacity:1"
       d="m 54.583118,251.63099 c -1.15629,-8.09403 0.04138,-10.99227 2.272213,-16.2183 1.193802,-0.61598 5.484307,-0.76422 7.175766,-0.80677 -2.245064,5.65944 -2.245066,16.74444 -2.245066,16.74444"
       id="path913"
       inkscape:connector-curvature="0"
       sodipodi:nodetypes="cccc" />
    <path
       style="fill:none;stroke:#000000;stroke-width:0.26458332px;stroke-linecap:butt;stroke-linejoin:miter;stroke-opacity:1"
       d="m 89.942878,224.97086 c 0.795126,8.41899 -8.278675,13.89133 -8.278675,13.89133"
       id="path915"
       inkscape:connector-curvature="0" />
    <path
       style="fill:none;stroke:#000000;stroke-width:0.26458332px;stroke-linecap:butt;stroke-linejoin:miter;stroke-opacity:1"
       d="m 71.327554,237.59934 c 10.430193,2.38538 15.349102,7.19421 14.21874,13.75102 -1.713973,-1.97518 -7.436776,-5.09816 -7.436776,-5.09816"
       id="path917"
       inkscape:connector-curvature="0"
       sodipodi:nodetypes="ccc" />
    <path
       style="fill:none;stroke:#000000;stroke-width:0.26458332px;stroke-linecap:butt;stroke-linejoin:miter;stroke-opacity:1"
       d="m 76.051544,250.08751 c 2.478923,0.3274 2.853103,1.91766 2.853103,1.91766"
       id="path919"
       inkscape:connector-curvature="0"
       sodipodi:nodetypes="cc" />
    <path
       style="fill:none;stroke:#000000;stroke-width:0.26458332px;stroke-linecap:butt;stroke-linejoin:miter;stroke-opacity:1"
       d="m 73.853251,236.94453 c 7.10937,-0.42095 7.483546,4.30304 7.483546,4.30304"
       id="path921"
       inkscape:connector-curvature="0"
       sodipodi:nodetypes="cc" />
    <path
       style="fill:none;stroke:#000000;stroke-width:0.26458332px;stroke-linecap:butt;stroke-linejoin:miter;stroke-opacity:1"
       d="m 103.46003,221.55649 c 5.65943,10.38343 6.08038,29.84064 6.08038,29.84064"
       id="path923"
       inkscape:connector-curvature="0"
       sodipodi:nodetypes="cc" />
    <path
       style="fill:none;stroke:#000000;stroke-width:0.26458332px;stroke-linecap:butt;stroke-linejoin:miter;stroke-opacity:1"
       d="m 109.21301,244.52162 c 1.21608,-1.21607 3.695,-1.26284 3.695,-1.26284"
       id="path925"
       inkscape:connector-curvature="0" />
    <path
       style="fill:none;stroke:#000000;stroke-width:0.26458332px;stroke-linecap:butt;stroke-linejoin:miter;stroke-opacity:1"
       d="m 107.15503,208.97478 c 20.48621,21.14102 13.79779,42.42235 13.79779,42.42235"
       id="path927"
       inkscape:connector-curvature="0"
       sodipodi:nodetypes="cc" />
    <path
       sodipodi:nodetypes="cccscccc"
       inkscape:connector-curvature="0"
       id="path929"
       d="m 62.981541,177.13415 c 0.08049,-0.56243 0.135739,-1.14961 0.163949,-1.762 0.373803,-8.11407 -3.702585,-16.92659 -10.880989,-16.9042 -7.244217,0.0226 -11.476301,11.71974 -11.476303,17.67696 0,0.98682 0.06531,1.95899 0.20933,2.89452 0,0 0.508087,-9.17694 4.517464,-10.82045 -0.09904,12.54045 13.989341,0.34826 13.324393,-0.87852 3.093611,0.84726 4.142155,9.79369 4.142155,9.79369"
       style="opacity:1;fill:none;fill-opacity:1;stroke:#000000;stroke-width:0.35277778;stroke-miterlimit:4;stroke-dasharray:none;stroke-dashoffset:0;stroke-opacity:1" />
    <path
       sodipodi:nodetypes="scscscccs"
       inkscape:connector-curvature="0"
       id="path931"
       d="m 59.325567,182.35921 c -0.498827,-1.69912 -3.573731,-3.0418 -3.573731,-3.0418 -0.36033,1.94894 -2.686024,3.40148 -4.719204,3.45865 -2.033178,0.0571 -3.333225,-1.21619 -4.304585,-3.20602 0,0 -3.279071,1.11542 -3.624745,2.69257 -0.273148,1.24625 1.55736,3.52733 1.55736,3.52733 1.513901,1.10596 3.544646,1.76821 6.214776,1.78544 2.729212,0.0176 5.385394,-0.69312 7.526151,-2.25051 0,0 1.198845,-2.0294 0.923978,-2.96566 z"
       style="fill:#feff00;fill-opacity:1;stroke:#000000;stroke-width:0.35277778;stroke-linecap:butt;stroke-linejoin:miter;stroke-miterlimit:4;stroke-dasharray:none;stroke-opacity:1" />
    <path
       sodipodi:nodetypes="cccccccccccc"
       inkscape:connector-curvature="0"
       id="path934"
       d="m 45.514992,168.21898 c -0.09904,12.54045 13.989341,0.34826 13.324393,-0.87852 3.093611,0.84726 4.142155,9.79369 4.142155,9.79369 -0.547218,3.82374 -2.261248,6.50387 -4.579951,8.19072 0,0 1.198845,-2.0294 0.923978,-2.96566 -0.498827,-1.69912 -3.573731,-3.0418 -3.573731,-3.0418 -0.36033,1.94894 -2.686024,3.40148 -4.719204,3.45865 -2.033178,0.0571 -3.333225,-1.21619 -4.304585,-3.20602 0,0 -3.279071,1.11542 -3.624745,2.69257 -0.273148,1.24625 1.55736,3.52733 1.55736,3.52733 -2.131989,-1.55752 -3.238952,-3.99506 -3.663134,-6.75051 0,0 0.508087,-9.17694 4.517464,-10.82045 z"
       style="opacity:1;fill:#000000;fill-opacity:1;stroke:#000000;stroke-width:0.35277778;stroke-miterlimit:4;stroke-dasharray:none;stroke-dashoffset:0;stroke-opacity:1" />
  </g>
</svg>
