<?xml version="1.0" encoding="UTF-8" standalone="no"?>
<!-- Created with Inkscape (http://www.inkscape.org/) -->

<svg
   xmlns:dc="http://purl.org/dc/elements/1.1/"
   xmlns:cc="http://creativecommons.org/ns#"
   xmlns:rdf="http://www.w3.org/1999/02/22-rdf-syntax-ns#"
   xmlns:svg="http://www.w3.org/2000/svg"
   xmlns="http://www.w3.org/2000/svg"
   xmlns:sodipodi="http://sodipodi.sourceforge.net/DTD/sodipodi-0.dtd"
   xmlns:inkscape="http://www.inkscape.org/namespaces/inkscape"
   width="197.47015mm"
   height="170.08006mm"
   viewBox="0 0 197.47015 170.08006"
   version="1.1"
   id="svg8"
   inkscape:version="0.92.2 5c3e80d, 2017-08-06"
   sodipodi:docname="pop2.svg"
   inkscape:export-filename="/Users/mkawamura/GoogleDrive/pop2.png"
   inkscape:export-xdpi="329.28519"
   inkscape:export-ydpi="329.28519">
  <defs
     id="defs2">
    <clipPath
       clipPathUnits="userSpaceOnUse"
       id="clipPath974">
      <path
         d="M 0,0 H 60 V 70 H 0 Z"
         id="path972"
         inkscape:connector-curvature="0" />
    </clipPath>
    <clipPath
       id="clipPath1159"
       clipPathUnits="userSpaceOnUse">
      <path
         inkscape:connector-curvature="0"
         id="path1157"
         d="M 0,0 H 94 V 47 H 0 Z" />
    </clipPath>
    <clipPath
       id="clipPath1310"
       clipPathUnits="userSpaceOnUse">
      <path
         inkscape:connector-curvature="0"
         id="path1308"
         d="M 0,0 H 94 V 47 H 0 Z" />
    </clipPath>
  </defs>
  <sodipodi:namedview
     id="base"
     pagecolor="#ffffff"
     bordercolor="#666666"
     borderopacity="1.0"
     inkscape:pageopacity="1"
     inkscape:pageshadow="2"
     inkscape:zoom="0.49497475"
     inkscape:cx="394.38166"
     inkscape:cy="244.15985"
     inkscape:document-units="mm"
     inkscape:current-layer="layer1"
     showgrid="false"
     inkscape:window-width="1440"
     inkscape:window-height="783"
     inkscape:window-x="0"
     inkscape:window-y="1"
     inkscape:window-maximized="1"
     inkscape:snap-global="true"
     fit-margin-top="0"
     fit-margin-left="0"
     fit-margin-right="0"
     fit-margin-bottom="0"
     inkscape:snap-center="false"
     inkscape:snap-object-midpoints="false"
     inkscape:snap-bbox="false"
     inkscape:snap-bbox-midpoints="false"
     inkscape:snap-page="false"
     inkscape:snap-others="false"
     inkscape:snap-bbox-edge-midpoints="false" />
  <metadata
     id="metadata5">
    <rdf:RDF>
      <cc:Work
         rdf:about="">
        <dc:format>image/svg+xml</dc:format>
        <dc:type
           rdf:resource="http://purl.org/dc/dcmitype/StillImage" />
        <dc:title></dc:title>
      </cc:Work>
    </rdf:RDF>
  </metadata>
  <g
     inkscape:label="レイヤー 1"
     inkscape:groupmode="layer"
     id="layer1"
     transform="translate(-9.2464572,-30.9165)">
    <g
       id="g1545"
       transform="translate(0,-19.243406)">
      <path
         style="fill:#ff2e00;fill-opacity:0.42292492;stroke:#000000;stroke-width:0.26458332px;stroke-linecap:butt;stroke-linejoin:miter;stroke-opacity:1"
         d="m 108.09436,219.54554 c 1.5127,-0.25218 2.97273,-1.18442 3.24676,-1.9344 1.26954,-3.4745 -4.37654,-13.46369 -4.37654,-13.46369 l -6.5481,-0.50113 c 0,0 -8.218541,10.28987 -8.218541,12.49484 0,2.20497 3.274053,3.54132 3.274053,3.54132"
         id="path1023"
         inkscape:connector-curvature="0"
         sodipodi:nodetypes="csccsc" />
      <path
         sodipodi:nodetypes="cc"
         inkscape:connector-curvature="0"
         id="path883"
         d="m 74.316127,125.03025 c -9.29914,30.51688 -3.297169,59.54165 -3.297169,59.54165"
         style="fill:none;stroke:#000000;stroke-width:0.35277778;stroke-linecap:butt;stroke-linejoin:miter;stroke-miterlimit:4;stroke-dasharray:none;stroke-opacity:1" />
      <path
         sodipodi:nodetypes="cc"
         inkscape:connector-curvature="0"
         id="path885"
         d="M 71.018958,184.5719 C 47.672196,167.0746 62.283746,130.44806 62.283746,130.44806"
         style="fill:none;stroke:#000000;stroke-width:0.26458329px;stroke-linecap:butt;stroke-linejoin:miter;stroke-opacity:1" />
      <path
         sodipodi:nodetypes="ccc"
         inkscape:connector-curvature="0"
         id="path887"
         d="m 57.959615,144.48247 c -0.61198,-19.69953 20.549196,-47.555523 56.416895,-44.12768 58.51717,5.75945 41.6892,60.18678 41.6892,60.18678"
         style="fill:none;stroke:#000000;stroke-width:0.26458329px;stroke-linecap:butt;stroke-linejoin:miter;stroke-opacity:1" />
      <path
         sodipodi:nodetypes="cc"
         inkscape:connector-curvature="0"
         id="path889"
         d="m 140.62189,122.2413 c 5.12788,41.72903 -1.7118,63.99146 -1.7118,63.99146"
         style="fill:none;stroke:#000000;stroke-width:0.26458329px;stroke-linecap:butt;stroke-linejoin:miter;stroke-opacity:1" />
      <path
         sodipodi:nodetypes="cc"
         inkscape:connector-curvature="0"
         id="path891"
         d="m 153.72809,133.81414 c 9.44646,42.78695 -14.818,52.41862 -14.818,52.41862"
         style="fill:none;stroke:#000000;stroke-width:0.26458329px;stroke-linecap:butt;stroke-linejoin:miter;stroke-opacity:1" />
      <path
         sodipodi:nodetypes="cc"
         inkscape:connector-curvature="0"
         id="path893"
         d="m 158.59385,144.10267 c 8.59315,7.94193 -2.52814,18.23429 -2.52814,18.23429"
         style="fill:none;stroke:#000000;stroke-width:0.26458329px;stroke-linecap:butt;stroke-linejoin:miter;stroke-opacity:1" />
      <path
         sodipodi:nodetypes="cszazsc"
         inkscape:connector-curvature="0"
         id="path895"
         d="m 91.666392,117.88238 c -5.723751,-8.51657 -12.556043,11.5185 -7.313419,15.67364 2.814096,2.23037 4.962587,-8.02756 7.974997,-7.24172 3.012392,0.78583 6.803631,8.25498 11.57328,8.43116 4.93539,0.1823 9.42131,-7.83949 12.58643,-7.81687 3.16511,0.0235 8.35936,7.79521 11.22191,5.59771 2.91388,-2.23691 3.70937,-20.77841 -4.92911,-14.02129"
         style="fill:none;stroke:#000000;stroke-width:0.26499999;stroke-linecap:butt;stroke-linejoin:miter;stroke-miterlimit:4;stroke-dasharray:none;stroke-opacity:1" />
      <path
         sodipodi:nodetypes="cc"
         inkscape:connector-curvature="0"
         id="path897"
         d="m 73.302747,133.42858 c 15.555544,-18.5936 13.295954,-17.77106 9.128384,-14.9927"
         style="fill:none;stroke:#000000;stroke-width:0.26458329px;stroke-linecap:butt;stroke-linejoin:miter;stroke-opacity:1" />
      <path
         sodipodi:nodetypes="cc"
         inkscape:connector-curvature="0"
         id="path899"
         d="m 141.33171,132.81217 c -17.30365,-13.01762 -13.52612,-18.4737 -7.84723,-13.37007"
         style="fill:none;stroke:#000000;stroke-width:0.26458329px;stroke-linecap:butt;stroke-linejoin:miter;stroke-opacity:1" />
      <path
         sodipodi:nodetypes="cccsc"
         inkscape:connector-curvature="0"
         id="path920"
         d="m 142.39547,108.63304 c 9.15715,-5.55128 7.61255,2.81484 10.70313,2.75843 9.89867,1.5425 4.05597,4.40467 4.13558,7.38714 0.19957,2.31876 2.8162,1.48891 3.37189,4.4527 0.55566,2.96363 -4.71457,4.14898 -4.71457,4.14898"
         style="fill:none;stroke:#000000;stroke-width:0.26458329px;stroke-linecap:butt;stroke-linejoin:miter;stroke-opacity:1" />
      <path
         sodipodi:nodetypes="ccccc"
         inkscape:connector-curvature="0"
         id="path922"
         d="m 158.44806,138.19108 c 7.09062,3.74569 17.05362,-0.16454 19.35214,-0.77875 0.46007,-1.3335 -6.59674,-5.2218 -6.59674,-5.2218 0,0 4.14825,-0.13197 6.25018,-0.2466 -0.19652,-11.2044 -7.15266,-24.14694 -25.56291,-22.71861"
         style="fill:none;stroke:#000000;stroke-width:0.26458329px;stroke-linecap:butt;stroke-linejoin:miter;stroke-opacity:1" />
      <path
         style="fill:none;stroke:#000000;stroke-width:0.26458329px;stroke-linecap:butt;stroke-linejoin:miter;stroke-opacity:1"
         d="m 56.53622,144.34866 c -9.602068,11.72168 1.040434,17.66394 1.040434,17.66394"
         id="path1168"
         inkscape:connector-curvature="0"
         sodipodi:nodetypes="cc" />
      <path
         style="fill:none;stroke:#000000;stroke-width:0.26458329px;stroke-linecap:butt;stroke-linejoin:miter;stroke-opacity:1"
         d="m 77.610105,108.94702 c -10.09397,-6.18526 -7.912464,-0.78075 -9.165513,0.98456 -1.076006,1.51589 -3.826573,0.71538 -5.678833,2.38243 -1.85224,1.66701 0.642702,2.99801 -0.190818,5.0355 -0.83352,2.03748 -2.565038,0.79595 -3.120708,3.7598 -0.55568,2.96363 2.944889,4.94713 2.944889,4.94713"
         id="path1170"
         inkscape:connector-curvature="0"
         sodipodi:nodetypes="cscccc" />
      <path
         style="fill:none;stroke:#000000;stroke-width:0.26458329px;stroke-linecap:butt;stroke-linejoin:miter;stroke-opacity:1"
         d="m 57.527415,139.48107 c -0.94151,1.49103 -10.046252,1.91534 -12.668912,1.48638 -0.46007,-1.33351 3.708502,-7.23112 3.708502,-7.23112 0,0 -4.675706,3.70317 -6.870256,4.05161 -0.813193,-12.21796 0.908408,-17.02244 5.928878,-22.63967 8.871351,-9.92583 20.191839,-6.29569 20.191839,-6.29569"
         id="path1172"
         inkscape:connector-curvature="0"
         sodipodi:nodetypes="ccccsc" />
      <path
         sodipodi:nodetypes="cccc"
         inkscape:connector-curvature="0"
         id="path1174"
         d="m 70.370825,174.91821 c 3.018217,1.61221 6.139697,2.91837 9.31262,3.9639 m 24.675275,3.66835 c 19.49902,0.024 35.73528,-5.65182 35.73528,-5.65182"
         style="fill:none;stroke:#000000;stroke-width:0.26458329px;stroke-linecap:butt;stroke-linejoin:miter;stroke-opacity:1" />
      <path
         sodipodi:nodetypes="ccccc"
         inkscape:connector-curvature="0"
         id="path1176"
         d="m 95.192363,166.69257 c 0.156942,0.69986 0.36111,1.31582 0.605468,1.84555 m 6.089559,0.93426 c 0.29581,-0.27016 0.59301,-0.57894 0.88988,-0.92692 3.87836,3.03277 5.90821,3.11632 7.67752,-1.38517"
         style="fill:none;stroke:#000000;stroke-width:0.26458329px;stroke-linecap:butt;stroke-linejoin:miter;stroke-opacity:1" />
      <circle
         r="0.64828724"
         cy="164.30711"
         cx="103.0966"
         id="path1178"
         style="opacity:1;fill:#000000;fill-opacity:1;stroke:none;stroke-width:0.35277778;stroke-miterlimit:4;stroke-dasharray:none;stroke-dashoffset:0;stroke-opacity:1" />
      <path
         sodipodi:nodetypes="ccccc"
         inkscape:connector-curvature="0"
         id="path1180"
         d="m 97.297013,145.16499 c -2.337721,-8.50022 -6.14947,-12.35233 -9.934114,-12.90418 m -3.884304,0.56884 c -3.619214,1.60106 -6.676983,6.08947 -7.626647,12.07652 0.50806,-3.39398 -0.62187,-6.50253 -0.62187,-6.50253"
         style="fill:none;stroke:#000000;stroke-width:0.26458329px;stroke-linecap:butt;stroke-linejoin:miter;stroke-opacity:1" />
      <path
         sodipodi:nodetypes="ccc"
         inkscape:connector-curvature="0"
         id="path1182"
         d="m 113.95744,143.85712 c 11.48395,-25.00537 22.87528,0 22.87528,0 l 0.37043,-5.37154"
         style="fill:none;stroke:#000000;stroke-width:0.26458329px;stroke-linecap:butt;stroke-linejoin:miter;stroke-opacity:1" />
      <path
         sodipodi:nodetypes="sccs"
         inkscape:connector-curvature="0"
         id="path1405"
         d="m 112.59095,182.98503 c -1.41298,0.1892 -4.8544,6.45169 -10.30562,20.01181 18.71173,-0.10399 29.81189,-22.6237 29.81189,-22.6237 z"
         style="fill:#00eeff;fill-opacity:1;stroke:#000000;stroke-width:0.26458332px;stroke-linecap:butt;stroke-linejoin:miter;stroke-opacity:1" />
      <g
         transform="translate(-123.16248,171.22321)"
         id="g1301">
        <path
           style="opacity:1;fill:none;fill-opacity:1;stroke:#000000;stroke-width:0.35277778;stroke-miterlimit:4;stroke-dasharray:none;stroke-dashoffset:0;stroke-opacity:1"
           d="m 258.06031,-15.80232 c 0.0805,-0.57771 0.13574,-1.18083 0.16395,-1.80986 0.37381,-8.33442 -3.70258,-17.38627 -10.88099,-17.36327 -7.24421,0.0232 -11.4763,12.03802 -11.4763,18.15702 0,1.01362 0.0653,2.01219 0.20933,2.97313 0,0 0.50809,-9.42616 4.51746,-11.11431 -0.099,12.88102 13.98935,0.35772 13.3244,-0.90238 3.09361,0.87027 4.14215,10.05967 4.14215,10.05967"
           id="path869"
           inkscape:connector-curvature="0"
           sodipodi:nodetypes="cccscccc" />
        <path
           style="fill:#ffff00;fill-opacity:1;stroke:#000000;stroke-width:0.35277778;stroke-linecap:butt;stroke-linejoin:miter;stroke-miterlimit:4;stroke-dasharray:none;stroke-opacity:1"
           d="m 254.40434,-10.43537 c -0.49883,-1.74526 -3.57373,-3.1244 -3.57373,-3.1244 -0.36033,2.00186 -2.68603,3.49385 -4.71921,3.55257 -2.03317,0.0587 -3.33322,-1.24921 -4.30458,-3.29308 0,0 -3.27907,1.14571 -3.62475,2.76569 -0.27314,1.2801 1.55736,3.62312 1.55736,3.62312 1.51391,1.136 3.54465,1.81623 6.21478,1.83393 2.72921,0.0181 5.38539,-0.71194 7.52615,-2.31163 0,0 1.19885,-2.08451 0.92398,-3.0462 z"
           id="path1445"
           inkscape:connector-curvature="0"
           sodipodi:nodetypes="scscscccs" />
        <path
           style="opacity:1;fill:#000000;fill-opacity:1;stroke:#000000;stroke-width:0.35277778;stroke-miterlimit:4;stroke-dasharray:none;stroke-dashoffset:0;stroke-opacity:1"
           d="m 240.59376,-24.95961 c -0.099,12.88102 13.98935,0.35772 13.3244,-0.90238 3.09361,0.87027 4.14215,10.05967 4.14215,10.05967 -0.54721,3.92758 -2.26125,6.68049 -4.57995,8.41315 0,0 1.19885,-2.08451 0.92398,-3.0462 -0.49883,-1.74526 -3.57373,-3.1244 -3.57373,-3.1244 -0.36033,2.00186 -2.68603,3.49385 -4.71921,3.55257 -2.03317,0.0587 -3.33322,-1.24921 -4.30458,-3.29308 0,0 -3.27907,1.14571 -3.62475,2.76569 -0.27314,1.2801 1.55737,3.62312 1.55737,3.62312 -2.13199,-1.59981 -3.23896,-4.10355 -3.66314,-6.93383 0,0 0.50809,-9.42616 4.51746,-11.11431 z"
           id="path877"
           inkscape:connector-curvature="0"
           sodipodi:nodetypes="cccccccccccc" />
      </g>
      <path
         sodipodi:nodetypes="cc"
         inkscape:connector-curvature="0"
         id="path923"
         d="m 132.49445,193.32613 c 5.12489,12.38795 3.67495,26.90068 3.67495,26.90068"
         style="fill:none;stroke:#000000;stroke-width:0.26458332px;stroke-linecap:butt;stroke-linejoin:miter;stroke-opacity:1" />
      <path
         sodipodi:nodetypes="cc"
         inkscape:connector-curvature="0"
         id="path927"
         d="m 145.00934,182.88258 c 8.72635,17.66652 6.98242,36.67606 6.98242,36.67606"
         style="fill:none;stroke:#000000;stroke-width:0.26458332px;stroke-linecap:butt;stroke-linejoin:miter;stroke-opacity:1" />
      <g
         transform="translate(-160.58213,-22.86756)"
         id="g1306">
        <path
           sodipodi:nodetypes="cccscccc"
           inkscape:connector-curvature="0"
           id="path929"
           d="m 257.36562,177.21076 c 0.0805,-0.56243 0.13574,-1.14961 0.16395,-1.762 0.3738,-8.11407 -3.70259,-16.92659 -10.88099,-16.9042 -7.24422,0.0226 -11.4763,11.71974 -11.4763,17.67696 0,0.98682 0.0653,1.95899 0.20933,2.89452 0,0 0.50808,-9.17694 4.51746,-10.82045 -0.099,12.54045 13.98934,0.34826 13.32439,-0.87852 3.09362,0.84726 4.14216,9.79369 4.14216,9.79369"
           style="opacity:1;fill:none;fill-opacity:1;stroke:#000000;stroke-width:0.35277778;stroke-miterlimit:4;stroke-dasharray:none;stroke-dashoffset:0;stroke-opacity:1" />
        <path
           sodipodi:nodetypes="scscscccs"
           inkscape:connector-curvature="0"
           id="path931"
           d="m 253.70965,182.43582 c -0.49883,-1.69912 -3.57373,-3.0418 -3.57373,-3.0418 -0.36033,1.94894 -2.68603,3.40148 -4.71921,3.45865 -2.03318,0.0571 -3.33322,-1.21619 -4.30458,-3.20602 0,0 -3.27907,1.11542 -3.62475,2.69257 -0.27315,1.24625 1.55736,3.52733 1.55736,3.52733 1.5139,1.10596 3.54465,1.76821 6.21478,1.78544 2.72921,0.0176 5.38539,-0.69312 7.52615,-2.25051 0,0 1.19884,-2.0294 0.92398,-2.96566 z"
           style="fill:#feff00;fill-opacity:1;stroke:#000000;stroke-width:0.35277778;stroke-linecap:butt;stroke-linejoin:miter;stroke-miterlimit:4;stroke-dasharray:none;stroke-opacity:1" />
        <path
           sodipodi:nodetypes="cccccccccccc"
           inkscape:connector-curvature="0"
           id="path934"
           d="m 239.89907,168.29559 c -0.099,12.54045 13.98934,0.34826 13.32439,-0.87852 3.09362,0.84726 4.14216,9.79369 4.14216,9.79369 -0.54722,3.82374 -2.26125,6.50387 -4.57995,8.19072 0,0 1.19884,-2.0294 0.92398,-2.96566 -0.49883,-1.69912 -3.57373,-3.0418 -3.57373,-3.0418 -0.36033,1.94894 -2.68603,3.40148 -4.71921,3.45865 -2.03318,0.0571 -3.33322,-1.21619 -4.30458,-3.20602 0,0 -3.27907,1.11542 -3.62475,2.69257 -0.27315,1.24625 1.55736,3.52733 1.55736,3.52733 -2.13199,-1.55752 -3.23895,-3.99506 -3.66313,-6.75051 0,0 0.50808,-9.17694 4.51746,-10.82045 z"
           style="opacity:1;fill:#000000;fill-opacity:1;stroke:#000000;stroke-width:0.35277778;stroke-miterlimit:4;stroke-dasharray:none;stroke-dashoffset:0;stroke-opacity:1" />
      </g>
      <path
         sodipodi:nodetypes="cccccccc"
         inkscape:connector-curvature="0"
         id="path1027"
         d="m 106.96458,204.14745 -6.5481,-0.50113 c 0,0 -0.4903,0.61387 -1.278104,1.54248 -10.195509,-1.22409 -18.841043,-6.96953 -17.152521,-15.06286 4.626029,6.26427 11.152324,10.87705 20.299475,12.8709 10.3497,-0.0575 18.37076,-6.97276 23.47286,-13.14195 -2.52198,8.9414 -9.8563,14.01292 -18.19808,15.21454 -0.39972,-0.57555 -0.59553,-0.92198 -0.59553,-0.92198 z"
         style="fill:#ff2d00;fill-opacity:0.42292492;stroke:#000000;stroke-width:0.26458332px;stroke-linecap:butt;stroke-linejoin:miter;stroke-opacity:1" />
      <path
         sodipodi:nodetypes="cc"
         inkscape:connector-curvature="0"
         id="path858"
         d="m 102.74893,204.9506 c 1.20297,4.30005 -0.89588,14.89893 -0.89588,14.89893"
         style="fill:none;stroke:#000000;stroke-width:0.26458332px;stroke-linecap:butt;stroke-linejoin:miter;stroke-opacity:1" />
      <path
         sodipodi:nodetypes="ccccccccccscsc"
         inkscape:connector-curvature="0"
         id="path860"
         d="m 94.143302,178.95537 c 0.570272,-0.52153 1.074504,0.14941 0.977957,0.50147 -0.261627,0.95409 -1.882167,1.40694 -2.873621,1.23219 -1.773471,-0.31257 -2.016524,-1.9519 -1.038213,-3.23804 1.435718,-1.88744 4.618601,-2.64127 6.725198,-1.9629 2.807757,0.90416 3.083257,3.73101 1.098468,5.9746 -2.497651,2.82334 -7.389397,3.9038 -10.576772,2.69362 -3.860336,-1.46568 -4.164773,-5.51775 -1.158721,-8.71117 3.542522,-3.76337 10.167848,-5.17355 14.428342,-3.42433 4.91892,2.01954 5.25136,7.30685 1.21899,11.44772 -4.581855,4.70513 -12.949338,6.44625 -18.279932,4.15506 -5.980124,-2.57034 -6.340257,-9.09709 -1.279232,-14.18429 5.618692,-5.64777 14.959458,-5.37954 21.446414,-2.73605 2.6253,1.06983 6.07706,5.57235 -1.88725,12.76528"
         style="fill:none;fill-rule:evenodd;stroke:#000000;stroke-width:0.26458332" />
      <path
         sodipodi:nodetypes="cccccccccc"
         inkscape:connector-curvature="0"
         id="path863"
         d="m 82.999903,186.79632 -11.990617,8.85715 m -9.732474,7.18912 -2.675439,1.97628 m -5.629967,4.15871 -5.950111,4.39519 -3.496278,-3.1183 4.671013,-3.17098 m 20.147269,-13.67727 12.624982,-8.57065"
         style="fill:none;stroke:#000000;stroke-width:0.26458332px;stroke-linecap:butt;stroke-linejoin:miter;stroke-opacity:1" />
      <path
         sodipodi:nodetypes="cc"
         inkscape:connector-curvature="0"
         id="path865"
         d="m 64.034413,178.2223 c -4.209496,3.07359 -6.949008,10.7576 -6.949008,10.7576"
         style="fill:none;stroke:#000000;stroke-width:0.26458332px;stroke-linecap:butt;stroke-linejoin:miter;stroke-opacity:1" />
      <path
         sodipodi:nodetypes="cc"
         inkscape:connector-curvature="0"
         id="path867"
         d="m 98.645815,189.91534 c 2.873155,-0.60136 8.619445,0.20045 8.619445,0.20045"
         style="fill:none;stroke:#000000;stroke-width:0.26458332px;stroke-linecap:butt;stroke-linejoin:miter;stroke-opacity:1" />
      <path
         sodipodi:nodetypes="ccsssc"
         inkscape:connector-curvature="0"
         id="path870"
         d="m 68.185198,201.08125 c -13.856489,6.85077 -3.822422,-7.96605 1.831901,-5.47503 2.112293,1.34451 1.236372,7.56386 -1.503139,8.56612 -2.739512,1.00226 -5.328601,0.92202 -6.731768,1.77583 -1.232199,0.74978 -1.18789,2.21979 -3.726951,2.88796 -2.539061,0.66817 -5.083835,0.14149 -5.083835,0.14149"
         style="fill:none;stroke:#000000;stroke-width:0.26458332px;stroke-linecap:butt;stroke-linejoin:miter;stroke-opacity:1" />
      <path
         sodipodi:nodetypes="cc"
         inkscape:connector-curvature="0"
         id="path872"
         d="m 49.601858,211.63099 c 1.8541,13.97063 24.581168,3.76552 21.307453,-10.09072"
         style="fill:none;stroke:#000000;stroke-width:0.26458332px;stroke-linecap:butt;stroke-linejoin:miter;stroke-opacity:1" />
      <path
         sodipodi:nodetypes="cccscc"
         inkscape:connector-curvature="0"
         id="path874"
         d="m 52.971406,208.97762 c 9.899673,3.28715 13.108059,-3.22795 13.108059,-3.22795 l 2.369644,-0.73499 c 0,0 -2.395929,6.77622 -6.769516,8.20232 -3.065729,0.99964 -7.200064,-0.18285 -10.540934,-2.52146 z"
         style="fill:#00f9ff;fill-opacity:0.42292492;stroke:#000000;stroke-width:0.26458332px;stroke-linecap:butt;stroke-linejoin:miter;stroke-opacity:1" />
      <path
         sodipodi:nodetypes="cccc"
         inkscape:connector-curvature="0"
         id="path878"
         d="m 71.918865,203.6129 c 1.575795,-1.38284 2.307628,-5.96231 2.66737,-10.31652 m 0.241103,-4.58801 c 0.08054,-2.54645 0.09831,-4.53932 0.09831,-4.53932"
         style="fill:none;stroke:#000000;stroke-width:0.26458332px;stroke-linecap:butt;stroke-linejoin:miter;stroke-opacity:1" />
      <path
         sodipodi:nodetypes="csc"
         inkscape:connector-curvature="0"
         id="path880"
         d="m 48.098467,200.1384 c -5.011302,4.51017 1.415431,7.84233 4.176088,7.65059 2.422617,-0.16826 1.135893,-1.67043 1.135893,-1.67043"
         style="fill:none;stroke:#000000;stroke-width:0.26458332px;stroke-linecap:butt;stroke-linejoin:miter;stroke-opacity:1" />
      <path
         sodipodi:nodetypes="csc"
         inkscape:connector-curvature="0"
         id="path882"
         d="m 52.074103,195.89549 c -8.68626,3.40769 1.068773,10.12283 2.906555,10.12284 3.140417,0 2.873149,-3.37428 2.873149,-3.37428"
         style="fill:none;stroke:#000000;stroke-width:0.26458332px;stroke-linecap:butt;stroke-linejoin:miter;stroke-opacity:1" />
      <path
         sodipodi:nodetypes="csc"
         inkscape:connector-curvature="0"
         id="path884"
         d="m 61.053662,201.51377 c -0.944941,3.30729 -9.27815,-2.46089 -8.88244,-7.2288 0.366044,-4.41048 5.669641,-3.2128 5.669641,-3.2128"
         style="fill:none;stroke:#000000;stroke-width:0.26458332px;stroke-linecap:butt;stroke-linejoin:miter;stroke-opacity:1" />
      <path
         sodipodi:nodetypes="cc"
         inkscape:connector-curvature="0"
         id="path886"
         d="m 62.234838,198.06473 c -11.339287,-12.89844 5.575147,-15.49702 5.811383,-3.30728"
         style="fill:none;stroke:#000000;stroke-width:0.26458332px;stroke-linecap:butt;stroke-linejoin:miter;stroke-opacity:1" />
      <path
         sodipodi:nodetypes="cc"
         inkscape:connector-curvature="0"
         id="path926"
         d="m 152.76013,50.181548 c -6.2366,37.608629 2.64584,57.641372 2.64584,57.641372"
         style="fill:none;stroke:#000000;stroke-width:0.26458332px;stroke-linecap:butt;stroke-linejoin:miter;stroke-opacity:1" />
      <path
         sodipodi:nodetypes="ccccc"
         inkscape:connector-curvature="0"
         id="path928"
         d="m 177.1396,138.06101 c 4.44122,1.7009 7.65401,0.0945 7.65401,0.0945 0,0 0.66064,2.22346 -4.06323,8.032 10.7805,-6.10648 12.28422,-9.6384 12.28422,-9.6384 5.81117,0.6518 13.60714,-7.37054 13.60714,-7.37054"
         style="fill:none;stroke:#000000;stroke-width:0.26458332px;stroke-linecap:butt;stroke-linejoin:miter;stroke-opacity:1" />
      <path
         inkscape:connector-curvature="0"
         id="path930"
         d="m 64.502694,50.748513 c 3.023809,36.474704 -3.401785,56.129467 -3.401785,56.129467"
         style="fill:none;stroke:#000000;stroke-width:0.26458332px;stroke-linecap:butt;stroke-linejoin:miter;stroke-opacity:1" />
      <path
         sodipodi:nodetypes="ccccc"
         inkscape:connector-curvature="0"
         id="path932"
         d="m 40.113791,132.98694 c -1.002262,1.80406 -5.345392,3.94221 -5.345392,3.94221 0,0 -0.577882,1.59726 4.810853,6.74856 -5.545662,-1.14684 -8.68626,-4.81085 -8.68626,-4.81085 -11.294318,5.4801 -21.5820141,-0.26727 -21.5820141,-0.26727"
         style="fill:none;stroke:#000000;stroke-width:0.26458332px;stroke-linecap:butt;stroke-linejoin:miter;stroke-opacity:1" />
      <path
         sodipodi:nodetypes="ccccc"
         inkscape:connector-curvature="0"
         id="path1063"
         d="m 79.838687,180.01605 c -1.391213,-0.4604 -2.632287,-0.95358 -3.582964,-1.47066 0.902684,2.56648 1.968029,5.01206 3.221736,7.30225 l 1.478795,-1.06175 c -0.943448,-1.4293 -1.309818,-3.06086 -1.117567,-4.76984 z"
         style="fill:#00ffff;fill-opacity:1;fill-rule:evenodd;stroke:#000000;stroke-width:0.26458332" />
      <path
         inkscape:connector-curvature="0"
         id="path1093"
         d="m 61.276812,202.84259 -2.675439,1.97628"
         style="fill:none;stroke:#000000;stroke-width:0.26458332px;stroke-linecap:butt;stroke-linejoin:miter;stroke-opacity:1" />
      <path
         sodipodi:nodetypes="cccccc"
         inkscape:connector-curvature="0"
         id="path1105"
         d="m 84.391488,187.67897 c -0.598452,-0.25722 -1.140622,-0.55407 -1.626708,-0.88513 l -2.089388,1.54338 c 4.67094,6.99506 11.776258,12.51613 21.609938,14.65962 -1.73486,-6.29892 -3.367029,-11.74625 -5.268458,-15.76939 -4.217177,1.71689 -9.089411,1.97133 -12.625384,0.45152 z"
         style="fill:#00ffff;fill-opacity:1;fill-rule:evenodd;stroke:#000000;stroke-width:0.26458332" />
      <g
         transform="translate(-29.991352,91.848217)"
         id="g1538">
        <g
           id="g1474"
           transform="translate(-10)">
          <path
             inkscape:connector-curvature="0"
             id="path1312"
             style="fill:#000000;fill-opacity:1;fill-rule:nonzero;stroke:none;stroke-width:0.35277775"
             d="m 231.72713,-36.621925 c 0.58815,0.826044 1.18997,1.147967 2.08587,1.147967 0.3361,0 0.65801,-0.02784 1.0923,-0.09768 -0.042,1.385859 -0.042,1.385859 -0.0704,2.016041 -0.0136,0.265718 -0.0136,0.475769 -0.0278,0.672185 -1.232,0.601816 -1.70779,0.90955 -2.2261,1.441525 -0.2799,0.280418 -0.42011,0.560326 -0.42011,0.784042 0,0.238417 0.15438,0.448468 0.46213,0.588152 0.23789,0.112383 0.64434,0.392291 0.9379,0.630182 0.85441,0.755677 0.85441,0.755677 1.0503,0.755677 0.23788,0 0.50413,-0.195876 0.67218,-0.517785 0.12551,-0.223716 0.1817,-0.489959 0.1817,-0.826058 0,-0.111858 0,-0.265718 -0.0142,-0.531975 -0.0136,-0.420117 -0.0136,-0.420117 -0.0136,-1.904169 1.35803,-0.658008 2.6877,-1.007758 3.79417,-1.007758 1.34385,0 2.07171,0.588167 2.07171,1.665766 0,1.120127 -0.72786,1.918345 -1.74978,1.918345 -0.50415,0 -0.93792,-0.168035 -1.33021,-0.53196 -0.29407,-0.280433 -0.50414,-0.573991 -0.84022,-1.218349 l -0.20964,0.07038 c 0.48996,1.623735 1.41368,2.477634 2.70187,2.477634 1.34385,0 2.39415,-1.06395 2.39415,-2.435633 0,-1.484052 -1.20416,-2.394142 -3.122,-2.394142 -1.13431,0 -2.14207,0.210065 -3.71016,0.769866 0.0136,-0.840234 0.042,-1.456226 0.0557,-1.834327 0.0284,-0.503623 0.0284,-0.503623 0.042,-0.700025 0.7562,-0.167524 1.41421,-0.39175 2.04439,-0.685834 0.50413,-0.237891 0.62964,-0.349749 0.62964,-0.54615 0,-0.125508 -0.0977,-0.251542 -0.23789,-0.307734 -0.16805,-0.06984 -0.40593,-0.126033 -0.53198,-0.126033 -0.084,0 -0.2237,0.05619 -0.33608,0.140209 -0.44796,0.377575 -0.78404,0.559801 -1.52607,0.811868 0.0704,-1.021934 0.21005,-1.679928 0.43429,-2.086394 0.15386,-0.279908 0.15386,-0.279908 0.15386,-0.363926 0,-0.153874 -0.12603,-0.349749 -0.30773,-0.447957 -0.3781,-0.210051 -0.96627,-0.349735 -1.44205,-0.349735 -0.29408,0 -0.40645,0.042 -0.60234,0.195876 0.96627,0.168049 1.13431,0.462118 1.13431,1.932009 0,0.252067 0,0.882235 -0.0142,1.288177 -0.64383,0.139698 -1.00828,0.181699 -1.40003,0.181699 -0.61601,0 -1.10597,-0.210051 -1.66629,-0.713674 l -0.13969,0.139698 z m 3.03796,4.480011 c 0,0.08402 -0.0278,0.770392 -0.0982,2.030217 -0.0136,0.252067 -0.084,0.350261 -0.25154,0.350261 -0.18223,0 -0.56033,-0.09819 -0.86806,-0.224227 -0.3781,-0.139698 -0.56033,-0.294083 -0.56033,-0.433767 0,-0.1544 0.14021,-0.378116 0.42012,-0.672199 0.35026,-0.378101 0.70001,-0.643818 1.35802,-1.050285 z m 4.8723,-5.838044 c 0.46213,0.126034 0.68584,0.210066 0.96574,0.363925 0.4343,0.252067 0.65801,0.476309 0.88225,0.868074 -0.19589,0.168035 -0.68585,0.462119 -1.52608,0.896411 l 0.084,0.139699 c 1.1758,-0.307734 1.5119,-0.378101 1.72195,-0.378101 0.042,0 0.0982,0 0.29408,0.02835 0.11186,0.02783 0.18223,0.02783 0.21007,0.02783 0.25206,0 0.42011,-0.153859 0.42011,-0.405927 0,-0.434292 -0.36394,-0.8959 -0.98046,-1.231999 -0.57397,-0.308259 -1.20363,-0.462118 -2.05751,-0.504134 l -0.0142,0.195875" />
          <path
             inkscape:connector-curvature="0"
             id="path1314"
             style="fill:#000000;fill-opacity:1;fill-rule:nonzero;stroke:none;stroke-width:0.35277775"
             d="m 237.25743,-17.936569 c 0.0278,-1.175968 0.47578,-1.932009 1.5119,-2.604048 0.96574,-0.630007 0.96574,-0.630007 1.25981,-0.938062 0.42012,-0.433986 0.61601,-0.93796 0.61601,-1.596026 0,-1.511995 -1.18998,-2.407837 -3.19183,-2.407837 -0.8959,0 -1.63793,0.167524 -2.26811,0.531975 -0.74203,0.433869 -1.21834,1.203838 -1.21834,1.973909 0,0.406043 0.25207,0.588006 0.79822,0.588006 0.47631,0 0.63018,-0.139947 0.63018,-0.602021 0.0136,-0.574035 0.0698,-0.896003 0.2237,-1.232044 0.28044,-0.588006 0.86808,-0.8959 1.69412,-0.8959 0.61601,0 1.07813,0.16805 1.4284,0.503931 0.36393,0.363968 0.5598,0.881972 0.5598,1.456065 0,0.461973 -0.11186,0.895959 -0.35026,1.302002 -0.16752,0.294025 -0.1817,0.307938 -0.93791,1.049964 -0.70003,0.672038 -1.09178,1.33009 -1.20364,1.974127 -0.0562,0.252024 -0.0562,0.433986 -0.0562,0.895959 z m -0.22423,1.106112 c -0.53198,0 -0.93792,0.405985 -0.93792,0.938018 0,0.53196 0.40594,0.938062 0.93792,0.938062 0.53197,0 0.9379,-0.406102 0.9379,-0.938062 0,-0.532033 -0.40593,-0.938018 -0.9379,-0.938018" />
        </g>
        <g
           id="g1481">
          <path
             inkscape:connector-curvature="0"
             id="path1316"
             style="fill:#000000;fill-opacity:1;fill-rule:nonzero;stroke:none;stroke-width:0.35277775"
             d="m 206.12103,-33.429565 c 0.8124,-0.798232 1.24618,-1.316017 1.90419,-2.282284 v 3.304218 c -0.0278,3.275852 -0.0278,3.275852 -0.0699,4.340327 v 0.02783 c 0,0.139684 0.042,0.1817 0.21007,0.1817 0.26571,0 0.62964,-0.02783 0.71367,-0.06984 0.084,-0.02784 0.12604,-0.08403 0.12604,-0.1817 0,0 0,-0.01416 0,-0.02837 -0.0279,-0.755676 -0.0279,-0.755676 -0.042,-1.665752 0,-1.105966 0,-1.105966 -0.0278,-2.604193 v -3.19236 c 0.32191,-0.111858 0.50414,-0.223716 0.50414,-0.321924 0,-0.08402 -0.0562,-0.09767 -1.07813,-0.321909 0.63019,-1.021934 1.04978,-1.862168 1.76396,-3.527934 0.58817,-0.09819 0.7142,-0.153859 0.7142,-0.279893 0,-0.126034 -0.29408,-0.224242 -1.72247,-0.560326 -0.0977,0.672184 -0.41959,1.721943 -0.88172,2.898276 -0.58817,1.484053 -1.34384,2.869911 -2.28229,4.172278 z m 10.59849,-5.376451 v 9.534553 c 0,0.126034 -0.0698,0.168035 -0.27991,0.1817 -0.658,0 -0.658,0 -2.6462,-0.08351 l -0.0142,0.1817 c 0.16805,0.02784 0.3361,0.06984 0.50414,0.09821 l 0.51832,0.09767 c 0.44795,0.08403 0.76987,0.168049 0.91008,0.224241 0.22371,0.111858 0.27991,0.210066 0.40594,0.685849 0.62964,-0.08403 0.9379,-0.19589 1.24564,-0.405941 0.28043,-0.195876 0.37811,-0.392291 0.37811,-0.742026 0,-0.01416 0,-0.05619 0,-0.09821 -0.0142,-0.629657 -0.0142,-0.629657 -0.0278,-1.329667 -0.042,-1.162143 -0.042,-1.189984 -0.042,-2.31011 v -6.03446 h 1.34384 c 0.084,0 0.16805,-0.05565 0.16805,-0.111844 0,-0.02784 -0.0278,-0.06986 -0.084,-0.126033 -0.51779,-0.531975 -0.67166,-0.685849 -1.20416,-1.162158 -0.39175,0.462133 -0.50361,0.602343 -0.86806,1.078126 h -5.41793 c -0.23789,0 -0.61599,-0.04202 -1.23198,-0.126034 l 0.084,0.531975 c 0.53197,-0.06984 0.79821,-0.08403 1.14796,-0.08403 h 5.1102 z m -5.11019,6.720294 h 2.42197 v 0.601817 c 0,0.140209 0.042,0.168049 0.26625,0.168049 0.53196,0 0.71366,-0.05567 0.71366,-0.237891 -0.042,-1.120142 -0.042,-1.623751 -0.042,-2.67405 v -1.623751 c 0.0982,-0.07037 0.16805,-0.112369 0.22423,-0.154385 0.0562,-0.04202 0.11186,-0.08402 0.15387,-0.111858 0.042,-0.02782 0.0704,-0.08402 0.0704,-0.126033 0,-0.04202 -0.042,-0.09768 -0.16805,-0.195876 -0.33608,-0.266257 -0.44794,-0.336099 -0.81239,-0.588166 -0.19588,0.252067 -0.25207,0.321909 -0.41959,0.588166 h -2.40832 c -0.40594,-0.266257 -0.53198,-0.336099 -0.95209,-0.588166 0.0142,0.784042 0.0278,1.301841 0.0278,1.511892 0,3.766337 0,3.766337 -0.0278,4.550379 0,0.01416 0,0.02784 0,0.04202 0,0.126033 0.0562,0.168049 0.22424,0.168049 0.16805,0 0.5178,-0.02782 0.58764,-0.05619 0.0982,-0.02783 0.14021,-0.08402 0.14021,-0.210051 z m 0,-4.032069 h 2.42197 v 3.71016 h -2.42197 v -3.71016" />
          <path
             inkscape:connector-curvature="0"
             id="path1318"
             style="fill:#000000;fill-opacity:1;fill-rule:nonzero;stroke:none;stroke-width:0.35277775"
             d="m 214.15733,-18.440558 h 1.31602 v 0.518004 c 0.0142,0.154035 0.0704,0.182021 0.32191,0.182021 0.58816,0 0.72839,-0.04202 0.72839,-0.251965 -0.042,-1.022094 -0.0562,-3.066122 -0.0562,-5.586181 v -1.554113 c 0.3781,-0.224242 0.44794,-0.279908 0.44794,-0.378116 0,-0.05567 -0.042,-0.126033 -0.16805,-0.237891 -0.33609,-0.279893 -0.44794,-0.378101 -0.78404,-0.630168 -0.2799,0.252067 -0.36393,0.350275 -0.616,0.644358 h -5.51612 c -0.48997,-0.363925 -0.64383,-0.462133 -1.1758,-0.742041 0.0698,0.826059 0.084,1.553909 0.084,3.597981 0,1.876095 -0.0284,3.024106 -0.0982,4.956115 0,0.182021 0.042,0.210007 0.33608,0.210007 0.63019,0 0.74205,-0.04196 0.74205,-0.279951 v -0.44806 h 1.12012 c -0.16805,1.470096 -0.96627,2.646108 -2.33795,3.472166 -0.68636,0.42 -1.23251,0.615934 -2.33846,0.896002 l 0.0562,0.252009 c 0.7562,-0.112004 1.07811,-0.182006 1.49823,-0.28001 1.25982,-0.335982 2.18357,-0.853986 2.86993,-1.59607 0.67218,-0.713982 1.09177,-1.652 1.24617,-2.744097 h 1.34384 v 2.058102 c 0,0.07 0,0.321967 -0.0142,0.658008 0,0.112019 0,0.32207 0,0.56002 0,0.01402 0,0.042 0,0.042 0,0.741983 0.30826,0.938019 1.40004,0.938019 0.12603,0 0.67218,0 1.30236,0.01402 0.084,0 0.19588,0 0.23789,0 1.09178,0 1.91782,-0.04196 2.25392,-0.112019 0.3361,-0.07 0.54615,-0.251965 0.54615,-0.461972 0,-0.196036 -0.0698,-0.26598 -0.32191,-0.350013 -0.16805,-0.05597 -0.21006,-0.13999 -0.21006,-0.336026 0,-0.01387 0,-0.08393 0,-0.139961 l 0.0982,-2.282124 -0.18223,-0.02799 c -0.44796,1.750047 -0.58817,2.31011 -0.67218,2.534089 -0.11186,0.280053 -0.29409,0.363983 -0.81189,0.363983 -0.0142,0 -0.0562,0 -0.0982,0 -0.15387,0 -0.43378,0 -0.81188,0.01402 -0.0698,0 -0.16805,0 -0.19588,0 -0.96626,0 -1.37221,-0.028 -1.48406,-0.098 -0.0562,-0.042 -0.0562,-0.07005 -0.0562,-0.335983 v -3.038179 z m 1.31602,-5.012146 h -5.75401 V -25.4127 h 5.75401 z m 0,0.322026 v 1.960054 h -5.75401 v -1.960054 z m 0,2.282124 v 2.086029 h -5.75401 v -2.086029 h 5.75401" />
          <path
             inkscape:connector-curvature="0"
             id="path1320"
             style="fill:#000000;fill-opacity:1;fill-rule:nonzero;stroke:none;stroke-width:0.35277775"
             d="m 207.05948,-10.031562 c -0.12605,0.1679474 -0.1544,0.2519654 -0.1544,0.3639844 0,0.224022 0.14021,0.602021 0.36392,0.938062 0.32244,0.503988 0.74203,0.825999 1.07813,0.825999 0.18222,0 0.28043,-0.02804 0.56032,-0.195977 0.44796,-0.238052 1.35804,-0.615993 2.23975,-0.896061 1.59592,-0.518004 2.74441,-0.784042 4.01841,-0.966005 -1.16214,0.602036 -1.72248,0.980035 -2.28228,1.596027 -0.96574,1.036007 -1.52607,2.282066 -1.52607,3.416178 0,1.301988 0.56033,2.380011 1.62428,3.136008 0.78404,0.56002 2.04386,1.00802103 2.84208,1.00802103 0.30774,0 0.51779,-0.153933 0.51779,-0.39197003 0,-0.16805 -0.16804,-0.420015 -0.42011,-0.672038 -0.20954,-0.182007 -0.30774,-0.224023 -0.58764,-0.224023 -0.40594,-0.01402 -0.96626,-0.139946 -1.4284,-0.335982 -1.20416,-0.518004 -1.84799,-1.470096 -1.84799,-2.758068 0,-2.352068 2.31013,-4.634191 4.70425,-4.634191 0.14023,0 0.21007,0 0.39177,0.02799 0.0982,0.01401 0.1964,0.01401 0.25207,0.01401 0.26625,0 0.43429,-0.139947 0.43429,-0.3500124 0,-0.19592 -0.12603,-0.349954 -0.40593,-0.531961 -0.28043,-0.168049 -0.58816,-0.293981 -0.75621,-0.293981 -0.11186,0 -0.21005,0.02794 -0.48996,0.11196 -0.42012,0.140005 -0.82606,0.237994 -1.89,0.44806 -0.92426,0.181963 -1.67994,0.349954 -2.2681,0.4899004 -3.13617,0.756056 -3.48592,0.826059 -3.8782,0.826059 -0.27991,0 -0.43378,-0.05599 -0.63018,-0.23795 -0.22372,-0.196037 -0.33609,-0.378043 -0.46159,-0.7140404" />
          <path
             inkscape:connector-curvature="0"
             id="path1322"
             style="fill:#000000;fill-opacity:1;fill-rule:nonzero;stroke:none;stroke-width:0.35277775"
             d="m 218.30178,8.2477074 c -0.88225,2.2540196 -2.50652,3.8640616 -3.90656,3.8640616 -0.53197,0 -0.82604,-0.336041 -0.95209,-1.09198 -0.20953,-1.3021036 -0.25154,-1.5121106 -0.44794,-1.8901096 -0.32191,-0.602021 -0.88173,-0.938062 -1.58174,-0.938062 -0.74204,0 -1.51241,0.434088 -2.42196,1.37215 h -0.0284 c 0.42012,-0.756055 0.56033,-0.994093 1.13432,-1.960098 0.48996,-0.826058 0.82605,-1.414064 1.03611,-1.76412 0.58764,-1.007918 1.04977,-1.750047 1.24565,-1.987997 0.22422,-0.280053 0.25206,-0.335982 0.25206,-0.532018 0,-0.210008 -0.12603,-0.378057 -0.47578,-0.616007 -0.54615,-0.392014 -1.10595,-0.630066 -1.4284,-0.630066 -0.12551,0 -0.23789,0.04202 -0.39175,0.126034 0.72785,0.350012 0.95209,0.588006 0.95209,1.036007 0,0.420014 -0.40594,1.428079 -1.28819,3.150139 -1.33019,2.632034 -2.22609,4.2280456 -2.80007,5.0120876 -0.15387,0.210066 -0.19588,0.308055 -0.19588,0.476105 0,0.167933 0.084,0.503974 0.1817,0.769968 0.0982,0.238052 0.23842,0.378057 0.3781,0.378057 0.21006,0 0.25207,-0.07 0.50414,-0.784042 0.79822,-2.226049 2.05804,-3.6261406 3.2622,-3.6261406 0.46213,0 0.79823,0.224037 0.95209,0.672038 0.11186,0.280053 0.16805,0.61605 0.25207,1.5120956 0.0977,1.147968 0.22372,1.568041 0.61601,1.890008 0.30773,0.252009 0.76985,0.405984 1.20363,0.405984 0.96627,0 2.0302,-0.629962 2.80007,-1.666028 0.64436,-0.868016 1.07812,-1.8480936 1.37221,-3.1221376 l -0.22372,-0.05593" />
          <path
             inkscape:connector-curvature="0"
             id="path1324"
             style="fill:#000000;fill-opacity:1;fill-rule:nonzero;stroke:none;stroke-width:0.35277775"
             d="m 206.79322,19.190735 c 0.5178,0.896004 1.06395,1.260034 1.91783,1.260034 0.40594,0 0.8124,-0.04201 1.34437,-0.140003 -0.91008,2.632044 -1.54024,4.088094 -2.19825,5.012104 -0.29409,0.420037 -0.30774,0.462049 -0.30774,0.686055 0,0.238038 0.084,0.587998 0.19588,0.812008 0.084,0.19602 0.1817,0.28005 0.32191,0.28005 0.29408,0 0.47631,-0.35004 1.03611,-2.016067 0.5178,-1.526042 0.99411,-2.982092 1.45624,-4.368161 0.0136,-0.04201 0.0835,-0.238047 0.1817,-0.532024 0.88223,-0.224027 1.82015,-0.532025 2.45032,-0.826054 0.58764,-0.251965 0.81188,-0.43398 0.81188,-0.672028 0,-0.111961 -0.0698,-0.195932 -0.22424,-0.251965 -0.22372,-0.08402 -0.5598,-0.154026 -0.74203,-0.154026 -0.11185,0 -0.16805,0.02799 -0.39176,0.23805 -0.30826,0.279954 -0.91008,0.602026 -1.62428,0.854043 0.32245,-0.910076 0.65801,-1.73613 0.84024,-2.002065 0.16805,-0.238047 0.16805,-0.238047 0.16805,-0.335987 0,-0.210058 -0.21007,-0.406096 -0.63017,-0.560015 -0.42012,-0.168047 -0.88173,-0.266038 -1.20416,-0.266038 -0.1817,0 -0.25208,0.02799 -0.43378,0.125929 0.78404,0.266039 0.9941,0.448054 0.9941,0.868066 0,0.490013 -0.19587,1.470091 -0.4763,2.380063 -0.64384,0.182017 -1.23199,0.266038 -1.77763,0.266038 -0.60234,0 -0.96627,-0.182015 -1.54024,-0.770019 z m 6.21614,2.310062 c 0.85389,-0.322071 1.79233,-0.518003 2.5622,-0.518003 0.0278,0 0.0698,0 0.11185,0 -0.37811,0.378 -0.58816,0.573985 -0.68585,0.658008 l -0.46211,0.420011 c -0.0278,0.02799 -0.0982,0.09799 -0.21007,0.209953 l 0.084,0.126035 c 0.15387,-0.08402 0.25208,-0.139951 0.27991,-0.168047 l 0.51832,-0.335988 c 0.0977,-0.07 0.26572,-0.16794 0.46212,-0.266039 0.40594,-0.223974 0.55981,-0.265933 1.0776,-0.279954 0.40594,-0.02799 0.53197,-0.09794 0.53197,-0.335988 0,-0.154025 -0.084,-0.308051 -0.22371,-0.392074 -0.22423,-0.153919 -0.58815,-0.251965 -0.88224,-0.251965 -1.09177,0 -2.23974,0.335988 -3.24802,0.952036 z m -0.67218,2.366028 c -0.0977,0.336009 -0.12603,0.574046 -0.12603,0.882076 0,0.938042 0.43429,1.666022 1.18998,2.030022 0.61652,0.29399 1.51242,0.44801 2.59054,0.44801 1.10595,0 1.6521,-0.15402 1.6521,-0.46196 0,-0.12604 -0.084,-0.25207 -0.25206,-0.39206 -0.23842,-0.181993 -0.56033,-0.336009 -0.7142,-0.336009 -0.0562,0 -0.14021,0.01403 -0.2379,0.05604 -0.44794,0.167963 -0.76986,0.209979 -1.34436,0.209979 -0.54563,0 -1.11962,-0.09797 -1.49772,-0.266023 -0.68636,-0.293997 -1.06395,-0.896029 -1.06395,-1.694002 0,-0.05604 0,-0.224007 0.0137,-0.434065 l -0.21006,-0.04201 z m 2.84208,-7.392141 c 0.3781,0.363978 0.82606,0.979973 1.07813,1.469987 0.43429,0.910025 0.43429,0.910025 0.61599,0.910025 0.23789,0 0.43431,-0.251965 0.43431,-0.587953 0,-0.336041 -0.19642,-0.658113 -0.70003,-1.120084 -0.35027,-0.307997 -0.72837,-0.574036 -1.24617,-0.868012 z m 1.48407,-0.812085 c 0.77039,0.741977 1.03611,1.106062 1.52607,1.988043 0.11238,0.196036 0.1964,0.266039 0.32191,0.266039 0.21006,0 0.35027,-0.238048 0.35027,-0.574037 0,-0.378052 -0.18222,-0.672029 -0.7142,-1.078018 -0.43376,-0.322019 -0.83969,-0.573984 -1.34384,-0.798011 l -0.14021,0.195984" />
        </g>
        <g
           id="g1503"
           transform="translate(10)">
          <path
             inkscape:connector-curvature="0"
             id="path1326"
             style="fill:#000000;fill-opacity:1;fill-rule:nonzero;stroke:none;stroke-width:0.35277775"
             d="m 184.05232,-37.671699 c -0.0562,0.111858 -0.0704,0.1817 -0.0704,0.237892 0,0.195875 0.14021,0.531974 0.35028,0.853883 0.3361,0.50415 0.64383,0.756217 0.92372,0.756217 0.0982,0 0.18223,-0.01416 0.26626,-0.04202 0.99409,-0.321909 1.87634,-0.517785 2.8841,-0.658009 0.57398,-0.06984 1.63793,-0.168035 1.87582,-0.168035 0.29408,0 0.39227,0.05618 0.39227,0.252067 0,0.1817 -0.12603,1.539719 -0.19587,2.114235 -0.1544,1.316017 -0.23842,1.889993 -0.3781,2.561652 -1.16216,0.07037 -1.17633,0.07037 -2.39414,0.196416 -0.86806,0.08349 -1.52607,0.153859 -1.9882,0.195875 -0.25207,0.02783 -0.58817,0.05567 -0.72786,0.05567 -0.50413,0 -0.85388,-0.237891 -1.30184,-0.853884 -0.0562,0.126034 -0.0704,0.182226 -0.0704,0.252068 0,0.573976 0.84023,1.637926 1.30236,1.637926 0.0698,0 0.19588,-0.02784 0.2799,-0.06984 0.7977,-0.378116 2.8841,-0.714201 4.50785,-0.714201 0.44848,0 0.86807,0.02835 1.23252,0.09819 0.2799,0.04202 0.2799,0.04202 0.36393,0.04202 0.19587,0 0.30773,-0.08402 0.30773,-0.224242 0,-0.195875 -0.11186,-0.349735 -0.48996,-0.671658 -0.0278,-0.01416 -0.0699,-0.05619 -0.12605,-0.09819 0.70003,-3.71016 0.75622,-3.933876 1.00829,-4.185943 0.0977,-0.09819 0.1397,-0.154385 0.1397,-0.252067 0,-0.153859 -0.16805,-0.378101 -0.50415,-0.672184 -0.34975,-0.321909 -0.67166,-0.517799 -0.81187,-0.517799 -0.0557,0 -0.1397,0.02784 -0.26573,0.08403 -0.32244,0.139683 -0.32244,0.139683 -4.14444,0.587641 -0.42012,0.05618 -0.70002,0.07037 -0.97993,0.07037 -0.36393,0 -0.5598,-0.05619 -0.79822,-0.224241 -0.23789,-0.16805 -0.40594,-0.34975 -0.58764,-0.643833" />
          <path
             inkscape:connector-curvature="0"
             id="path1328"
             style="fill:#000000;fill-opacity:1;fill-rule:nonzero;stroke:none;stroke-width:0.35277775"
             d="m 184.82219,-25.286666 c 0.67218,1.04992 1.09177,1.315958 2.14207,1.315958 0.7562,0 1.90417,-0.112004 3.56994,-0.364027 0.40646,-0.05593 0.53197,-0.139947 0.53197,-0.307996 0,-0.28001 -0.70002,-0.769969 -1.09178,-0.769969 -0.11185,0 -0.18222,0.02783 -0.29408,0.08402 -0.53197,0.307733 -2.22609,0.671979 -3.16401,0.671979 -0.60234,0 -1.02193,-0.209846 -1.49824,-0.755997 z m 0.50413,10.878279 c 2.31012,-1.02208 4.56404,-3.29013 6.07594,-6.146186 0.23789,-0.462031 0.32192,-0.588065 0.51832,-0.72807 0.13968,-0.125931 0.21005,-0.237935 0.21005,-0.349954 0,-0.182064 -0.16805,-0.406101 -0.56033,-0.77007 -0.3219,-0.279966 -0.53197,-0.419957 -0.658,-0.419957 -0.0557,0 -0.12604,0.02799 -0.22372,0.08396 -0.28042,0.16805 -0.39228,0.195993 -1.14849,0.322026 -1.81963,0.307938 -4.18593,0.601978 -4.73208,0.601978 -0.5178,0 -0.8959,-0.252024 -1.21781,-0.812043 -0.0699,0.0981 -0.084,0.140005 -0.084,0.238052 0,0.615992 0.79822,1.624013 1.28819,1.624013 0.13968,0 0.19587,-0.01387 0.41959,-0.125932 0.29407,-0.140048 0.5745,-0.224022 1.45623,-0.434088 1.45622,-0.349954 2.71605,-0.54599 4.07407,-0.643935 -0.3781,1.302002 -1.21781,2.82807 -2.35213,4.270077 -0.92373,1.190027 -1.80598,2.058087 -3.19183,3.12208 l 0.12603,0.16805" />
        </g>
      </g>
      <g
         transform="translate(-115.03599,94.494047)"
         id="g1558">
        <g
           id="g1509">
          <path
             inkscape:connector-curvature="0"
             id="path1330"
             style="fill:#000000;fill-opacity:1;fill-rule:nonzero;stroke:none;stroke-width:0.35277775"
             d="m 164.70438,-32.435472 h 1.31602 v 0.5178 c 0.0142,0.153859 0.0704,0.182225 0.32193,0.182225 0.58815,0 0.72837,-0.04202 0.72837,-0.252067 -0.042,-1.021934 -0.0562,-3.066327 -0.0562,-5.586503 v -1.553908 c 0.3781,-0.224242 0.44794,-0.279908 0.44794,-0.378101 0,-0.05567 -0.042,-0.126034 -0.16805,-0.237892 -0.33608,-0.279907 -0.44794,-0.378101 -0.78404,-0.630182 -0.27989,0.252081 -0.36392,0.350275 -0.61599,0.644358 h -5.51612 c -0.48998,-0.363925 -0.64383,-0.462133 -1.17581,-0.742026 0.0698,0.826058 0.084,1.553908 0.084,3.597776 0,1.876343 -0.0284,3.02431 -0.0982,4.95632 0,0.182225 0.042,0.210051 0.33609,0.210051 0.63018,0 0.74204,-0.04202 0.74204,-0.279893 v -0.447958 h 1.12013 c -0.16804,1.469877 -0.96627,2.645684 -2.3382,3.471743 -0.68606,0.420116 -1.23205,0.615992 -2.33805,0.896425 l 0.056,0.251542 c 0.75605,-0.111858 1.07802,-0.1817 1.49804,-0.279908 1.26007,-0.336085 2.18381,-0.853884 2.87017,-1.59591 0.67218,-0.7142 1.09178,-1.652116 1.24617,-2.743892 h 1.34385 v 2.058043 c 0,0.06984 0,0.321924 -0.0142,0.658009 0,0.111858 0,0.321923 0,0.5598 0,0.01416 0,0.04202 0,0.04202 0,0.742026 0.30826,0.937916 1.40003,0.937916 0.12603,0 0.67218,0 1.30237,0.01416 0.084,0 0.19587,0 0.23789,0 1.09177,0 1.91782,-0.04202 2.25392,-0.111858 0.3361,-0.07037 0.54615,-0.252067 0.54615,-0.462133 0,-0.195876 -0.0698,-0.266243 -0.32191,-0.350261 -0.16805,-0.05567 -0.21007,-0.139698 -0.21007,-0.335574 0,-0.01416 0,-0.08402 0,-0.140209 l 0.0982,-2.282284 -0.18222,-0.02784 c -0.44796,1.75031 -0.58817,2.310125 -0.67219,2.534352 -0.11186,0.279908 -0.29408,0.363925 -0.81188,0.363925 -0.0142,0 -0.0562,0 -0.0982,0 -0.15388,0 -0.43379,0 -0.81189,0.01372 -0.0698,0 -0.16805,0 -0.19587,0 -0.96627,0 -1.37221,-0.02784 -1.48407,-0.09768 -0.0562,-0.04202 -0.0562,-0.07037 -0.0562,-0.336085 v -3.037975 z m 1.31602,-5.012511 h -5.75401 v -1.95985 h 5.75401 z m 0,0.322435 v 1.959849 h -5.75401 v -1.959849 z m 0,2.281758 v 2.086409 h -5.75401 v -2.086409 h 5.75401" />
          <path
             inkscape:connector-curvature="0"
             id="path1332"
             style="fill:#000000;fill-opacity:1;fill-rule:nonzero;stroke:none;stroke-width:0.35277775"
             d="m 162.11437,-19.630585 c 0.23789,0.224023 0.25208,0.224023 0.4343,0.378057 0.58763,0.518004 0.58763,0.518004 0.67166,0.587992 0.2799,0.265994 0.4343,0.462031 0.48996,0.644052 0.084,0.279951 0.16805,0.349953 0.35028,0.349953 0.42011,0 0.8397,-0.448001 1.04976,-1.133996 0.12603,-0.420014 0.26625,-1.400092 0.40594,-2.884101 1.00828,-0.08403 1.59643,-0.126033 1.77813,-0.126033 0.16805,0 1.00829,0.02804 1.16216,0.042 0.12603,0.01402 0.23789,0.01402 0.30826,0.01402 0.19587,0 0.34975,-0.126033 0.34975,-0.280068 0,-0.153918 -0.084,-0.237935 -0.39177,-0.405985 -0.36445,-0.209949 -0.75621,-0.349954 -0.95209,-0.349954 -0.0982,0 -0.15438,0.01402 -0.43429,0.112004 -0.36393,0.125931 -0.65801,0.195934 -0.92373,0.251965 -0.63018,0.126048 -0.63018,0.126048 -0.82606,0.154035 0.12604,-1.092039 0.2379,-1.722061 0.34975,-2.044028 0.12604,-0.32207 0.12604,-0.32207 0.12604,-0.44806 0,-0.252228 -0.19588,-0.462279 -0.5598,-0.643978 -0.50415,-0.237892 -1.00829,-0.378101 -1.37221,-0.378101 -0.18223,0 -0.23789,0.02782 -0.3781,0.153859 0.29407,0.08403 0.47629,0.16805 0.71418,0.363925 0.34975,0.280433 0.46214,0.560283 0.46214,1.148289 0,0.644037 -0.0284,1.48411 -0.0704,1.988099 -1.59593,0.293966 -2.08588,0.392013 -3.80783,0.81197 0.0278,-0.167933 0.0278,-0.167933 0.084,-0.909974 0.0142,-0.182006 0.042,-0.42 0.0698,-0.532019 0.0698,-0.266038 0.0698,-0.266038 0.0698,-0.350056 0,-0.265936 -0.1817,-0.503988 -0.51778,-0.658008 -0.44796,-0.223979 -1.00828,-0.39197 -1.34384,-0.39197 -0.1544,0 -0.22425,0.02799 -0.36419,0.125975 0.71392,0.280068 1.02219,0.56002 1.10621,1.008021 0.0698,0.308055 0.12604,1.190027 0.13969,1.904067 -1.62392,0.448001 -2.01587,0.532033 -2.46393,0.532033 -0.50403,0 -0.88209,-0.210066 -1.20406,-0.672038 -0.014,0.08403 -0.028,0.154034 -0.028,0.210007 0,0.546049 0.88203,1.442109 1.42802,1.442109 0.11196,0 0.18196,-0.0281 0.36404,-0.126033 0.44804,-0.252024 1.13404,-0.532078 1.90391,-0.770027 0.0284,1.203998 0.042,1.666029 0.0704,2.086087 0.0835,1.133952 0.23789,1.76396 0.54563,2.184033 0.61601,0.868016 1.48406,1.148011 3.55628,1.148011 0.9521,0 2.1699,-0.112004 2.47818,-0.237994 0.16803,-0.05603 0.25207,-0.168035 0.25207,-0.335982 0,-0.280054 -0.56035,-0.71404 -0.92427,-0.71404 -0.084,0 -0.0977,0 -0.36393,0.09799 -0.63016,0.195992 -1.58226,0.335997 -2.37995,0.335997 -0.97992,0 -1.51242,-0.098 -1.87634,-0.363983 -0.53198,-0.363984 -0.67166,-0.952092 -0.67166,-2.758068 0,-0.588006 0.0136,-1.008064 0.0557,-1.694118 1.21833,-0.405985 2.39412,-0.672023 3.76633,-0.839971 -0.19587,1.904082 -0.39229,2.82807 -0.63017,2.82807 -0.14022,0 -0.63018,-0.251965 -1.94619,-0.993991 l -0.11186,0.139947" />
          <path
             inkscape:connector-curvature="0"
             id="path1334"
             style="fill:#000000;fill-opacity:1;fill-rule:nonzero;stroke:none;stroke-width:0.35277775"
             d="m 158.97832,-10.101565 c 0.26614,0.6439944 0.43419,0.9240044 0.72773,1.2320444 0.40647,0.405999 0.79823,0.658008 1.35856,0.867972 -0.67219,0.210051 -1.02246,0.405985 -1.35856,0.742026 -0.27989,0.294083 -0.43377,0.644037 -0.43377,0.966107 0,0.475987 0.23789,0.993991 0.61599,1.385961 0.29409,0.293981 0.574,0.46203 1.12015,0.714039 -0.0142,0.350013 -0.0278,0.532033 -0.0278,0.700025 0,1.218072 0.34974,2.058043 1.07759,2.60413503 0.4763,0.363983 1.17633,0.573932 1.90418,0.573932 1.94618,0 3.40241,-1.28797203 3.40241,-2.98209003 0,-1.42802 -0.88224,-2.590017 -2.95447,-3.864062 l -0.15386,0.182006 c 1.33019,1.022036 2.11424,2.338053 2.11424,3.500094 0,0.532033 -0.15388,1.008021 -0.46214,1.428035 -0.43376,0.588006 -1.25982,0.952034 -2.2119,0.952034 -1.41422,0 -2.21244,-0.798014 -2.21244,-2.226035 0,-0.182021 0.0142,-0.35007 0.042,-0.686111 0.50413,0.154034 1.0923,0.252067 1.48405,0.252067 0.29408,0 0.47631,-0.126034 0.47631,-0.322011 0,-0.322026 -0.47631,-0.755998 -0.84024,-0.755998 -0.0136,0 -0.0698,0 -0.15386,0.01402 -0.042,0.01402 -0.0698,0.01402 -0.11186,0.01402 -0.1402,0 -0.3781,-0.02799 -0.7142,-0.09805 0.11186,-0.825941 0.27991,-1.651999 0.55981,-2.590017 0.22424,0.04202 0.40646,0.06996 0.54615,0.06996 0.2799,0 0.44795,-0.11196 0.44795,-0.293981 0,-0.140005 -0.084,-0.335982 -0.19587,-0.462031 -0.14023,-0.15402 -0.26626,-0.224022 -0.55982,-0.30804 0.37758,-1.231941 0.53198,-1.6099984 0.76987,-1.9459804 0.13968,-0.16805 0.1817,-0.280069 0.1817,-0.406044 0,-0.307996 -0.27991,-0.700068 -0.72785,-1.00802 -0.42012,-0.280054 -0.78404,-0.43403 -1.03611,-0.43403 -0.084,0 -0.12603,0.01402 -0.23789,0.05603 0.5598,0.39197 0.7562,0.685951 0.7562,1.162041 0,0.335997 -0.042,0.546004 -0.43429,2.4920874 -0.72785,-0.140005 -1.14797,-0.29404 -1.63793,-0.60208 -0.40594,-0.265994 -0.63017,-0.504046 -0.96574,-1.0080204 l -0.15428,0.08402 z m 2.53423,2.5060014 c -0.22423,1.05008 -0.35026,1.848138 -0.42012,2.548104 -0.96626,-0.293967 -1.44203,-0.727953 -1.44203,-1.316061 0,-0.265936 0.0977,-0.475988 0.30773,-0.699966 0.33609,-0.336041 0.74203,-0.490061 1.55442,-0.532077" />
          <path
             inkscape:connector-curvature="0"
             id="path1336"
             style="fill:#000000;fill-opacity:1;fill-rule:nonzero;stroke:none;stroke-width:0.35277775"
             d="m 168.84884,8.2477074 c -0.88225,2.2540196 -2.50651,3.8640616 -3.90656,3.8640616 -0.53198,0 -0.82605,-0.336041 -0.95208,-1.09198 -0.20954,-1.3021036 -0.25156,-1.5121106 -0.44796,-1.8901096 -0.32191,-0.602021 -0.88172,-0.938062 -1.58173,-0.938062 -0.74203,0 -1.51242,0.434088 -2.42197,1.37215 h -0.0284 c 0.42012,-0.756055 0.56034,-0.994093 1.13432,-1.960098 0.48996,-0.826058 0.82606,-1.414064 1.03611,-1.76412 0.58764,-1.007918 1.04977,-1.750047 1.24565,-1.987997 0.22424,-0.280053 0.25207,-0.335982 0.25207,-0.532018 0,-0.210008 -0.12604,-0.378057 -0.47579,-0.616007 -0.54615,-0.392014 -1.10595,-0.630066 -1.4284,-0.630066 -0.1255,0 -0.23787,0.04202 -0.39175,0.126034 0.72785,0.350012 0.95209,0.588006 0.95209,1.036007 0,0.420014 -0.40594,1.428079 -1.28819,3.150139 -1.33019,2.632034 -2.22603,4.2280456 -2.80001,5.0120876 -0.15397,0.210066 -0.19599,0.308055 -0.19599,0.476105 0,0.167933 0.084,0.503974 0.18196,0.769968 0.0981,0.238052 0.23805,0.378057 0.37806,0.378057 0.20995,0 0.25196,-0.07 0.50403,-0.784042 0.79818,-2.226049 2.05799,-3.6261406 3.26215,-3.6261406 0.46213,0 0.79823,0.224037 0.95209,0.672038 0.11186,0.280053 0.16805,0.61605 0.25206,1.5120956 0.0977,1.147968 0.22372,1.568041 0.61601,1.890008 0.30773,0.252009 0.76985,0.405984 1.20363,0.405984 0.96627,0 2.03021,-0.629962 2.80007,-1.666028 0.64436,-0.868016 1.07813,-1.8480936 1.37221,-3.1221376 l -0.22371,-0.05593" />
        </g>
        <g
           id="g1516"
           transform="translate(10)">
          <path
             inkscape:connector-curvature="0"
             id="path1338"
             style="fill:#000000;fill-opacity:1;fill-rule:nonzero;stroke:none;stroke-width:0.35277775"
             d="m 142.4587,-31.399888 c -0.72805,0.616533 -1.13404,0.910076 -1.77809,1.260351 -1.064,0.559801 -2.24001,0.8959 -3.19204,0.8959 -0.49006,0 -0.93806,-0.139684 -1.24606,-0.378101 -0.39203,-0.321924 -0.56008,-0.826058 -0.56008,-1.679942 0,-1.652102 0.46208,-5.894236 0.72812,-6.733944 0.11197,-0.322435 0.12604,-0.392277 0.12604,-0.504135 0,-0.294083 -0.28006,-0.573991 -0.81214,-0.826058 -0.43399,-0.195875 -0.9379,-0.321909 -1.25999,-0.321909 -0.15402,0 -0.23799,0.02783 -0.39197,0.139684 0.99401,0.420117 1.13396,0.658008 1.13396,1.862167 0,0.504135 -0.0139,0.8959 -0.098,2.421968 -0.07,1.260351 -0.112,2.604194 -0.112,3.37406 0,1.189984 0.112,1.876343 0.39197,2.366302 0.42,0.756217 1.26008,1.189984 2.32408,1.189984 1.1341,0 2.38007,-0.504135 3.48618,-1.385859 0.56,-0.462119 0.93796,-0.85441 1.42798,-1.526068 z m -3.20605,-7.042188 c 0.37799,0.36445 0.81197,0.980443 1.06399,1.470402 0.448,0.910075 0.448,0.910075 0.63001,0.910075 0.23801,0 0.43404,-0.252067 0.43404,-0.588166 0,-0.336085 -0.19603,-0.658009 -0.70008,-1.105952 -0.34996,-0.321909 -0.72795,-0.588166 -1.246,-0.868074 z m 1.46997,-0.811883 c 0.77008,0.756216 1.03611,1.120142 1.52603,2.002377 0.11202,0.195875 0.19603,0.265732 0.32207,0.265732 0.21001,0 0.34995,-0.237892 0.34995,-0.573991 0,-0.391751 -0.18196,-0.672184 -0.71394,-1.078125 -0.43407,-0.336085 -0.84007,-0.573977 -1.34404,-0.797693 l -0.14007,0.1817" />
          <path
             inkscape:connector-curvature="0"
             id="path1340"
             style="fill:#000000;fill-opacity:1;fill-rule:nonzero;stroke:none;stroke-width:0.35277775"
             d="m 139.74265,-25.048775 c 0.588,0.44806 0.83997,0.742026 0.97997,1.106112 -0.22402,0.02799 -0.30793,0.02799 -0.50397,0.02799 -0.43404,0 -1.59603,-0.02799 -2.11403,-0.05603 -0.26604,-0.09799 -0.35006,-0.125975 -0.448,-0.125975 -0.39207,0 -0.95209,0.461972 -0.95209,0.797955 0,0.16805 0.042,0.252067 0.25196,0.560063 0.19604,0.265995 0.58811,0.938019 0.81209,1.428036 -1.09204,0.615992 -1.58206,0.840015 -1.83407,0.840015 -0.29398,0 -0.65806,-0.265922 -0.854,-0.643979 -0.07,0.09799 -0.098,0.140005 -0.098,0.224022 0,0.518004 0.79807,1.344004 1.30204,1.344004 0.15398,0 0.266,-0.05603 0.47605,-0.223964 0.77003,-0.616051 0.77003,-0.616051 1.28803,-0.952092 0.71404,1.568084 1.20406,3.248128 1.38602,4.732137 0.042,0.308054 0.15402,0.462074 0.36403,0.462074 0.32196,0 0.60202,-0.378057 0.60202,-0.784042 0,-0.363983 -0.12604,-0.826058 -0.49001,-1.70803 -0.46208,-1.134055 -0.95204,-2.198048 -1.38607,-2.99612 0.72807,-0.433986 1.16204,-0.672024 1.62407,-0.896061 0.85404,-0.405985 1.7221,-0.644037 2.33805,-0.644037 0.79806,0 1.35808,0.504091 1.35808,1.218087 0,0.924032 -0.77007,1.470037 -2.05805,1.470037 -0.74204,0 -1.41406,-0.154035 -2.1281,-0.476003 l -0.0981,0.209964 c 0.91008,0.58805 1.82011,0.86806 2.8141,0.86806 0.61599,0 1.1341,-0.125976 1.52607,-0.378057 0.518,-0.321968 0.84007,-0.896003 0.84007,-1.511995 0,-1.036007 -0.91007,-1.778033 -2.19809,-1.778033 -0.63006,0 -1.40009,0.167991 -2.3661,0.518003 -0.56002,0.210008 -0.86806,0.336041 -1.88999,0.854045 -0.65812,-1.274059 -0.79807,-1.582114 -0.79807,-1.694118 0,-0.223979 0.22398,-0.39197 0.49002,-0.39197 0.19603,0 0.46201,0.02799 1.54004,0.167991 1.02199,0.139947 1.02199,0.139947 1.30204,0.251966 0.14001,0.05603 0.23795,0.08402 0.33604,0.08402 0.23795,0 0.43399,-0.181963 0.43399,-0.433971 0,-0.251965 -0.16801,-0.56002 -0.44806,-0.840074 -0.29398,-0.307952 -0.65795,-0.518164 -1.30199,-0.783896 l -0.098,0.153874" />
          <path
             inkscape:connector-curvature="0"
             id="path1342"
             style="fill:#000000;fill-opacity:1;fill-rule:nonzero;stroke:none;stroke-width:0.35277775"
             d="m 132.75643,-8.7715176 c -0.042,0.09793 -0.056,0.181963 -0.056,0.223964 0,0.154035 0.084,0.406044 0.22398,0.630022 0.25207,0.420059 0.53202,0.672024 0.75604,0.672024 0.14001,0 0.26604,-0.05597 0.49002,-0.209949 0.54599,-0.350056 0.61611,-0.406044 1.42808,-0.826058 -0.014,0.461972 -0.014,0.588006 -0.042,0.966004 -0.79806,1.358077 -2.21206,3.444165 -2.66012,3.906137 -0.11196,0.139961 -0.15396,0.210066 -0.15396,0.322026 0,0.39197 0.27999,0.951975 0.47604,0.951975 0.084,0 0.16799,-0.06994 0.25201,-0.223964 0.20995,-0.39197 0.20995,-0.39197 0.29398,-0.56002 0.75606,0.798058 1.16204,1.329989 1.31606,1.750047 0.12594,0.32196803 0.12594,0.32196803 0.15404,0.39202903 0.0839,0.125975 0.18196,0.195977 0.32195,0.195977 0.15404,0 0.27997,-0.07 0.36399,-0.224022 0.15402,-0.25196503 0.26603,-0.72796703 0.26603,-1.16199703 0,-0.182065 -0.014,-0.420015 -0.028,-0.658052 -0.0981,-1.399991 -0.12604,-1.876081 -0.14007,-3.094109 0.61605,-0.727952 1.35808,-1.399991 2.3241,-2.128045 0.99399,-0.755954 1.59601,-1.021992 2.31005,-1.021992 1.20406,0 1.8481,1.106009 1.8481,3.164111 0,0.714039 -0.042,1.16204 -0.21006,1.917994 -0.476,-0.154035 -0.994,-0.23795 -1.46999,-0.23795 -1.28807,0 -2.19805,0.643935 -2.19805,1.526024 0,0.840015 0.70003,1.386063 1.77804,1.386063 0.61595,0 1.12004,-0.15402 1.61004,-0.490017 0.39197,-0.280053 0.588,-0.504076 0.83997,-1.008064 0.53208,0.349954 0.88209,0.672023 1.23204,1.106009 0.21007,0.266039 0.25203,0.308055 0.36404,0.308055 0.22397,0 0.378,-0.266039 0.378,-0.630022 0,-0.616051 -0.41997,-1.022036 -1.63804,-1.638028 0.19604,-0.840074 0.26604,-1.302046 0.26604,-1.918097 0,-1.021992 -0.098,-1.624013 -0.39201,-2.296037 -0.43403,-1.02205 -1.20406,-1.582113 -2.17007,-1.582113 -0.67202,0 -1.26003,0.168049 -1.97407,0.546106 -0.79801,0.433972 -1.19004,0.713938 -2.87008,2.100001 0.028,-0.363984 0.042,-0.588006 0.056,-0.630022 0.32207,-0.54599 0.32207,-0.54599 0.50403,-0.798057 0.11202,-0.153918 0.16799,-0.265937 0.16799,-0.349954 0,-0.16805 -0.084,-0.280068 -0.46197,-0.546005 0.0839,-0.504032 0.20996,-1.050022 0.33599,-1.3020894 0.084,-0.209964 0.11201,-0.279952 0.11201,-0.377955 0,-0.252067 -0.14005,-0.47609 -0.47605,-0.756041 -0.33604,-0.293981 -0.85404,-0.546049 -1.12008,-0.546049 -0.0839,0 -0.13995,0.01402 -0.23794,0.07005 0.64398,0.433986 0.79796,0.672038 0.79796,1.260044 0,0.405985 -0.0139,0.6300074 -0.098,1.7780334 -0.82604,0.392014 -1.68004,0.686053 -1.97407,0.686053 -0.33598,0 -0.60202,-0.196036 -0.896,-0.644037 z m 2.73008,2.632019 c -0.07,1.232044 -0.084,1.974084 -0.084,3.990111 -0.53202,-0.265936 -0.966,-0.56002 -1.49802,-0.993991 0.67202,-1.302046 1.20404,-2.296051 1.58205,-2.99612 z m 6.58018,3.094109 c -0.29403,0.644037 -0.34996,0.728055 -0.60204,0.966107 -0.33603,0.279951 -0.77001,0.433986 -1.28802,0.433986 -0.75605,0 -1.19002,-0.308055 -1.19002,-0.840073 0,-0.56002 0.61599,-0.937975 1.54008,-0.937975 0.56002,0 1.02199,0.112019 1.54,0.377955" />
          <path
             inkscape:connector-curvature="0"
             id="path1344"
             style="fill:#000000;fill-opacity:1;fill-rule:nonzero;stroke:none;stroke-width:0.35277775"
             d="m 137.93657,11.313814 c 0,1.050037 0.028,1.511995 0.12603,1.735973 0.07,0.182018 0.16795,0.280064 0.29399,0.280064 0.46197,0 0.54599,-0.504042 0.56001,-3.4581306 0,-5.334173 0.028,-5.950165 0.168,-6.174188 0.16805,-0.237993 0.19603,-0.293981 0.19603,-0.433986 0,-0.223978 -0.14,-0.364085 -0.60203,-0.602021 -0.46196,-0.252067 -0.96605,-0.405999 -1.26003,-0.405999 -0.18201,0 -0.33604,0.05599 -0.448,0.182021 0.36398,0.11196 0.60203,0.26598 0.76996,0.475987 0.18203,0.237994 0.22403,0.532033 0.22403,1.54004 l -0.028,6.8602396" />
          <path
             inkscape:connector-curvature="0"
             id="path1346"
             style="fill:#000000;fill-opacity:1;fill-rule:nonzero;stroke:none;stroke-width:0.35277775"
             d="m 134.75844,16.628603 c -0.07,0.140058 -0.0839,0.196038 -0.0839,0.280061 0,0.195984 0.0979,0.518004 0.26594,0.798063 0.26598,0.489908 0.58805,0.769969 0.868,0.769969 0.12604,0 0.23805,-0.04201 0.43404,-0.154026 0.36403,-0.223974 0.896,-0.475992 1.68005,-0.78399 1.21807,-0.462074 1.37209,-0.518056 1.52601,-0.518056 0.11201,0 0.19603,0.07 0.19603,0.182017 0,0.224027 -0.68599,0.993994 -2.24005,2.464086 -1.93207,1.84804 -3.1921,2.828072 -3.93408,3.052078 -0.29402,0.08402 -0.37805,0.168045 -0.37805,0.363994 0,0.280049 0.476,0.742014 0.77002,0.742014 0.0981,0 0.16805,-0.02799 0.36403,-0.153935 0.64399,-0.462044 3.76613,-1.722078 5.01215,-2.030076 -0.78405,0.462022 -1.14801,0.741978 -1.582,1.204038 -0.56002,0.602032 -0.86806,1.302034 -0.86806,2.002038 0,1.624095 1.582,2.800085 3.80813,2.800085 0.49002,0 0.714,-0.112 0.714,-0.36399 0,-0.30803 -0.51806,-0.812 -0.826,-0.812 -0.0281,0 -0.11202,0.0139 -0.22404,0.028 -0.07,0.0139 -0.23804,0.0139 -0.42,0.0139 -1.48406,0 -2.4641,-0.755969 -2.4641,-1.890036 0,-1.008033 0.72807,-1.988085 1.90408,-2.604065 0.72795,-0.392074 1.72206,-0.672028 2.49203,-0.700019 0.78404,-0.04201 0.79806,-0.04201 0.89605,-0.06995 0.16805,-0.01407 0.28007,-0.126036 0.28007,-0.26604 0,-0.154025 -0.07,-0.266039 -0.23806,-0.40599 -0.23805,-0.196036 -0.54599,-0.336041 -0.72801,-0.336041 -0.14005,0 -0.21005,0.01397 -0.57403,0.140005 -0.26604,0.08402 -0.54599,0.167941 -1.30205,0.391968 -2.32408,0.65806 -3.99011,1.190031 -5.44613,1.764073 1.10597,-0.811984 3.05205,-2.338058 4.06011,-3.164059 1.10601,-0.910076 1.52603,-1.232044 1.84799,-1.414059 0.30806,-0.126035 0.35006,-0.168046 0.35006,-0.322071 0,-0.419959 -0.86806,-1.315963 -1.27406,-1.315963 -0.084,0 -0.18201,0.04201 -0.25201,0.09794 -0.19599,0.168045 -0.19599,0.168045 -0.28001,0.210004 -0.18202,0.08402 -0.55996,0.196038 -1.09198,0.35001 -1.036,0.280061 -1.90408,0.476044 -2.17012,0.476044 -0.47598,0 -0.81197,-0.252016 -1.09204,-0.826054 z m 6.83226,-0.363977 c 0.378,0.378 0.826,0.994048 1.06404,1.484008 0.44795,0.910077 0.44795,0.910077 0.63002,0.910077 0.23795,0 0.43398,-0.252018 0.43398,-0.588005 0,-0.336041 -0.19603,-0.658061 -0.70002,-1.12003 -0.35001,-0.30805 -0.72806,-0.574089 -1.24606,-0.868066 z m 1.47004,-0.798011 c 0.77001,0.742031 1.04997,1.106008 1.53998,1.988042 0.11202,0.195985 0.19603,0.265988 0.32207,0.265988 0.21,0 0.34996,-0.237945 0.34996,-0.573986 0,-0.377998 -0.18196,-0.671975 -0.72796,-1.078069 -0.42006,-0.321968 -0.82605,-0.573986 -1.33008,-0.798012 l -0.15397,0.196037" />
        </g>
        <g
           id="g1524"
           transform="translate(20)">
          <path
             inkscape:connector-curvature="0"
             id="path1348"
             style="fill:#000000;fill-opacity:1;fill-rule:nonzero;stroke:none;stroke-width:0.35277775"
             d="m 120.3337,-36.733783 c 0.084,0 0.12603,-0.02784 0.12603,-0.08403 0,0 -0.014,-0.01416 -0.014,-0.08402 -0.50409,-0.531974 -0.65801,-0.685834 -1.19003,-1.147967 -0.33604,0.433767 -0.44801,0.559801 -0.85405,0.994093 h -2.49202 c 0.30794,-0.798217 0.4899,-1.386369 0.86796,-2.674035 0.47604,-0.111858 0.57403,-0.153859 0.57403,-0.252067 0,-0.09821 -0.084,-0.14021 -0.32196,-0.195876 -0.15403,-0.04202 -0.25207,-0.07037 -0.28006,-0.07037 -0.46209,-0.126048 -0.46209,-0.126048 -0.96601,-0.223716 -0.084,0.853884 -0.30805,2.029692 -0.60203,3.121993 -0.49007,1.736119 -1.05008,3.094152 -1.86206,4.424345 l 0.16805,0.111858 c 0.72795,-0.853884 1.036,-1.302367 1.582,-2.352127 0.22397,1.316017 0.64403,2.533826 1.24606,3.737985 -0.89606,1.456227 -1.79206,2.310111 -3.45819,3.37406 l 0.16805,0.182226 c 1.76407,-0.85441 2.78605,-1.637926 3.72412,-2.842085 0.28006,0.39175 0.57404,0.742026 1.02204,1.204159 0.64398,0.671658 0.97997,0.951551 1.66602,1.400034 0.12604,-0.392291 0.23805,-0.560326 0.50398,-0.728376 0.18207,-0.111858 0.30806,-0.153874 0.58812,-0.1817 v -0.168049 c -0.93807,-0.350275 -1.38607,-0.573991 -2.01609,-1.008284 -0.53203,-0.378101 -0.92399,-0.713675 -1.31607,-1.175793 0.53203,-0.88225 0.95209,-1.890008 1.27406,-3.02431 0.23794,-0.811883 0.30805,-1.232 0.43398,-2.337951 z m -2.40806,0 c -0.11201,1.652102 -0.53202,3.275852 -1.24606,4.675887 -0.68605,-1.077586 -0.994,-1.861642 -1.41401,-3.513744 0.23795,-0.489959 0.308,-0.658008 0.51801,-1.162143 z m -7.89629,-1.526068 v -1.498242 c 0.43407,-0.125508 0.51801,-0.1817 0.51801,-0.293558 0,-0.140224 -0.112,-0.16805 -1.47,-0.406467 0.042,0.434293 0.042,0.434293 0.07,1.806501 v 0.391766 h -0.294 c -0.40601,0 -0.95207,-0.04202 -1.24607,-0.08403 l 0.042,0.447957 c 0.812,-0.04202 0.882,-0.04202 1.19003,-0.04202 h 0.30803 v 2.016027 h -0.49003 c -0.26602,0 -1.00803,-0.042 -1.30203,-0.06984 l 0.07,0.447957 c 0.20998,-0.01416 0.36399,-0.01416 0.46205,-0.01416 0.43398,-0.02782 0.71403,-0.042 0.76999,-0.042 h 5.61419 c 0.098,0 0.168,-0.04202 0.168,-0.09768 0,-0.02835 -0.028,-0.07037 -0.084,-0.126034 -0.40599,-0.392291 -0.53198,-0.517799 -0.95199,-0.8959 -0.26604,0.336099 -0.33604,0.447943 -0.588,0.797692 h -0.36409 v -2.016027 h 1.75005 c 0.084,0 0.15403,-0.04202 0.15403,-0.09768 0,-0.01416 -0.014,-0.05619 -0.028,-0.08402 -0.42001,-0.406496 -0.56001,-0.518353 -0.98002,-0.910104 -0.25202,0.321909 -0.32202,0.433767 -0.546,0.769866 h -0.35006 v -1.456241 c 0.43409,-0.111843 0.53203,-0.167509 0.53203,-0.279893 0,-0.139698 -0.32197,-0.223716 -1.48402,-0.420117 0.042,0.574502 0.056,0.86806 0.056,1.806501 v 0.34975 z m 0,0.321909 h 1.52604 v 2.016027 h -1.52604 z m 2.0581,7.280095 v 1.456226 c 0,0.140209 -0.028,0.16805 -0.12604,0.182225 -1.14803,-0.01416 -1.14803,-0.02837 -1.70805,-0.07037 v 0.196401 c 0.89603,0.06984 1.20406,0.251542 1.41404,0.86806 0.39205,-0.07037 0.65809,-0.154385 0.88207,-0.266243 0.34996,-0.153874 0.448,-0.321909 0.47599,-0.742026 0.014,-0.153874 0.014,-0.265732 0.014,-0.363926 l -0.014,-1.204159 v -3.416076 c 0.37805,-0.182225 0.37805,-0.182225 0.37805,-0.265731 0,-0.05618 -0.042,-0.09819 -0.14,-0.210052 -0.30805,-0.238417 -0.42001,-0.308259 -0.79806,-0.560326 -0.15403,0.210051 -0.308,0.405927 -0.46203,0.602342 h -2.54803 c -0.40601,-0.280433 -0.54607,-0.36445 -1.02206,-0.630182 0.014,1.484066 0.028,1.763959 0.028,2.407792 0,1.470417 -0.042,3.346234 -0.0839,4.550393 0,0.02783 0,0.042 0,0.05619 0,0.111843 0.0839,0.16751 0.25199,0.16751 0.19603,0 0.49003,-0.02783 0.61598,-0.06984 0.07,-0.01358 0.112,-0.06984 0.112,-0.15386 0,0 0,-0.02784 0,-0.04202 v -2.492328 z m 0,-0.321924 h -2.73012 v -1.42786 h 2.73012 z m 0,-1.749784 h -2.73012 v -1.400034 h 2.73012 v 1.400034" />
          <path
             inkscape:connector-curvature="0"
             id="path1350"
             style="fill:#000000;fill-opacity:1;fill-rule:nonzero;stroke:none;stroke-width:0.35277775"
             d="m 109.06333,-18.986489 c -0.46196,0.727952 -0.68597,1.036007 -0.90997,1.245956 -0.22401,0.224022 -0.23804,0.252009 -0.23804,0.420058 0,0.209949 0.07,0.545947 0.15401,0.769969 0.084,0.210066 0.19603,0.32207 0.32198,0.32207 0.13999,0 0.19603,-0.08402 0.476,-0.756041 0.63009,0.672023 1.0781,1.246058 1.23204,1.526009 0.042,0.09799 0.19603,0.532077 0.23804,0.672038 0.07,0.266039 0.18199,0.378043 0.33601,0.378043 0.33601,0 0.60203,-0.658009 0.60203,-1.456066 0,-0.209949 0,-0.321967 -0.042,-0.658008 -0.098,-1.078067 -0.13999,-1.750105 -0.13999,-2.506044 0,-0.210066 0,-0.392072 0.014,-0.728113 0.74201,-0.881987 1.40007,-1.568041 2.12808,-2.211976 1.12003,-0.994093 1.84809,-1.414049 2.45012,-1.414049 0.54599,0 0.85399,0.39197 0.85399,1.078023 0,0.518003 -0.028,0.713923 -0.35001,2.212004 -0.22403,1.092053 -0.35006,1.988099 -0.35006,2.492088 0,1.274045 0.57403,1.960098 1.63814,1.960098 0.99399,0 2.08603,-0.574079 3.0941,-1.610086 l -0.11202,-0.167947 c -0.9241,0.630022 -1.90407,0.993991 -2.60414,0.993991 -0.26593,0 -0.518,-0.07 -0.71394,-0.209949 -0.25207,-0.182123 -0.35006,-0.476105 -0.35006,-1.03611 0,-0.573991 0.084,-1.385961 0.25197,-2.296051 0.26604,-1.441992 0.28006,-1.540083 0.28006,-2.072116 0,-0.54599 -0.11202,-0.923989 -0.378,-1.231941 -0.28006,-0.32207 -0.67203,-0.504076 -1.10612,-0.504076 -0.61594,0 -1.27395,0.294024 -2.25403,0.994049 -0.60202,0.43403 -1.06404,0.840015 -2.43608,2.142061 0,-0.223979 0,-0.280054 0.028,-0.518004 0.14007,-0.335983 0.28005,-0.602021 0.44802,-0.910076 0.1821,-0.293981 0.19602,-0.321967 0.19602,-0.405985 0,-0.112018 -0.098,-0.223978 -0.406,-0.546004 0.056,-0.392014 0.15402,-0.840074 0.25199,-1.106054 0.14009,-0.419956 0.14009,-0.419956 0.14009,-0.573991 0,-0.266038 -0.28008,-0.616299 -0.72809,-0.924047 -0.36399,-0.237877 -0.67202,-0.3781 -0.89603,-0.3781 -0.07,0 -0.098,0.01416 -0.182,0.07037 0.67203,0.503623 0.79806,0.741515 0.79806,1.553748 0,0.504091 -0.0281,0.89606 -0.0981,1.484066 -0.82604,0.462017 -1.73602,0.840074 -2.01607,0.840074 -0.294,0 -0.60203,-0.224023 -0.90998,-0.672024 -0.0281,0.09793 -0.042,0.209949 -0.042,0.237936 0,0.448001 0.67202,1.274059 1.03601,1.274059 0.12604,0 0.20998,-0.04202 0.476,-0.224023 0.25207,-0.181962 0.99408,-0.685951 1.41403,-0.966004 -0.0139,0.210051 -0.0139,0.210051 -0.042,0.490002 -0.0139,0.363984 -0.0139,0.363984 -0.028,0.588006 z m 1.5121,-1.302046 c -0.042,0.573918 -0.0561,0.896002 -0.0561,1.581997 -0.0139,2.08603 -0.0139,2.08603 -0.042,2.618063 -0.40601,-0.251965 -0.65799,-0.448001 -1.48403,-1.134055 0.26602,-0.560019 0.42004,-0.867957 0.74202,-1.484008 0.63001,-1.176012 0.64404,-1.176012 0.84007,-1.581997" />
          <path
             inkscape:connector-curvature="0"
             id="path1352"
             style="fill:#000000;fill-opacity:1;fill-rule:nonzero;stroke:none;stroke-width:0.35277775"
             d="m 120.3337,-8.7435316 c 0.084,0 0.12603,-0.02799 0.12603,-0.08397 0,0 -0.014,-0.01402 -0.014,-0.08402 -0.50409,-0.532033 -0.65801,-0.686053 -1.19003,-1.1480254 -0.33604,0.4339864 -0.44801,0.5600194 -0.85405,0.9939914 h -2.49202 c 0.30794,-0.798058 0.4899,-1.3860204 0.86796,-2.6740364 0.47604,-0.112018 0.57403,-0.15402 0.57403,-0.252067 0,-0.09799 -0.084,-0.140005 -0.32196,-0.195934 -0.15403,-0.04202 -0.25208,-0.07011 -0.28007,-0.07011 -0.46208,-0.125931 -0.46208,-0.125931 -0.966,-0.22392 -0.084,0.854045 -0.30805,2.030042 -0.60203,3.1220954 -0.49007,1.736017 -1.05008,3.094094 -1.86206,4.424082 l 0.16805,0.112019 c 0.72795,-0.854045 1.036,-1.302046 1.582,-2.352083 0.22397,1.316076 0.64403,2.534089 1.24606,3.738146 -0.89606,1.456022 -1.79206,2.310066 -3.45819,3.37406003 l 0.16805,0.182065 c 1.76407,-0.854089 2.78605,-1.63802903 3.72412,-2.84208503 0.28006,0.39197 0.57404,0.741982 1.02204,1.204056 0.64398,0.67192203 0.97997,0.95197503 1.66602,1.39997603 0.12604,-0.392072 0.23805,-0.560005 0.50398,-0.728054 0.18207,-0.111917 0.30806,-0.15391803 0.58812,-0.18202103 v -0.167933 c -0.93807,-0.350071 -1.38607,-0.574035 -2.01609,-1.008021 -0.53203,-0.378057 -0.92399,-0.71404 -1.31607,-1.176114 0.53203,-0.881987 0.95209,-1.889993 1.27406,-3.024004 0.23794,-0.812072 0.30805,-1.232043 0.43398,-2.338097 z m -2.40806,0 c -0.11201,1.652058 -0.53202,3.276072 -1.24606,4.67615 -0.68605,-1.078009 -0.994,-1.862051 -1.41401,-3.514109 0.23795,-0.490061 0.308,-0.658008 0.51801,-1.162041 z m -7.89629,-1.5260824 v -1.498024 c 0.43407,-0.125975 0.51801,-0.182021 0.51801,-0.294024 0,-0.139962 -0.112,-0.167948 -1.47,-0.406 0.042,0.433986 0.042,0.433986 0.07,1.806092 v 0.391956 h -0.294 c -0.40601,0 -0.95207,-0.042 -1.24607,-0.08402 l 0.042,0.4480014 c 0.812,-0.0419 0.882,-0.0419 1.19003,-0.0419 h 0.30803 v 2.015969 h -0.49003 c -0.26602,0 -1.00803,-0.0419 -1.30203,-0.06999 l 0.07,0.448001 c 0.20998,-0.01387 0.36399,-0.01387 0.46205,-0.01387 0.43398,-0.02809 0.71403,-0.042 0.76999,-0.042 h 5.61419 c 0.098,0 0.168,-0.04202 0.168,-0.09805 0,-0.02799 -0.028,-0.07 -0.084,-0.12599 -0.40599,-0.392014 -0.53198,-0.518003 -0.95199,-0.896002 -0.26604,0.335997 -0.33604,0.448001 -0.588,0.797955 h -0.36409 v -2.015969 h 1.75005 c 0.084,0 0.15403,-0.04202 0.15403,-0.09805 0,-0.01402 -0.014,-0.05599 -0.028,-0.08403 -0.42001,-0.406043 -0.56001,-0.518062 -0.98002,-0.910017 -0.25202,0.321953 -0.32202,0.433971 -0.546,0.769954 h -0.35006 v -1.456007 c 0.43409,-0.112019 0.53203,-0.167992 0.53203,-0.28001 0,-0.140064 -0.32197,-0.223979 -1.48402,-0.420015 0.042,0.574035 0.056,0.868074 0.056,1.806078 v 0.349954 z m 0,0.3220844 h 1.52604 v 2.015969 h -1.52604 z m 2.0581,7.280139 v 1.456065 c 0,0.140063 -0.028,0.16805 -0.12604,0.181963 -1.14803,-0.01387 -1.14803,-0.02793 -1.70805,-0.06994 v 0.19597703 c 0.89603,0.07 1.20406,0.252024 1.41404,0.868075 0.39205,-0.07 0.65809,-0.154035 0.88207,-0.266039 0.34996,-0.153976 0.448,-0.322026 0.47599,-0.74198203 0.014,-0.15402 0.014,-0.266039 0.014,-0.363984 l -0.014,-1.2041 v -3.41612 c 0.37805,-0.182021 0.37805,-0.182021 0.37805,-0.265936 0,-0.05603 -0.042,-0.09805 -0.14,-0.210052 -0.30805,-0.23795 -0.42001,-0.308054 -0.79806,-0.560019 -0.15403,0.210051 -0.308,0.405985 -0.46203,0.602021 h -2.54803 c -0.40601,-0.279952 -0.54607,-0.363969 -1.02206,-0.630008 0.014,1.484009 0.028,1.764062 0.028,2.408056 0,1.470037 -0.042,3.346117 -0.0839,4.55011503 0,0.02805 0,0.04202 0,0.05603 0,0.112018 0.0839,0.167991 0.25199,0.167991 0.19603,0 0.49003,-0.02799 0.61598,-0.07 0.07,-0.01402 0.112,-0.07 0.112,-0.15402 0,0 0,-0.02799 0,-0.04202 V -2.6673896 Z m 0,-0.321968 h -2.73012 v -1.428079 h 2.73012 z m 0,-1.750047 h -2.73012 v -1.400093 h 2.73012 v 1.400093" />
          <path
             inkscape:connector-curvature="0"
             id="path1354"
             style="fill:#000000;fill-opacity:1;fill-rule:nonzero;stroke:none;stroke-width:0.35277775"
             d="m 109.06333,9.0037624 c -0.46196,0.727953 -0.68597,1.0359926 -0.90997,1.2459556 -0.22401,0.224023 -0.23804,0.252009 -0.23804,0.420059 0,0.209949 0.07,0.545946 0.15401,0.769968 0.084,0.210066 0.19603,0.32207 0.32198,0.32207 0.13999,0 0.19603,-0.08402 0.476,-0.756041 0.63009,0.672024 1.0781,1.246058 1.23204,1.52601 0.042,0.09799 0.19603,0.532077 0.23804,0.672032 0.07,0.266039 0.18199,0.378051 0.33601,0.378051 0.33601,0 0.60203,-0.658011 0.60203,-1.456068 0,-0.209949 0,-0.321968 -0.042,-0.658009 -0.098,-1.078067 -0.13999,-1.7501046 -0.13999,-2.5060436 0,-0.210066 0,-0.392072 0.014,-0.728113 0.74201,-0.881987 1.40007,-1.56804 2.12808,-2.211975 1.12003,-0.994094 1.84809,-1.41405 2.45012,-1.41405 0.54599,0 0.85399,0.39197 0.85399,1.078009 0,0.518003 -0.028,0.713937 -0.35001,2.212019 -0.22403,1.092038 -0.35007,1.988099 -0.35007,2.4920866 0,1.274045 0.57404,1.960098 1.63814,1.960098 0.994,0 2.08604,-0.574093 3.09411,-1.6101 l -0.11202,-0.167933 c -0.9241,0.630022 -1.90407,0.993991 -2.60414,0.993991 -0.26593,0 -0.518,-0.07 -0.71394,-0.209949 -0.25207,-0.182123 -0.35006,-0.476104 -0.35006,-1.036109 0,-0.5739906 0.084,-1.3859606 0.25197,-2.2960506 0.26604,-1.441993 0.28006,-1.540084 0.28006,-2.072117 0,-0.54599 -0.11202,-0.923989 -0.378,-1.231941 -0.28006,-0.32207 -0.67203,-0.504076 -1.10612,-0.504076 -0.61594,0 -1.27395,0.294025 -2.25403,0.994049 -0.60202,0.43403 -1.06404,0.840015 -2.43608,2.142061 0,-0.223979 0,-0.280054 0.028,-0.518004 0.14007,-0.335982 0.28005,-0.602021 0.44802,-0.910075 0.1821,-0.293981 0.19602,-0.321968 0.19602,-0.405985 0,-0.112019 -0.098,-0.223979 -0.406,-0.546005 0.056,-0.392014 0.15402,-0.840073 0.25199,-1.106053 0.14009,-0.419957 0.14009,-0.419957 0.14009,-0.573991 0,-0.266039 -0.28008,-0.616036 -0.72809,-0.923989 -0.36399,-0.238052 -0.67202,-0.378057 -0.89603,-0.378057 -0.07,0 -0.098,0.01402 -0.182,0.07 0.67203,0.503988 0.79806,0.74204 0.79806,1.55401 0,0.504091 -0.0281,0.896061 -0.0981,1.484067 -0.82604,0.462016 -1.73602,0.840073 -2.01607,0.840073 -0.294,0 -0.60203,-0.224022 -0.90998,-0.672023 -0.0281,0.09793 -0.042,0.209949 -0.042,0.237935 0,0.448001 0.67202,1.274059 1.03601,1.274059 0.12604,0 0.20998,-0.04202 0.476,-0.224022 0.25207,-0.181963 0.99408,-0.685951 1.41403,-0.966005 -0.0139,0.210051 -0.0139,0.210051 -0.042,0.490003 -0.0139,0.363983 -0.0139,0.363983 -0.028,0.588006 z m 1.5121,-1.302045 c -0.042,0.573918 -0.0561,0.896002 -0.0561,1.581997 -0.0139,2.0860286 -0.0139,2.0860286 -0.042,2.6180616 -0.40601,-0.251965 -0.65799,-0.448001 -1.48403,-1.134054 0.26602,-0.56002 0.42004,-0.8679576 0.74202,-1.4840076 0.63001,-1.176012 0.64404,-1.176012 0.84007,-1.581997" />
          <path
             inkscape:connector-curvature="0"
             id="path1356"
             style="fill:#000000;fill-opacity:1;fill-rule:nonzero;stroke:none;stroke-width:0.35277775"
             d="m 111.36121,22.788041 2.16512,-6.55118 c 0.0581,-0.16017 0.0726,-0.21846 0.0726,-0.30574 0,-0.2912 -0.21794,-0.59688 -0.65386,-0.59688 -0.0436,0 -0.79912,0.0145 -0.94448,0.87347 l -1.08973,6.47841 c -0.0291,0.13105 -0.0291,0.16017 -0.0291,0.1747 0,0.14556 0.0872,0.17469 0.21804,0.17469 0.15981,0 0.17435,-0.0145 0.26148,-0.24747 z m 0.0145,2.05266 c 0,-0.29113 -0.21794,-0.62599 -0.65381,-0.62599 -0.45047,0 -0.92998,0.42217 -0.92998,0.9172 0,0.36391 0.27607,0.62599 0.63936,0.62599 0.49401,0 0.94443,-0.4659 0.94443,-0.9172" />
          <path
             inkscape:connector-curvature="0"
             id="path1358"
             style="fill:#000000;fill-opacity:1;fill-rule:nonzero;stroke:none;stroke-width:0.35277775"
             d="m 115.81971,22.788041 2.16508,-6.55118 c 0.0581,-0.16017 0.0726,-0.21846 0.0726,-0.30574 0,-0.2912 -0.21794,-0.59688 -0.65389,-0.59688 -0.0436,0 -0.79912,0.0145 -0.94444,0.87347 l -1.08975,6.47841 c -0.0292,0.13105 -0.0292,0.16017 -0.0292,0.1747 0,0.14556 0.0872,0.17469 0.21804,0.17469 0.1598,0 0.17435,-0.0145 0.26149,-0.24747 z m 0.0145,2.05266 c 0,-0.29113 -0.21794,-0.62599 -0.65381,-0.62599 -0.45047,0 -0.92998,0.42217 -0.92998,0.9172 0,0.36391 0.27607,0.62599 0.63937,0.62599 0.494,0 0.94442,-0.4659 0.94442,-0.9172" />
        </g>
      </g>
    </g>
  </g>
</svg>
