<?xml version="1.0" encoding="UTF-8" standalone="no"?>
<!-- Created with Inkscape (http://www.inkscape.org/) -->

<svg
   xmlns:dc="http://purl.org/dc/elements/1.1/"
   xmlns:cc="http://creativecommons.org/ns#"
   xmlns:rdf="http://www.w3.org/1999/02/22-rdf-syntax-ns#"
   xmlns:svg="http://www.w3.org/2000/svg"
   xmlns="http://www.w3.org/2000/svg"
   xmlns:sodipodi="http://sodipodi.sourceforge.net/DTD/sodipodi-0.dtd"
   xmlns:inkscape="http://www.inkscape.org/namespaces/inkscape"
   version="1.1"
   id="svg2"
   xml:space="preserve"
   width="76.98896"
   height="19.790449"
   viewBox="0 0 76.988959 19.790449"
   sodipodi:docname="spr.svg"
   inkscape:version="0.92.1 r15371"><metadata
     id="metadata8"><rdf:RDF><cc:Work
         rdf:about=""><dc:format>image/svg+xml</dc:format><dc:type
           rdf:resource="http://purl.org/dc/dcmitype/StillImage" /><dc:title></dc:title></cc:Work></rdf:RDF></metadata><defs
     id="defs6" /><sodipodi:namedview
     pagecolor="#ffffff"
     bordercolor="#666666"
     borderopacity="1"
     objecttolerance="10"
     gridtolerance="10"
     guidetolerance="10"
     inkscape:pageopacity="0"
     inkscape:pageshadow="2"
     inkscape:window-width="1920"
     inkscape:window-height="1027"
     id="namedview4"
     showgrid="false"
     inkscape:snap-center="true"
     inkscape:snap-object-midpoints="true"
     inkscape:zoom="4"
     inkscape:cx="13.342981"
     inkscape:cy="64.509718"
     inkscape:window-x="-8"
     inkscape:window-y="-8"
     inkscape:window-maximized="1"
     inkscape:current-layer="g10"
     fit-margin-top="0"
     fit-margin-left="0"
     fit-margin-right="0"
     fit-margin-bottom="0" /><g
     id="g10"
     inkscape:groupmode="layer"
     inkscape:label="ink_ext_XXXXXX"
     transform="matrix(1.3333333,0,0,-1.3333333,-77.979769,44.184924)"><path
       sodipodi:nodetypes="cccccc"
       inkscape:connector-curvature="0"
       id="path4570"
       d="m 72.683368,30.183354 c -1.15987,-1.159872 -2.12124,-3.982327 -2.12124,-6.122499 0,-7.403168 4.36772,-7.226773 4.36772,0.814538 0,7.741339 -4.92891,9.552107 -7.49853,6.485296 -1.15987,-1.159872 -2.12124,-3.982327 -2.12124,-6.122501 l -6.82525,-2e-6"
       style="fill:none;stroke:#000000;stroke-width:0.75px;stroke-linecap:butt;stroke-linejoin:miter;stroke-opacity:1" /><path
       style="fill:none;stroke:#000000;stroke-width:0.75px;stroke-linecap:butt;stroke-linejoin:miter;stroke-opacity:1"
       d="m 74.325608,31.360689 c 2.56962,3.066811 7.49853,1.256043 7.49853,-6.485296 0,-8.041311 -4.36772,-8.217706 -4.36772,-0.814538 0,2.140172 0.96137,4.962627 2.12124,6.122499"
       id="path4576"
       inkscape:connector-curvature="0"
       sodipodi:nodetypes="cccc" /><path
       sodipodi:nodetypes="cccc"
       inkscape:connector-curvature="0"
       id="path4589"
       d="m 81.219898,31.360689 c 2.56962,3.066811 7.49853,1.256043 7.49853,-6.485296 0,-8.041311 -4.36772,-8.217706 -4.36772,-0.814538 0,2.140172 0.96137,4.962627 2.12124,6.122499"
       style="fill:none;stroke:#000000;stroke-width:0.75px;stroke-linecap:butt;stroke-linejoin:miter;stroke-opacity:1" /><path
       style="fill:none;stroke:#000000;stroke-width:0.75px;stroke-linecap:butt;stroke-linejoin:miter;stroke-opacity:1"
       d="m 88.114188,31.360689 c 2.56962,3.066811 7.49853,1.256043 7.49853,-6.485296 0,-8.041311 -4.36772,-8.217706 -4.36772,-0.814538 0,2.140172 0.96137,4.962627 2.12124,6.122499"
       id="path4602"
       inkscape:connector-curvature="0"
       sodipodi:nodetypes="cccc" /><path
       style="fill:none;stroke:#000000;stroke-width:0.75px;stroke-linecap:butt;stroke-linejoin:miter;stroke-opacity:1"
       d="m 95.008478,31.360689 c 2.56962,3.066811 7.498532,1.256043 7.498532,-6.485296 0,-8.041311 -4.367722,-8.217706 -4.367722,-0.814538 0,2.140172 0.96137,4.962627 2.121242,6.122499"
       id="path4615"
       inkscape:connector-curvature="0"
       sodipodi:nodetypes="cccc" /><path
       style="fill:none;stroke:#000000;stroke-width:0.75px;stroke-linecap:butt;stroke-linejoin:miter;stroke-opacity:1"
       d="m 116.22655,24.875389 -6.82525,2e-6 c 0,7.741341 -4.92891,9.552109 -7.49853,6.485298"
       id="path4630"
       inkscape:connector-curvature="0"
       sodipodi:nodetypes="ccc" /></g></svg>